Foldit-SemiBold.ufo
<glyph name="exclam.color0" format="2">
  <advance width="600"/>
  <unicode hex="0021"/>
  <outline>
    <contour>
      <point x="49" y="203" type="line"/>
      <point x="183" y="203" type="line"/>
      <point x="183" y="723" type="line"/>
      <point x="182" y="723" type="line"/>
      <point x="49" y="651" type="line"/>
    </contour>
  </outline>
</glyph>
<glyph name="exclam.color1" format="2">
  <advance width="600"/>
  <unicode hex="0021"/>
  <outline>
    <contour>
      <point x="43" y="0" type="line"/>
      <point x="192" y="0" type="line"/>
      <point x="192" y="129" type="line"/>
      <point x="43" y="129" type="line"/>
    </contour>
  </outline>
</glyph>
<glyph name="exclam" format="2">
  <advance width="234"/>
  <unicode hex="0021"/>
  <outline>
    <contour>
      <point x="49" y="203" type="line"/>
      <point x="183" y="203" type="line"/>
      <point x="183" y="723" type="line"/>
      <point x="182" y="723" type="line"/>
      <point x="49" y="651" type="line"/>
    </contour>
    <contour>
      <point x="43" y="0" type="line"/>
      <point x="192" y="0" type="line"/>
      <point x="192" y="129" type="line"/>
      <point x="43" y="129" type="line"/>
    </contour>
  </outline>
</glyph>
<glyph name="quotedbl.color3" format="2">
  <advance width="600"/>
  <unicode hex="0022"/>
  <outline>
    <contour>
      <point x="224" y="473" type="line"/>
      <point x="224" y="473" type="line"/>
      <point x="308" y="473" type="line"/>
      <point x="363" y="623" type="line"/>
      <point x="251" y="623" type="line"/>
    </contour>
  </outline>
</glyph>
<glyph name="quotedbl" format="2">
  <advance width="396"/>
  <unicode hex="0022"/>
  <outline>
    <contour>
      <point x="34" y="623" type="line"/>
      <point x="193" y="623" type="line"/>
      <point x="121" y="757" type="line"/>
      <point x="34" y="757" type="line"/>
    </contour>
    <contour>
      <point x="54" y="473" type="line"/>
      <point x="54" y="473" type="line"/>
      <point x="138" y="473" type="line"/>
      <point x="193" y="623" type="line"/>
      <point x="81" y="623" type="line"/>
    </contour>
    <contour>
      <point x="204" y="623" type="line"/>
      <point x="363" y="623" type="line"/>
      <point x="291" y="757" type="line"/>
      <point x="204" y="757" type="line"/>
    </contour>
    <contour>
      <point x="224" y="473" type="line"/>
      <point x="224" y="473" type="line"/>
      <point x="308" y="473" type="line"/>
      <point x="363" y="623" type="line"/>
      <point x="251" y="623" type="line"/>
    </contour>
  </outline>
</glyph>
<glyph name="numbersign.color0" format="2">
  <advance width="600"/>
  <unicode hex="0023"/>
  <outline>
    <contour>
      <point x="282" y="0" type="line"/>
      <point x="411" y="0" type="line"/>
      <point x="618" y="717" type="line"/>
      <point x="618" y="718" type="line"/>
      <point x="490" y="718" type="line"/>
      <point x="282" y="1" type="line"/>
    </contour>
  </outline>
</glyph>
<glyph name="numbersign.color1" format="2">
  <advance width="600"/>
  <unicode hex="0023"/>
  <outline>
    <contour>
      <point x="14" y="160" type="line"/>
      <point x="557" y="160" type="line"/>
      <point x="598" y="277" type="line"/>
      <point x="598" y="278" type="line"/>
      <point x="56" y="278" type="line"/>
      <point x="14" y="161" type="line"/>
    </contour>
  </outline>
</glyph>
<glyph name="numbersign.color2" format="2">
  <advance width="600"/>
  <unicode hex="0023"/>
  <outline>
    <contour>
      <point x="66" y="0" type="line"/>
      <point x="195" y="0" type="line"/>
      <point x="401" y="717" type="line"/>
      <point x="401" y="718" type="line"/>
      <point x="272" y="718" type="line"/>
      <point x="66" y="1" type="line"/>
    </contour>
  </outline>
</glyph>
<glyph name="numbersign.color3" format="2">
  <advance width="600"/>
  <unicode hex="0023"/>
  <outline>
    <contour>
      <point x="85" y="454" type="line"/>
      <point x="628" y="454" type="line"/>
      <point x="670" y="570" type="line"/>
      <point x="670" y="571" type="line"/>
      <point x="128" y="571" type="line"/>
      <point x="85" y="455" type="line"/>
    </contour>
  </outline>
</glyph>
<glyph name="numbersign" format="2">
  <advance width="687.25"/>
  <unicode hex="0023"/>
  <outline>
    <contour>
      <point x="282" y="0" type="line"/>
      <point x="411" y="0" type="line"/>
      <point x="618" y="717" type="line"/>
      <point x="618" y="718" type="line"/>
      <point x="490" y="718" type="line"/>
      <point x="282" y="1" type="line"/>
    </contour>
    <contour>
      <point x="14" y="160" type="line"/>
      <point x="557" y="160" type="line"/>
      <point x="598" y="277" type="line"/>
      <point x="598" y="278" type="line"/>
      <point x="56" y="278" type="line"/>
      <point x="14" y="161" type="line"/>
    </contour>
    <contour>
      <point x="66" y="0" type="line"/>
      <point x="195" y="0" type="line"/>
      <point x="401" y="717" type="line"/>
      <point x="401" y="718" type="line"/>
      <point x="272" y="718" type="line"/>
      <point x="66" y="1" type="line"/>
    </contour>
    <contour>
      <point x="85" y="454" type="line"/>
      <point x="628" y="454" type="line"/>
      <point x="670" y="570" type="line"/>
      <point x="670" y="571" type="line"/>
      <point x="128" y="571" type="line"/>
      <point x="85" y="455" type="line"/>
    </contour>
  </outline>
</glyph>
<glyph name="dollar.color0" format="2">
  <advance width="600"/>
  <unicode hex="0024"/>
  <outline>
    <contour>
      <point x="172" y="589" type="line"/>
      <point x="546" y="589" type="line"/>
      <point x="546" y="590" type="line"/>
      <point x="418" y="718" type="line"/>
      <point x="172" y="718" type="line"/>
    </contour>
  </outline>
</glyph>
<glyph name="dollar.color2" format="2">
  <advance width="600"/>
  <unicode hex="0024"/>
  <outline>
    <contour>
      <point x="226" y="-50" type="line"/>
      <point x="227" y="-50" type="line"/>
      <point x="361" y="-27" type="line"/>
      <point x="359" y="774" type="line"/>
      <point x="357" y="774" type="line"/>
      <point x="225" y="751" type="line"/>
    </contour>
  </outline>
</glyph>
<glyph name="dollar.color3" format="2">
  <advance width="600"/>
  <unicode hex="0024"/>
  <outline>
    <contour>
      <point x="164" y="300" type="line"/>
      <point x="411" y="300" type="line"/>
      <point x="411" y="429" type="line"/>
      <point x="37" y="429" type="line"/>
      <point x="37" y="428" type="line"/>
    </contour>
  </outline>
</glyph>
<glyph name="dollar.color5" format="2">
  <advance width="600"/>
  <unicode hex="0024"/>
  <outline>
    <contour>
      <point x="411" y="0" type="line"/>
      <point x="412" y="0" type="line"/>
      <point x="546" y="122" type="line"/>
      <point x="546" y="304" type="line"/>
      <point x="412" y="429" type="line"/>
      <point x="411" y="429" type="line"/>
    </contour>
  </outline>
</glyph>
<glyph name="dollar" format="2">
  <advance width="582"/>
  <unicode hex="0024"/>
  <outline>
    <contour>
      <point x="172" y="589" type="line"/>
      <point x="546" y="589" type="line"/>
      <point x="546" y="590" type="line"/>
      <point x="418" y="718" type="line"/>
      <point x="172" y="718" type="line"/>
    </contour>
    <contour>
      <point x="164" y="0" type="line"/>
      <point x="411" y="0" type="line"/>
      <point x="411" y="129" type="line"/>
      <point x="37" y="129" type="line"/>
      <point x="37" y="128" type="line"/>
    </contour>
    <contour>
      <point x="226" y="-50" type="line"/>
      <point x="227" y="-50" type="line"/>
      <point x="361" y="-27" type="line"/>
      <point x="359" y="774" type="line"/>
      <point x="357" y="774" type="line"/>
      <point x="225" y="751" type="line"/>
    </contour>
    <contour>
      <point x="164" y="300" type="line"/>
      <point x="411" y="300" type="line"/>
      <point x="411" y="429" type="line"/>
      <point x="37" y="429" type="line"/>
      <point x="37" y="428" type="line"/>
    </contour>
    <contour>
      <point x="37" y="429" type="line"/>
      <point x="172" y="429" type="line"/>
      <point x="172" y="718" type="line"/>
      <point x="171" y="718" type="line"/>
      <point x="37" y="587" type="line"/>
    </contour>
    <contour>
      <point x="411" y="0" type="line"/>
      <point x="412" y="0" type="line"/>
      <point x="546" y="122" type="line"/>
      <point x="546" y="304" type="line"/>
      <point x="412" y="429" type="line"/>
      <point x="411" y="429" type="line"/>
    </contour>
  </outline>
</glyph>
<glyph name="percent.color1" format="2">
  <advance width="600"/>
  <unicode hex="0025"/>
  <outline>
    <contour>
      <point x="109" y="322" type="line"/>
      <point x="350" y="322" type="line"/>
      <point x="350" y="451" type="line"/>
      <point x="37" y="451" type="line"/>
      <point x="37" y="450" type="line"/>
    </contour>
  </outline>
</glyph>
<glyph name="percent.color2" format="2">
  <advance width="600"/>
  <unicode hex="0025"/>
  <outline>
    <contour>
      <point x="37" y="451" type="line"/>
      <point x="172" y="451" type="line"/>
      <point x="172" y="698" type="line"/>
      <point x="171" y="698" type="line"/>
      <point x="37" y="626" type="line"/>
    </contour>
  </outline>
</glyph>
<glyph name="percent.color3" format="2">
  <advance width="600"/>
  <unicode hex="0025"/>
  <outline>
    <contour>
      <point x="350" y="322" type="line"/>
      <point x="351" y="322" type="line"/>
      <point x="484" y="394" type="line"/>
      <point x="484" y="569" type="line"/>
      <point x="350" y="569" type="line"/>
    </contour>
  </outline>
</glyph>
<glyph name="percent.color4" format="2">
  <advance width="600"/>
  <unicode hex="0025"/>
  <outline>
    <contour>
      <point x="172" y="569" type="line"/>
      <point x="484" y="569" type="line"/>
      <point x="484" y="570" type="line"/>
      <point x="412" y="698" type="line"/>
      <point x="172" y="698" type="line"/>
    </contour>
  </outline>
</glyph>
<glyph name="percent.color5" format="2">
  <advance width="600"/>
  <unicode hex="0025"/>
  <outline>
    <contour>
      <point x="742" y="9" type="line"/>
      <point x="982" y="9" type="line"/>
      <point x="982" y="138" type="line"/>
      <point x="670" y="138" type="line"/>
      <point x="670" y="137" type="line"/>
    </contour>
  </outline>
</glyph>
<glyph name="percent.color6" format="2">
  <advance width="600"/>
  <unicode hex="0025"/>
  <outline>
    <contour>
      <point x="670" y="138" type="line"/>
      <point x="804" y="138" type="line"/>
      <point x="804" y="384" type="line"/>
      <point x="803" y="384" type="line"/>
      <point x="670" y="312" type="line"/>
    </contour>
  </outline>
</glyph>
<glyph name="percent.color8" format="2">
  <advance width="600"/>
  <unicode hex="0025"/>
  <outline>
    <contour>
      <point x="804" y="255" type="line"/>
      <point x="1117" y="255" type="line"/>
      <point x="1117" y="256" type="line"/>
      <point x="1045" y="384" type="line"/>
      <point x="804" y="384" type="line"/>
    </contour>
  </outline>
</glyph>
<glyph name="percent" format="2">
  <advance width="1153.41667"/>
  <unicode hex="0025"/>
  <outline>
    <contour>
      <point x="286" y="0" type="line"/>
      <point x="432" y="0" type="line"/>
      <point x="880" y="717" type="line"/>
      <point x="880" y="718" type="line"/>
      <point x="734" y="718" type="line"/>
      <point x="286" y="1" type="line"/>
    </contour>
    <contour>
      <point x="109" y="322" type="line"/>
      <point x="350" y="322" type="line"/>
      <point x="350" y="451" type="line"/>
      <point x="37" y="451" type="line"/>
      <point x="37" y="450" type="line"/>
    </contour>
    <contour>
      <point x="37" y="451" type="line"/>
      <point x="172" y="451" type="line"/>
      <point x="172" y="698" type="line"/>
      <point x="171" y="698" type="line"/>
      <point x="37" y="626" type="line"/>
    </contour>
    <contour>
      <point x="350" y="322" type="line"/>
      <point x="351" y="322" type="line"/>
      <point x="484" y="394" type="line"/>
      <point x="484" y="569" type="line"/>
      <point x="350" y="569" type="line"/>
    </contour>
    <contour>
      <point x="172" y="569" type="line"/>
      <point x="484" y="569" type="line"/>
      <point x="484" y="570" type="line"/>
      <point x="412" y="698" type="line"/>
      <point x="172" y="698" type="line"/>
    </contour>
    <contour>
      <point x="742" y="9" type="line"/>
      <point x="982" y="9" type="line"/>
      <point x="982" y="138" type="line"/>
      <point x="670" y="138" type="line"/>
      <point x="670" y="137" type="line"/>
    </contour>
    <contour>
      <point x="670" y="138" type="line"/>
      <point x="804" y="138" type="line"/>
      <point x="804" y="384" type="line"/>
      <point x="803" y="384" type="line"/>
      <point x="670" y="312" type="line"/>
    </contour>
    <contour>
      <point x="982" y="9" type="line"/>
      <point x="983" y="9" type="line"/>
      <point x="1117" y="81" type="line"/>
      <point x="1117" y="255" type="line"/>
      <point x="982" y="255" type="line"/>
    </contour>
    <contour>
      <point x="804" y="255" type="line"/>
      <point x="1117" y="255" type="line"/>
      <point x="1117" y="256" type="line"/>
      <point x="1045" y="384" type="line"/>
      <point x="804" y="384" type="line"/>
    </contour>
  </outline>
</glyph>
<glyph name="ampersand.color0" format="2">
  <advance width="600"/>
  <unicode hex="0026"/>
  <outline>
    <contour>
      <point x="255" y="576" type="line"/>
      <point x="446" y="576" type="line"/>
      <point x="446" y="705" type="line"/>
      <point x="255" y="705" type="line"/>
    </contour>
  </outline>
</glyph>
<glyph name="ampersand.color1" format="2">
  <advance width="600"/>
  <unicode hex="0026"/>
  <outline>
    <contour>
      <point x="155" y="429" type="line"/>
      <point x="255" y="429" type="line"/>
      <point x="255" y="705" type="line"/>
      <point x="254" y="705" type="line"/>
      <point x="155" y="622" type="line"/>
    </contour>
  </outline>
</glyph>
<glyph name="ampersand.color2" format="2">
  <advance width="600"/>
  <unicode hex="0026"/>
  <outline>
    <contour>
      <point x="594" y="0" type="line"/>
      <point x="597" y="0" type="line"/>
      <point x="763" y="3" type="line"/>
      <point x="763" y="4" type="line"/>
      <point x="506" y="394" type="line"/>
      <point x="347" y="394" type="line"/>
      <point x="337" y="394" type="line"/>
    </contour>
  </outline>
</glyph>
<glyph name="ampersand.color3" format="2">
  <advance width="600"/>
  <unicode hex="0026"/>
  <outline>
    <contour>
      <point x="156" y="0" type="line"/>
      <point x="487" y="0" type="line"/>
      <point x="457" y="129" type="line"/>
      <point x="156" y="129" type="line"/>
    </contour>
  </outline>
</glyph>
<glyph name="ampersand.color5" format="2">
  <advance width="600"/>
  <unicode hex="0026"/>
  <outline>
    <contour>
      <point x="155" y="0" type="line"/>
      <point x="156" y="0" type="line"/>
      <point x="156" y="429" type="line"/>
      <point x="155" y="429" type="line"/>
      <point x="33" y="304" type="line"/>
      <point x="33" y="105" type="line"/>
    </contour>
  </outline>
</glyph>
<glyph name="ampersand.color6" format="2">
  <advance width="600"/>
  <unicode hex="0026"/>
  <outline>
    <contour>
      <point x="487" y="0" type="line"/>
      <point x="488" y="0" type="line"/>
      <point x="630" y="151" type="line"/>
      <point x="778" y="399" type="line"/>
      <point x="778" y="401" type="line"/>
      <point x="624" y="406" type="line"/>
      <point x="457" y="129" type="line"/>
    </contour>
  </outline>
</glyph>
<glyph name="ampersand.color7" format="2">
  <advance width="600"/>
  <unicode hex="0026"/>
  <outline>
    <contour>
      <point x="446" y="300" type="line"/>
      <point x="447" y="300" type="line"/>
      <point x="545" y="429" type="line"/>
      <point x="545" y="622" type="line"/>
      <point x="447" y="705" type="line"/>
      <point x="446" y="705" type="line"/>
    </contour>
  </outline>
</glyph>
<glyph name="ampersand" format="2">
  <advance width="799"/>
  <unicode hex="0026"/>
  <outline>
    <contour>
      <point x="255" y="576" type="line"/>
      <point x="446" y="576" type="line"/>
      <point x="446" y="705" type="line"/>
      <point x="255" y="705" type="line"/>
    </contour>
    <contour>
      <point x="155" y="429" type="line"/>
      <point x="255" y="429" type="line"/>
      <point x="255" y="705" type="line"/>
      <point x="254" y="705" type="line"/>
      <point x="155" y="622" type="line"/>
    </contour>
    <contour>
      <point x="594" y="0" type="line"/>
      <point x="597" y="0" type="line"/>
      <point x="763" y="3" type="line"/>
      <point x="763" y="4" type="line"/>
      <point x="506" y="394" type="line"/>
      <point x="347" y="394" type="line"/>
      <point x="337" y="394" type="line"/>
    </contour>
    <contour>
      <point x="156" y="0" type="line"/>
      <point x="487" y="0" type="line"/>
      <point x="457" y="129" type="line"/>
      <point x="156" y="129" type="line"/>
    </contour>
    <contour>
      <point x="156" y="300" type="line"/>
      <point x="446" y="300" type="line"/>
      <point x="446" y="429" type="line"/>
      <point x="156" y="429" type="line"/>
    </contour>
    <contour>
      <point x="155" y="0" type="line"/>
      <point x="156" y="0" type="line"/>
      <point x="156" y="429" type="line"/>
      <point x="155" y="429" type="line"/>
      <point x="33" y="304" type="line"/>
      <point x="33" y="105" type="line"/>
    </contour>
    <contour>
      <point x="487" y="0" type="line"/>
      <point x="488" y="0" type="line"/>
      <point x="630" y="151" type="line"/>
      <point x="778" y="399" type="line"/>
      <point x="778" y="401" type="line"/>
      <point x="624" y="406" type="line"/>
      <point x="457" y="129" type="line"/>
    </contour>
    <contour>
      <point x="446" y="300" type="line"/>
      <point x="447" y="300" type="line"/>
      <point x="545" y="429" type="line"/>
      <point x="545" y="622" type="line"/>
      <point x="447" y="705" type="line"/>
      <point x="446" y="705" type="line"/>
    </contour>
  </outline>
</glyph>
<glyph name="quotesingle.color1" format="2">
  <advance width="600"/>
  <unicode hex="0027"/>
  <outline>
    <contour>
      <point x="54" y="472" type="line"/>
      <point x="54" y="472" type="line"/>
      <point x="138" y="472" type="line"/>
      <point x="193" y="622" type="line"/>
      <point x="81" y="622" type="line"/>
    </contour>
  </outline>
</glyph>
<glyph name="parenleft.color0" format="2">
  <advance width="600"/>
  <unicode hex="0028"/>
  <outline>
    <contour>
      <point x="178" y="38" type="line"/>
      <point x="178" y="705" type="line"/>
      <point x="177" y="705" type="line"/>
      <point x="43" y="581" type="line"/>
      <point x="43" y="42" type="line"/>
    </contour>
  </outline>
</glyph>
<glyph name="parenleft.color1" format="2">
  <advance width="600"/>
  <unicode hex="0028"/>
  <outline>
    <contour>
      <point x="161" y="-81" type="line"/>
      <point x="367" y="-100" type="line"/>
      <point x="367" y="29" type="line"/>
      <point x="43" y="48" type="line"/>
      <point x="43" y="41" type="line"/>
    </contour>
  </outline>
</glyph>
<glyph name="parenleft.color2" format="2">
  <advance width="600"/>
  <unicode hex="0028"/>
  <outline>
    <contour>
      <point x="178" y="576" type="line"/>
      <point x="367" y="589" type="line"/>
      <point x="367" y="718" type="line"/>
      <point x="178" y="705" type="line"/>
    </contour>
  </outline>
</glyph>
<glyph name="parenleft" format="2">
  <advance width="387.5"/>
  <unicode hex="0028"/>
  <outline>
    <contour>
      <point x="178" y="38" type="line"/>
      <point x="178" y="705" type="line"/>
      <point x="177" y="705" type="line"/>
      <point x="43" y="581" type="line"/>
      <point x="43" y="42" type="line"/>
    </contour>
    <contour>
      <point x="161" y="-81" type="line"/>
      <point x="367" y="-100" type="line"/>
      <point x="367" y="29" type="line"/>
      <point x="43" y="48" type="line"/>
      <point x="43" y="41" type="line"/>
    </contour>
    <contour>
      <point x="178" y="576" type="line"/>
      <point x="367" y="589" type="line"/>
      <point x="367" y="718" type="line"/>
      <point x="178" y="705" type="line"/>
    </contour>
  </outline>
</glyph>
<glyph name="parenright.color0" format="2">
  <advance width="600"/>
  <unicode hex="0029"/>
  <outline>
    <contour>
      <point x="219" y="-87" type="line"/>
      <point x="220" y="-87" type="line"/>
      <point x="354" y="36" type="line"/>
      <point x="354" y="576" type="line"/>
      <point x="219" y="580" type="line"/>
    </contour>
  </outline>
</glyph>
<glyph name="parenright.color1" format="2">
  <advance width="600"/>
  <unicode hex="0029"/>
  <outline>
    <contour>
      <point x="29" y="-100" type="line"/>
      <point x="219" y="-87" type="line"/>
      <point x="219" y="42" type="line"/>
      <point x="29" y="29" type="line"/>
    </contour>
  </outline>
</glyph>
<glyph name="parenright.color2" format="2">
  <advance width="600"/>
  <unicode hex="0029"/>
  <outline>
    <contour>
      <point x="29" y="589" type="line"/>
      <point x="354" y="570" type="line"/>
      <point x="354" y="577" type="line"/>
      <point x="236" y="699" type="line"/>
      <point x="29" y="718" type="line"/>
    </contour>
  </outline>
</glyph>
<glyph name="parenright" format="2">
  <advance width="395.83333"/>
  <unicode hex="0029"/>
  <outline>
    <contour>
      <point x="219" y="-87" type="line"/>
      <point x="220" y="-87" type="line"/>
      <point x="354" y="36" type="line"/>
      <point x="354" y="576" type="line"/>
      <point x="219" y="580" type="line"/>
    </contour>
    <contour>
      <point x="29" y="-100" type="line"/>
      <point x="219" y="-87" type="line"/>
      <point x="219" y="42" type="line"/>
      <point x="29" y="29" type="line"/>
    </contour>
    <contour>
      <point x="29" y="589" type="line"/>
      <point x="354" y="570" type="line"/>
      <point x="354" y="577" type="line"/>
      <point x="236" y="699" type="line"/>
      <point x="29" y="718" type="line"/>
    </contour>
  </outline>
</glyph>
<glyph name="asterisk.color0" format="2">
  <advance width="600"/>
  <unicode hex="002A"/>
  <outline>
    <contour>
      <point x="79" y="428" type="line"/>
      <point x="154" y="428" type="line"/>
      <point x="154" y="430" type="line"/>
      <point x="170" y="501" type="line"/>
      <point x="22" y="600" type="line"/>
    </contour>
  </outline>
</glyph>
<glyph name="asterisk.color1" format="2">
  <advance width="600"/>
  <unicode hex="002A"/>
  <outline>
    <contour>
      <point x="170" y="501" type="line"/>
      <point x="195" y="730" type="line"/>
      <point x="193" y="730" type="line"/>
      <point x="22" y="601" type="line"/>
      <point x="22" y="600" type="line"/>
    </contour>
  </outline>
</glyph>
<glyph name="asterisk" format="2">
  <advance width="402"/>
  <unicode hex="002A"/>
  <outline>
    <contour>
      <point x="79" y="428" type="line"/>
      <point x="154" y="428" type="line"/>
      <point x="154" y="430" type="line"/>
      <point x="170" y="501" type="line"/>
      <point x="22" y="600" type="line"/>
    </contour>
    <contour>
      <point x="170" y="501" type="line"/>
      <point x="195" y="730" type="line"/>
      <point x="193" y="730" type="line"/>
      <point x="22" y="601" type="line"/>
      <point x="22" y="600" type="line"/>
    </contour>
    <contour>
      <point x="154" y="428" type="line"/>
      <point x="307" y="428" type="line"/>
      <point x="364" y="600" type="line"/>
      <point x="364" y="601" type="line"/>
      <point x="196" y="730" type="line"/>
      <point x="195" y="730" type="line"/>
      <point x="154" y="430" type="line"/>
    </contour>
  </outline>
</glyph>
<glyph name="plus.color0" format="2">
  <advance width="600"/>
  <unicode hex="002B"/>
  <outline>
    <contour>
      <point x="38" y="297" type="line"/>
      <point x="207" y="297" type="line"/>
      <point x="207" y="426" type="line"/>
      <point x="37" y="426" type="line"/>
    </contour>
  </outline>
</glyph>
<glyph name="plus.color1" format="2">
  <advance width="600"/>
  <unicode hex="002B"/>
  <outline>
    <contour>
      <point x="207" y="142" type="line"/>
      <point x="336" y="142" type="line"/>
      <point x="336" y="297" type="line"/>
      <point x="207" y="297" type="line"/>
    </contour>
  </outline>
</glyph>
<glyph name="plus.color2" format="2">
  <advance width="600"/>
  <unicode hex="002B"/>
  <outline>
    <contour>
      <point x="207" y="297" type="line"/>
      <point x="208" y="297" type="line"/>
      <point x="336" y="426" type="line"/>
      <point x="336" y="580" type="line"/>
      <point x="207" y="580" type="line"/>
    </contour>
  </outline>
</glyph>
<glyph name="plus.color3" format="2">
  <advance width="600"/>
  <unicode hex="002B"/>
  <outline>
    <contour>
      <point x="208" y="297" type="line"/>
      <point x="506" y="297" type="line"/>
      <point x="506" y="426" type="line"/>
      <point x="336" y="426" type="line"/>
    </contour>
  </outline>
</glyph>
<glyph name="plus" format="2">
  <advance width="541.91667"/>
  <unicode hex="002B"/>
  <outline>
    <contour>
      <point x="38" y="297" type="line"/>
      <point x="207" y="297" type="line"/>
      <point x="207" y="426" type="line"/>
      <point x="37" y="426" type="line"/>
    </contour>
    <contour>
      <point x="207" y="142" type="line"/>
      <point x="336" y="142" type="line"/>
      <point x="336" y="297" type="line"/>
      <point x="207" y="297" type="line"/>
    </contour>
    <contour>
      <point x="207" y="297" type="line"/>
      <point x="208" y="297" type="line"/>
      <point x="336" y="426" type="line"/>
      <point x="336" y="580" type="line"/>
      <point x="207" y="580" type="line"/>
    </contour>
    <contour>
      <point x="208" y="297" type="line"/>
      <point x="506" y="297" type="line"/>
      <point x="506" y="426" type="line"/>
      <point x="336" y="426" type="line"/>
    </contour>
  </outline>
</glyph>
<glyph name="comma.color0" format="2">
  <advance width="600"/>
  <unicode hex="002C"/>
  <outline>
    <contour>
      <point x="34" y="22" type="line"/>
      <point x="189" y="22" type="line"/>
      <point x="117" y="151" type="line"/>
      <point x="34" y="151" type="line"/>
    </contour>
  </outline>
</glyph>
<glyph name="comma.color1" format="2">
  <advance width="600"/>
  <unicode hex="002C"/>
  <outline>
    <contour>
      <point x="77" y="-133" type="line"/>
      <point x="78" y="-133" type="line"/>
      <point x="189" y="-61" type="line"/>
      <point x="189" y="22" type="line"/>
      <point x="77" y="22" type="line"/>
    </contour>
  </outline>
</glyph>
<glyph name="comma" format="2">
  <advance width="222.41667"/>
  <unicode hex="002C"/>
  <outline>
    <contour>
      <point x="34" y="22" type="line"/>
      <point x="189" y="22" type="line"/>
      <point x="117" y="151" type="line"/>
      <point x="34" y="151" type="line"/>
    </contour>
    <contour>
      <point x="77" y="-133" type="line"/>
      <point x="78" y="-133" type="line"/>
      <point x="189" y="-61" type="line"/>
      <point x="189" y="22" type="line"/>
      <point x="77" y="22" type="line"/>
    </contour>
  </outline>
</glyph>
<glyph name="period" format="2">
  <advance width="216.58333"/>
  <unicode hex="002E"/>
  <outline>
    <contour>
      <point x="34" y="0" type="line"/>
      <point x="183" y="0" type="line"/>
      <point x="183" y="129" type="line"/>
      <point x="34" y="129" type="line"/>
    </contour>
  </outline>
</glyph>
<glyph name="slash" format="2">
  <advance width="436.33333"/>
  <unicode hex="002F"/>
  <outline>
    <contour>
      <point x="0" y="-100" type="line"/>
      <point x="146" y="-100" type="line"/>
      <point x="437" y="788" type="line"/>
      <point x="437" y="789" type="line"/>
      <point x="291" y="789" type="line"/>
      <point x="0" y="-99" type="line"/>
    </contour>
  </outline>
</glyph>
<glyph name="zero.color0" format="2">
  <advance width="600"/>
  <unicode hex="0030"/>
  <outline>
    <contour>
      <point x="328" y="129" type="line"/>
      <point x="474" y="129" type="line"/>
      <point x="474" y="130" type="line"/>
      <point x="261" y="579" type="line"/>
      <point x="115" y="579" type="line"/>
    </contour>
  </outline>
</glyph>
<glyph name="zero.color2" format="2">
  <advance width="600"/>
  <unicode hex="0030"/>
  <outline>
    <contour>
      <point x="43" y="129" type="line"/>
      <point x="178" y="129" type="line"/>
      <point x="178" y="705" type="line"/>
      <point x="177" y="705" type="line"/>
      <point x="43" y="575" type="line"/>
    </contour>
  </outline>
</glyph>
<glyph name="zero.color3" format="2">
  <advance width="600"/>
  <unicode hex="0030"/>
  <outline>
    <contour>
      <point x="410" y="0" type="line"/>
      <point x="411" y="0" type="line"/>
      <point x="545" y="125" type="line"/>
      <point x="545" y="576" type="line"/>
      <point x="410" y="576" type="line"/>
    </contour>
  </outline>
</glyph>
<glyph name="zero.color4" format="2">
  <advance width="600"/>
  <unicode hex="0030"/>
  <outline>
    <contour>
      <point x="178" y="576" type="line"/>
      <point x="545" y="576" type="line"/>
      <point x="545" y="577" type="line"/>
      <point x="417" y="705" type="line"/>
      <point x="178" y="705" type="line"/>
    </contour>
  </outline>
</glyph>
<glyph name="one.color1" format="2">
  <advance width="600"/>
  <unicode hex="0031"/>
  <outline>
    <contour>
      <point x="43" y="0" type="line"/>
      <point x="246" y="0" type="line"/>
      <point x="246" y="129" type="line"/>
      <point x="43" y="129" type="line"/>
    </contour>
  </outline>
</glyph>
<glyph name="one.color2" format="2">
  <advance width="600"/>
  <unicode hex="0031"/>
  <outline>
    <contour>
      <point x="278" y="0" type="line"/>
      <point x="545" y="0" type="line"/>
      <point x="545" y="129" type="line"/>
      <point x="381" y="129" type="line"/>
    </contour>
  </outline>
</glyph>
<glyph name="one.color3" format="2">
  <advance width="600"/>
  <unicode hex="0031"/>
  <outline>
    <contour>
      <point x="99" y="576" type="line"/>
      <point x="246" y="576" type="line"/>
      <point x="350" y="705" type="line"/>
      <point x="99" y="705" type="line"/>
    </contour>
  </outline>
</glyph>
<glyph name="two.color1" format="2">
  <advance width="600"/>
  <unicode hex="0032"/>
  <outline>
    <contour>
      <point x="191" y="80" type="line"/>
      <point x="523" y="589" type="line"/>
      <point x="455" y="705" type="line"/>
      <point x="56" y="130" type="line"/>
      <point x="56" y="129" type="line"/>
    </contour>
  </outline>
</glyph>
<glyph name="two" format="2">
  <advance width="587.5"/>
  <unicode hex="0032"/>
  <outline>
    <contour>
      <point x="42" y="576" type="line"/>
      <point x="415" y="576" type="line"/>
      <point x="455" y="705" type="line"/>
      <point x="169" y="705" type="line"/>
      <point x="42" y="577" type="line"/>
    </contour>
    <contour>
      <point x="191" y="80" type="line"/>
      <point x="523" y="589" type="line"/>
      <point x="455" y="705" type="line"/>
      <point x="56" y="130" type="line"/>
      <point x="56" y="129" type="line"/>
    </contour>
    <contour>
      <point x="56" y="0" type="line"/>
      <point x="532" y="0" type="line"/>
      <point x="532" y="129" type="line"/>
      <point x="56" y="129" type="line"/>
    </contour>
  </outline>
</glyph>
<glyph name="three.color2" format="2">
  <advance width="600"/>
  <unicode hex="0033"/>
  <outline>
    <contour>
      <point x="95" y="333" type="line"/>
      <point x="403" y="333" type="line"/>
      <point x="403" y="438" type="line"/>
      <point x="95" y="438" type="line"/>
    </contour>
  </outline>
</glyph>
<glyph name="three.color3" format="2">
  <advance width="600"/>
  <unicode hex="0033"/>
  <outline>
    <contour>
      <point x="403" y="392" type="line"/>
      <point x="537" y="392" type="line"/>
      <point x="537" y="571" type="line"/>
      <point x="404" y="705" type="line"/>
      <point x="403" y="705" type="line"/>
    </contour>
  </outline>
</glyph>
<glyph name="three.color4" format="2">
  <advance width="600"/>
  <unicode hex="0033"/>
  <outline>
    <contour>
      <point x="403" y="0" type="line"/>
      <point x="404" y="0" type="line"/>
      <point x="537" y="122" type="line"/>
      <point x="537" y="326" type="line"/>
      <point x="404" y="438" type="line"/>
      <point x="403" y="438" type="line"/>
    </contour>
  </outline>
</glyph>
<glyph name="three" format="2">
  <advance width="587.5"/>
  <unicode hex="0033"/>
  <outline>
    <contour>
      <point x="28" y="576" type="line"/>
      <point x="403" y="576" type="line"/>
      <point x="403" y="705" type="line"/>
      <point x="155" y="705" type="line"/>
      <point x="28" y="577" type="line"/>
    </contour>
    <contour>
      <point x="151" y="0" type="line"/>
      <point x="403" y="0" type="line"/>
      <point x="403" y="129" type="line"/>
      <point x="24" y="129" type="line"/>
      <point x="24" y="128" type="line"/>
    </contour>
    <contour>
      <point x="95" y="333" type="line"/>
      <point x="403" y="333" type="line"/>
      <point x="403" y="438" type="line"/>
      <point x="95" y="438" type="line"/>
    </contour>
    <contour>
      <point x="403" y="392" type="line"/>
      <point x="537" y="392" type="line"/>
      <point x="537" y="571" type="line"/>
      <point x="404" y="705" type="line"/>
      <point x="403" y="705" type="line"/>
    </contour>
    <contour>
      <point x="403" y="0" type="line"/>
      <point x="404" y="0" type="line"/>
      <point x="537" y="122" type="line"/>
      <point x="537" y="326" type="line"/>
      <point x="404" y="438" type="line"/>
      <point x="403" y="438" type="line"/>
    </contour>
  </outline>
</glyph>
<glyph name="four.color0" format="2">
  <advance width="600"/>
  <unicode hex="0034"/>
  <outline>
    <contour>
      <point x="104" y="215" type="line"/>
      <point x="409" y="215" type="line"/>
      <point x="409" y="344" type="line"/>
      <point x="178" y="344" type="line"/>
    </contour>
  </outline>
</glyph>
<glyph name="four.color2" format="2">
  <advance width="600"/>
  <unicode hex="0034"/>
  <outline>
    <contour>
      <point x="409" y="0" type="line"/>
      <point x="544" y="0" type="line"/>
      <point x="544" y="237" type="line"/>
      <point x="410" y="344" type="line"/>
      <point x="409" y="344" type="line"/>
    </contour>
  </outline>
</glyph>
<glyph name="four" format="2">
  <advance width="587.5"/>
  <unicode hex="0034"/>
  <outline>
    <contour>
      <point x="104" y="215" type="line"/>
      <point x="409" y="215" type="line"/>
      <point x="409" y="344" type="line"/>
      <point x="178" y="344" type="line"/>
    </contour>
    <contour>
      <point x="104" y="215" type="line"/>
      <point x="450" y="704" type="line"/>
      <point x="450" y="705" type="line"/>
      <point x="283" y="705" type="line"/>
      <point x="29" y="342" type="line"/>
    </contour>
    <contour>
      <point x="409" y="0" type="line"/>
      <point x="544" y="0" type="line"/>
      <point x="544" y="237" type="line"/>
      <point x="410" y="344" type="line"/>
      <point x="409" y="344" type="line"/>
    </contour>
  </outline>
</glyph>
<glyph name="five.color1" format="2">
  <advance width="600"/>
  <unicode hex="0035"/>
  <outline>
    <contour>
      <point x="67" y="319" type="line"/>
      <point x="403" y="319" type="line"/>
      <point x="403" y="448" type="line"/>
      <point x="67" y="448" type="line"/>
    </contour>
  </outline>
</glyph>
<glyph name="five.color2" format="2">
  <advance width="600"/>
  <unicode hex="0035"/>
  <outline>
    <contour>
      <point x="67" y="448" type="line"/>
      <point x="201" y="448" type="line"/>
      <point x="201" y="688" type="line"/>
      <point x="67" y="688" type="line"/>
    </contour>
  </outline>
</glyph>
<glyph name="five.color4" format="2">
  <advance width="600"/>
  <unicode hex="0035"/>
  <outline>
    <contour>
      <point x="201" y="559" type="line"/>
      <point x="502" y="559" type="line"/>
      <point x="502" y="688" type="line"/>
      <point x="201" y="688" type="line"/>
    </contour>
  </outline>
</glyph>
<glyph name="five" format="2">
  <advance width="587.5"/>
  <unicode hex="0035"/>
  <outline>
    <contour>
      <point x="151" y="0" type="line"/>
      <point x="403" y="0" type="line"/>
      <point x="403" y="129" type="line"/>
      <point x="23" y="129" type="line"/>
      <point x="23" y="128" type="line"/>
    </contour>
    <contour>
      <point x="67" y="319" type="line"/>
      <point x="403" y="319" type="line"/>
      <point x="403" y="448" type="line"/>
      <point x="67" y="448" type="line"/>
    </contour>
    <contour>
      <point x="67" y="448" type="line"/>
      <point x="201" y="448" type="line"/>
      <point x="201" y="688" type="line"/>
      <point x="67" y="688" type="line"/>
    </contour>
    <contour>
      <point x="403" y="0" type="line"/>
      <point x="404" y="0" type="line"/>
      <point x="537" y="119" type="line"/>
      <point x="537" y="358" type="line"/>
      <point x="404" y="448" type="line"/>
      <point x="403" y="448" type="line"/>
    </contour>
    <contour>
      <point x="201" y="559" type="line"/>
      <point x="502" y="559" type="line"/>
      <point x="502" y="688" type="line"/>
      <point x="201" y="688" type="line"/>
    </contour>
  </outline>
</glyph>
<glyph name="six.color0" format="2">
  <advance width="600"/>
  <unicode hex="0036"/>
  <outline>
    <contour>
      <point x="170" y="0" type="line"/>
      <point x="423" y="0" type="line"/>
      <point x="423" y="129" type="line"/>
      <point x="43" y="129" type="line"/>
      <point x="43" y="128" type="line"/>
    </contour>
  </outline>
</glyph>
<glyph name="six.color2" format="2">
  <advance width="600"/>
  <unicode hex="0036"/>
  <outline>
    <contour>
      <point x="178" y="300" type="line"/>
      <point x="423" y="300" type="line"/>
      <point x="423" y="429" type="line"/>
      <point x="43" y="429" type="line"/>
      <point x="43" y="428" type="line"/>
    </contour>
  </outline>
</glyph>
<glyph name="six.color3" format="2">
  <advance width="600"/>
  <unicode hex="0036"/>
  <outline>
    <contour>
      <point x="43" y="429" type="line"/>
      <point x="178" y="429" type="line"/>
      <point x="178" y="705" type="line"/>
      <point x="177" y="705" type="line"/>
      <point x="43" y="575" type="line"/>
    </contour>
  </outline>
</glyph>
<glyph name="six.color4" format="2">
  <advance width="600"/>
  <unicode hex="0036"/>
  <outline>
    <contour>
      <point x="423" y="0" type="line"/>
      <point x="424" y="0" type="line"/>
      <point x="557" y="122" type="line"/>
      <point x="557" y="304" type="line"/>
      <point x="424" y="429" type="line"/>
      <point x="423" y="429" type="line"/>
    </contour>
  </outline>
</glyph>
<glyph name="six.color5" format="2">
  <advance width="600"/>
  <unicode hex="0036"/>
  <outline>
    <contour>
      <point x="178" y="576" type="line"/>
      <point x="532" y="576" type="line"/>
      <point x="532" y="577" type="line"/>
      <point x="405" y="705" type="line"/>
      <point x="178" y="705" type="line"/>
    </contour>
  </outline>
</glyph>
<glyph name="six" format="2">
  <advance width="587.5"/>
  <unicode hex="0036"/>
  <outline>
    <contour>
      <point x="170" y="0" type="line"/>
      <point x="423" y="0" type="line"/>
      <point x="423" y="129" type="line"/>
      <point x="43" y="129" type="line"/>
      <point x="43" y="128" type="line"/>
    </contour>
    <contour>
      <point x="43" y="129" type="line"/>
      <point x="178" y="129" type="line"/>
      <point x="178" y="300" type="line"/>
      <point x="43" y="428" type="line"/>
    </contour>
    <contour>
      <point x="178" y="300" type="line"/>
      <point x="423" y="300" type="line"/>
      <point x="423" y="429" type="line"/>
      <point x="43" y="429" type="line"/>
      <point x="43" y="428" type="line"/>
    </contour>
    <contour>
      <point x="43" y="429" type="line"/>
      <point x="178" y="429" type="line"/>
      <point x="178" y="705" type="line"/>
      <point x="177" y="705" type="line"/>
      <point x="43" y="575" type="line"/>
    </contour>
    <contour>
      <point x="423" y="0" type="line"/>
      <point x="424" y="0" type="line"/>
      <point x="557" y="122" type="line"/>
      <point x="557" y="304" type="line"/>
      <point x="424" y="429" type="line"/>
      <point x="423" y="429" type="line"/>
    </contour>
    <contour>
      <point x="178" y="576" type="line"/>
      <point x="532" y="576" type="line"/>
      <point x="532" y="577" type="line"/>
      <point x="405" y="705" type="line"/>
      <point x="178" y="705" type="line"/>
    </contour>
  </outline>
</glyph>
<glyph name="eight.color0" format="2">
  <advance width="600"/>
  <unicode hex="0038"/>
  <outline>
    <contour>
      <point x="212" y="576" type="line"/>
      <point x="375" y="576" type="line"/>
      <point x="375" y="705" type="line"/>
      <point x="212" y="705" type="line"/>
    </contour>
  </outline>
</glyph>
<glyph name="eight.color2" format="2">
  <advance width="600"/>
  <unicode hex="0038"/>
  <outline>
    <contour>
      <point x="77" y="370" type="line"/>
      <point x="212" y="370" type="line"/>
      <point x="212" y="705" type="line"/>
      <point x="211" y="705" type="line"/>
      <point x="77" y="575" type="line"/>
    </contour>
  </outline>
</glyph>
<glyph name="eight.color3" format="2">
  <advance width="600"/>
  <unicode hex="0038"/>
  <outline>
    <contour>
      <point x="375" y="370" type="line"/>
      <point x="511" y="370" type="line"/>
      <point x="511" y="575" type="line"/>
      <point x="376" y="705" type="line"/>
      <point x="375" y="705" type="line"/>
    </contour>
  </outline>
</glyph>
<glyph name="eight.color4" format="2">
  <advance width="600"/>
  <unicode hex="0038"/>
  <outline>
    <contour>
      <point x="172" y="300" type="line"/>
      <point x="416" y="300" type="line"/>
      <point x="416" y="429" type="line"/>
      <point x="172" y="429" type="line"/>
    </contour>
  </outline>
</glyph>
<glyph name="eight.color5" format="2">
  <advance width="600"/>
  <unicode hex="0038"/>
  <outline>
    <contour>
      <point x="416" y="0" type="line"/>
      <point x="417" y="0" type="line"/>
      <point x="552" y="122" type="line"/>
      <point x="552" y="304" type="line"/>
      <point x="417" y="429" type="line"/>
      <point x="416" y="429" type="line"/>
    </contour>
  </outline>
</glyph>
<glyph name="eight.color6" format="2">
  <advance width="600"/>
  <unicode hex="0038"/>
  <outline>
    <contour>
      <point x="171" y="0" type="line"/>
      <point x="172" y="0" type="line"/>
      <point x="172" y="429" type="line"/>
      <point x="171" y="429" type="line"/>
      <point x="37" y="304" type="line"/>
      <point x="37" y="122" type="line"/>
    </contour>
  </outline>
</glyph>
<glyph name="nine.color0" format="2">
  <advance width="600"/>
  <unicode hex="0039"/>
  <outline>
    <contour>
      <point x="158" y="276" type="line"/>
      <point x="403" y="276" type="line"/>
      <point x="403" y="405" type="line"/>
      <point x="158" y="405" type="line"/>
    </contour>
  </outline>
</glyph>
<glyph name="nine.color1" format="2">
  <advance width="600"/>
  <unicode hex="0039"/>
  <outline>
    <contour>
      <point x="403" y="0" type="line"/>
      <point x="404" y="0" type="line"/>
      <point x="537" y="131" type="line"/>
      <point x="537" y="576" type="line"/>
      <point x="403" y="576" type="line"/>
    </contour>
  </outline>
</glyph>
<glyph name="colon.color0" format="2">
  <advance width="600"/>
  <unicode hex="003A"/>
  <outline>
    <contour>
      <point x="43" y="67" type="line"/>
      <point x="192" y="67" type="line"/>
      <point x="192" y="196" type="line"/>
      <point x="43" y="196" type="line"/>
    </contour>
  </outline>
</glyph>
<glyph name="colon.color1" format="2">
  <advance width="600"/>
  <unicode hex="003A"/>
  <outline>
    <contour>
      <point x="43" y="335" type="line"/>
      <point x="192" y="335" type="line"/>
      <point x="192" y="464" type="line"/>
      <point x="43" y="464" type="line"/>
    </contour>
  </outline>
</glyph>
<glyph name="colon" format="2">
  <advance width="241.58333"/>
  <unicode hex="003A"/>
  <outline>
    <contour>
      <point x="43" y="67" type="line"/>
      <point x="192" y="67" type="line"/>
      <point x="192" y="196" type="line"/>
      <point x="43" y="196" type="line"/>
    </contour>
    <contour>
      <point x="43" y="335" type="line"/>
      <point x="192" y="335" type="line"/>
      <point x="192" y="464" type="line"/>
      <point x="43" y="464" type="line"/>
    </contour>
  </outline>
</glyph>
<glyph name="semicolon.color0" format="2">
  <advance width="600"/>
  <unicode hex="003B"/>
  <outline>
    <contour>
      <point x="34" y="289" type="line"/>
      <point x="183" y="289" type="line"/>
      <point x="183" y="418" type="line"/>
      <point x="34" y="418" type="line"/>
    </contour>
  </outline>
</glyph>
<glyph name="semicolon.color1" format="2">
  <advance width="600"/>
  <unicode hex="003B"/>
  <outline>
    <contour>
      <point x="58" y="22" type="line"/>
      <point x="213" y="22" type="line"/>
      <point x="141" y="151" type="line"/>
      <point x="58" y="151" type="line"/>
    </contour>
  </outline>
</glyph>
<glyph name="semicolon.color2" format="2">
  <advance width="600"/>
  <unicode hex="003B"/>
  <outline>
    <contour>
      <point x="101" y="-133" type="line"/>
      <point x="102" y="-133" type="line"/>
      <point x="213" y="-61" type="line"/>
      <point x="213" y="22" type="line"/>
      <point x="101" y="22" type="line"/>
    </contour>
  </outline>
</glyph>
<glyph name="semicolon" format="2">
  <advance width="223"/>
  <unicode hex="003B"/>
  <outline>
    <contour>
      <point x="34" y="289" type="line"/>
      <point x="183" y="289" type="line"/>
      <point x="183" y="418" type="line"/>
      <point x="34" y="418" type="line"/>
    </contour>
    <contour>
      <point x="58" y="22" type="line"/>
      <point x="213" y="22" type="line"/>
      <point x="141" y="151" type="line"/>
      <point x="58" y="151" type="line"/>
    </contour>
    <contour>
      <point x="101" y="-133" type="line"/>
      <point x="102" y="-133" type="line"/>
      <point x="213" y="-61" type="line"/>
      <point x="213" y="22" type="line"/>
      <point x="101" y="22" type="line"/>
    </contour>
  </outline>
</glyph>
<glyph name="less.color0" format="2">
  <advance width="600"/>
  <unicode hex="003C"/>
  <outline>
    <contour>
      <point x="43" y="335" type="line"/>
      <point x="228" y="335" type="line"/>
      <point x="474" y="537" type="line"/>
      <point x="474" y="538" type="line"/>
      <point x="289" y="538" type="line"/>
      <point x="43" y="336" type="line"/>
    </contour>
  </outline>
</glyph>
<glyph name="less.color1" format="2">
  <advance width="600"/>
  <unicode hex="003C"/>
  <outline>
    <contour>
      <point x="289" y="135" type="line"/>
      <point x="474" y="135" type="line"/>
      <point x="474" y="139" type="line"/>
      <point x="228" y="335" type="line"/>
      <point x="43" y="335" type="line"/>
      <point x="43" y="334" type="line"/>
    </contour>
  </outline>
</glyph>
<glyph name="less" format="2">
  <advance width="518"/>
  <unicode hex="003C"/>
  <outline>
    <contour>
      <point x="43" y="335" type="line"/>
      <point x="228" y="335" type="line"/>
      <point x="474" y="537" type="line"/>
      <point x="474" y="538" type="line"/>
      <point x="289" y="538" type="line"/>
      <point x="43" y="336" type="line"/>
    </contour>
    <contour>
      <point x="289" y="135" type="line"/>
      <point x="474" y="135" type="line"/>
      <point x="474" y="139" type="line"/>
      <point x="228" y="335" type="line"/>
      <point x="43" y="335" type="line"/>
      <point x="43" y="334" type="line"/>
    </contour>
  </outline>
</glyph>
<glyph name="equal.color0" format="2">
  <advance width="600"/>
  <unicode hex="003D"/>
  <outline>
    <contour>
      <point x="37" y="365" type="line"/>
      <point x="489" y="365" type="line"/>
      <point x="489" y="483" type="line"/>
      <point x="37" y="483" type="line"/>
    </contour>
  </outline>
</glyph>
<glyph name="equal.color1" format="2">
  <advance width="600"/>
  <unicode hex="003D"/>
  <outline>
    <contour>
      <point x="37" y="202" type="line"/>
      <point x="489" y="202" type="line"/>
      <point x="489" y="320" type="line"/>
      <point x="37" y="320" type="line"/>
    </contour>
  </outline>
</glyph>
<glyph name="equal" format="2">
  <advance width="525.83333"/>
  <unicode hex="003D"/>
  <outline>
    <contour>
      <point x="37" y="365" type="line"/>
      <point x="489" y="365" type="line"/>
      <point x="489" y="483" type="line"/>
      <point x="37" y="483" type="line"/>
    </contour>
    <contour>
      <point x="37" y="202" type="line"/>
      <point x="489" y="202" type="line"/>
      <point x="489" y="320" type="line"/>
      <point x="37" y="320" type="line"/>
    </contour>
  </outline>
</glyph>
<glyph name="greater.color0" format="2">
  <advance width="600"/>
  <unicode hex="003E"/>
  <outline>
    <contour>
      <point x="56" y="131" type="line"/>
      <point x="239" y="131" type="line"/>
      <point x="486" y="333" type="line"/>
      <point x="486" y="334" type="line"/>
      <point x="302" y="334" type="line"/>
      <point x="56" y="132" type="line"/>
    </contour>
  </outline>
</glyph>
<glyph name="greater.color1" format="2">
  <advance width="600"/>
  <unicode hex="003E"/>
  <outline>
    <contour>
      <point x="302" y="334" type="line"/>
      <point x="486" y="334" type="line"/>
      <point x="486" y="335" type="line"/>
      <point x="239" y="534" type="line"/>
      <point x="56" y="534" type="line"/>
      <point x="56" y="530" type="line"/>
    </contour>
  </outline>
</glyph>
<glyph name="greater" format="2">
  <advance width="530.5"/>
  <unicode hex="003E"/>
  <outline>
    <contour>
      <point x="56" y="131" type="line"/>
      <point x="239" y="131" type="line"/>
      <point x="486" y="333" type="line"/>
      <point x="486" y="334" type="line"/>
      <point x="302" y="334" type="line"/>
      <point x="56" y="132" type="line"/>
    </contour>
    <contour>
      <point x="302" y="334" type="line"/>
      <point x="486" y="334" type="line"/>
      <point x="486" y="335" type="line"/>
      <point x="239" y="534" type="line"/>
      <point x="56" y="534" type="line"/>
      <point x="56" y="530" type="line"/>
    </contour>
  </outline>
</glyph>
<glyph name="question.color0" format="2">
  <advance width="600"/>
  <unicode hex="003F"/>
  <outline>
    <contour>
      <point x="27" y="589" type="line"/>
      <point x="417" y="589" type="line"/>
      <point x="417" y="718" type="line"/>
      <point x="154" y="718" type="line"/>
      <point x="27" y="590" type="line"/>
    </contour>
  </outline>
</glyph>
<glyph name="question.color1" format="2">
  <advance width="600"/>
  <unicode hex="003F"/>
  <outline>
    <contour>
      <point x="417" y="413" type="line"/>
      <point x="559" y="413" type="line"/>
      <point x="559" y="587" type="line"/>
      <point x="418" y="718" type="line"/>
      <point x="417" y="718" type="line"/>
    </contour>
  </outline>
</glyph>
<glyph name="question.color2" format="2">
  <advance width="600"/>
  <unicode hex="003F"/>
  <outline>
    <contour>
      <point x="147" y="0" type="line"/>
      <point x="296" y="0" type="line"/>
      <point x="296" y="129" type="line"/>
      <point x="147" y="129" type="line"/>
    </contour>
  </outline>
</glyph>
<glyph name="question.color4" format="2">
  <advance width="600"/>
  <unicode hex="003F"/>
  <outline>
    <contour>
      <point x="159" y="179" type="line"/>
      <point x="293" y="179" type="line"/>
      <point x="293" y="413" type="line"/>
      <point x="292" y="413" type="line"/>
      <point x="159" y="288" type="line"/>
    </contour>
  </outline>
</glyph>
<glyph name="question" format="2">
  <advance width="609.08333"/>
  <unicode hex="003F"/>
  <outline>
    <contour>
      <point x="27" y="589" type="line"/>
      <point x="417" y="589" type="line"/>
      <point x="417" y="718" type="line"/>
      <point x="154" y="718" type="line"/>
      <point x="27" y="590" type="line"/>
    </contour>
    <contour>
      <point x="417" y="413" type="line"/>
      <point x="559" y="413" type="line"/>
      <point x="559" y="587" type="line"/>
      <point x="418" y="718" type="line"/>
      <point x="417" y="718" type="line"/>
    </contour>
    <contour>
      <point x="293" y="306" type="line"/>
      <point x="431" y="306" type="line"/>
      <point x="559" y="412" type="line"/>
      <point x="559" y="413" type="line"/>
      <point x="293" y="413" type="line"/>
    </contour>
    <contour>
      <point x="159" y="179" type="line"/>
      <point x="293" y="179" type="line"/>
      <point x="293" y="413" type="line"/>
      <point x="292" y="413" type="line"/>
      <point x="159" y="288" type="line"/>
    </contour>
    <component base="period" xOffset="113"/>
  </outline>
</glyph>
<glyph name="at.color0" format="2">
  <advance width="600"/>
  <unicode hex="0040"/>
  <outline>
    <contour>
      <point x="278" y="389" type="line"/>
      <point x="625" y="389" type="line"/>
      <point x="625" y="390" type="line"/>
      <point x="553" y="518" type="line"/>
      <point x="278" y="518" type="line"/>
    </contour>
  </outline>
</glyph>
<glyph name="at.color1" format="2">
  <advance width="600"/>
  <unicode hex="0040"/>
  <outline>
    <contour>
      <point x="76" y="-88" type="line"/>
      <point x="77" y="-88" type="line"/>
      <point x="77" y="581" type="line"/>
      <point x="53" y="581" type="line"/>
      <point x="53" y="-65" type="line"/>
    </contour>
  </outline>
</glyph>
<glyph name="at.color2" format="2">
  <advance width="600"/>
  <unicode hex="0040"/>
  <outline>
    <contour>
      <point x="77" y="-88" type="line"/>
      <point x="701" y="-88" type="line"/>
      <point x="701" y="-64" type="line"/>
      <point x="77" y="-64" type="line"/>
    </contour>
  </outline>
</glyph>
<glyph name="at.color3" format="2">
  <advance width="600"/>
  <unicode hex="0040"/>
  <outline>
    <contour>
      <point x="215" y="0" type="line"/>
      <point x="490" y="0" type="line"/>
      <point x="490" y="129" type="line"/>
      <point x="143" y="129" type="line"/>
      <point x="143" y="128" type="line"/>
    </contour>
  </outline>
</glyph>
<glyph name="at.color4" format="2">
  <advance width="600"/>
  <unicode hex="0040"/>
  <outline>
    <contour>
      <point x="143" y="129" type="line"/>
      <point x="278" y="129" type="line"/>
      <point x="278" y="518" type="line"/>
      <point x="277" y="518" type="line"/>
      <point x="143" y="446" type="line"/>
    </contour>
  </outline>
</glyph>
<glyph name="at.color5" format="2">
  <advance width="600"/>
  <unicode hex="0040"/>
  <outline>
    <contour>
      <point x="625" y="0" type="line"/>
      <point x="625" y="389" type="line"/>
      <point x="490" y="389" type="line"/>
      <point x="490" y="129" type="line"/>
    </contour>
  </outline>
</glyph>
<glyph name="at.color6" format="2">
  <advance width="600"/>
  <unicode hex="0040"/>
  <outline>
    <contour>
      <point x="625" y="0" type="line"/>
      <point x="701" y="0" type="line"/>
      <point x="724" y="23" type="line"/>
      <point x="724" y="24" type="line"/>
      <point x="625" y="24" type="line"/>
    </contour>
  </outline>
</glyph>
<glyph name="at.color7" format="2">
  <advance width="600"/>
  <unicode hex="0040"/>
  <outline>
    <contour>
      <point x="53" y="581" type="line"/>
      <point x="700" y="581" type="line"/>
      <point x="700" y="605" type="line"/>
      <point x="76" y="605" type="line"/>
      <point x="53" y="582" type="line"/>
    </contour>
  </outline>
</glyph>
<glyph name="at.color8" format="2">
  <advance width="600"/>
  <unicode hex="0040"/>
  <outline>
    <contour>
      <point x="700" y="24" type="line"/>
      <point x="724" y="24" type="line"/>
      <point x="724" y="582" type="line"/>
      <point x="701" y="605" type="line"/>
      <point x="700" y="605" type="line"/>
    </contour>
  </outline>
</glyph>
<glyph name="at" format="2">
  <advance width="776.33333"/>
  <unicode hex="0040"/>
  <outline>
    <contour>
      <point x="278" y="389" type="line"/>
      <point x="625" y="389" type="line"/>
      <point x="625" y="390" type="line"/>
      <point x="553" y="518" type="line"/>
      <point x="278" y="518" type="line"/>
    </contour>
    <contour>
      <point x="76" y="-88" type="line"/>
      <point x="77" y="-88" type="line"/>
      <point x="77" y="581" type="line"/>
      <point x="53" y="581" type="line"/>
      <point x="53" y="-65" type="line"/>
    </contour>
    <contour>
      <point x="77" y="-88" type="line"/>
      <point x="701" y="-88" type="line"/>
      <point x="701" y="-64" type="line"/>
      <point x="77" y="-64" type="line"/>
    </contour>
    <contour>
      <point x="215" y="0" type="line"/>
      <point x="490" y="0" type="line"/>
      <point x="490" y="129" type="line"/>
      <point x="143" y="129" type="line"/>
      <point x="143" y="128" type="line"/>
    </contour>
    <contour>
      <point x="143" y="129" type="line"/>
      <point x="278" y="129" type="line"/>
      <point x="278" y="518" type="line"/>
      <point x="277" y="518" type="line"/>
      <point x="143" y="446" type="line"/>
    </contour>
    <contour>
      <point x="625" y="0" type="line"/>
      <point x="625" y="389" type="line"/>
      <point x="490" y="389" type="line"/>
      <point x="490" y="129" type="line"/>
    </contour>
    <contour>
      <point x="625" y="0" type="line"/>
      <point x="701" y="0" type="line"/>
      <point x="724" y="23" type="line"/>
      <point x="724" y="24" type="line"/>
      <point x="625" y="24" type="line"/>
    </contour>
    <contour>
      <point x="53" y="581" type="line"/>
      <point x="700" y="581" type="line"/>
      <point x="700" y="605" type="line"/>
      <point x="76" y="605" type="line"/>
      <point x="53" y="582" type="line"/>
    </contour>
    <contour>
      <point x="700" y="24" type="line"/>
      <point x="724" y="24" type="line"/>
      <point x="724" y="582" type="line"/>
      <point x="701" y="605" type="line"/>
      <point x="700" y="605" type="line"/>
    </contour>
  </outline>
</glyph>
<glyph name="A.color0" format="2">
  <advance width="600"/>
  <unicode hex="0041"/>
  <outline>
    <contour>
      <point x="43" y="0" type="line"/>
      <point x="178" y="0" type="line"/>
      <point x="178" y="718" type="line"/>
      <point x="177" y="718" type="line"/>
      <point x="43" y="587" type="line"/>
    </contour>
  </outline>
</glyph>
<glyph name="A.color1" format="2">
  <advance width="600"/>
  <unicode hex="0041"/>
  <outline>
    <contour>
      <point x="178" y="260" type="line"/>
      <point x="431" y="260" type="line"/>
      <point x="431" y="389" type="line"/>
      <point x="178" y="389" type="line"/>
    </contour>
  </outline>
</glyph>
<glyph name="B.color2" format="2">
  <advance width="600"/>
  <unicode hex="0042"/>
  <outline>
    <contour>
      <point x="439" y="301" type="line"/>
      <point x="502" y="301" type="line"/>
      <point x="502" y="430" type="line"/>
      <point x="358" y="430" type="line"/>
      <point x="317" y="429" type="line"/>
    </contour>
  </outline>
</glyph>
<glyph name="B.color3" format="2">
  <advance width="600"/>
  <unicode hex="0042"/>
  <outline>
    <contour>
      <point x="178" y="589" type="line"/>
      <point x="358" y="589" type="line"/>
      <point x="358" y="718" type="line"/>
      <point x="178" y="718" type="line"/>
    </contour>
  </outline>
</glyph>
<glyph name="B.color4" format="2">
  <advance width="600"/>
  <unicode hex="0042"/>
  <outline>
    <contour>
      <point x="505" y="409" type="line"/>
      <point x="505" y="593" type="line"/>
      <point x="359" y="718" type="line"/>
      <point x="358" y="718" type="line"/>
      <point x="358" y="430" type="line"/>
      <point x="477" y="430" type="line"/>
    </contour>
  </outline>
</glyph>
<glyph name="B.color5" format="2">
  <advance width="600"/>
  <unicode hex="0042"/>
  <outline>
    <contour>
      <point x="502" y="0" type="line"/>
      <point x="503" y="0" type="line"/>
      <point x="636" y="122" type="line"/>
      <point x="636" y="308" type="line"/>
      <point x="503" y="430" type="line"/>
      <point x="502" y="430" type="line"/>
    </contour>
  </outline>
</glyph>
<glyph name="B" format="2">
  <advance width="649.91667"/>
  <unicode hex="0042"/>
  <outline>
    <contour>
      <point x="43" y="0" type="line"/>
      <point x="502" y="0" type="line"/>
      <point x="502" y="129" type="line"/>
      <point x="43" y="129" type="line"/>
    </contour>
    <contour>
      <point x="43" y="129" type="line"/>
      <point x="178" y="129" type="line"/>
      <point x="178" y="718" type="line"/>
      <point x="43" y="718" type="line"/>
    </contour>
    <contour>
      <point x="439" y="301" type="line"/>
      <point x="502" y="301" type="line"/>
      <point x="502" y="430" type="line"/>
      <point x="358" y="430" type="line"/>
      <point x="317" y="429" type="line"/>
    </contour>
    <contour>
      <point x="178" y="589" type="line"/>
      <point x="358" y="589" type="line"/>
      <point x="358" y="718" type="line"/>
      <point x="178" y="718" type="line"/>
    </contour>
    <contour>
      <point x="505" y="409" type="line"/>
      <point x="505" y="593" type="line"/>
      <point x="359" y="718" type="line"/>
      <point x="358" y="718" type="line"/>
      <point x="358" y="430" type="line"/>
      <point x="477" y="430" type="line"/>
    </contour>
    <contour>
      <point x="502" y="0" type="line"/>
      <point x="503" y="0" type="line"/>
      <point x="636" y="122" type="line"/>
      <point x="636" y="308" type="line"/>
      <point x="503" y="430" type="line"/>
      <point x="502" y="430" type="line"/>
    </contour>
  </outline>
</glyph>
<glyph name="C.color0" format="2">
  <advance width="600"/>
  <unicode hex="0043"/>
  <outline>
    <contour>
      <point x="164" y="0" type="line"/>
      <point x="444" y="0" type="line"/>
      <point x="571" y="128" type="line"/>
      <point x="571" y="129" type="line"/>
      <point x="37" y="129" type="line"/>
      <point x="37" y="128" type="line"/>
    </contour>
  </outline>
</glyph>
<glyph name="D.color1" format="2">
  <advance width="600"/>
  <unicode hex="0044"/>
  <outline>
    <contour>
      <point x="43" y="-2" type="line"/>
      <point x="450" y="-2" type="line"/>
      <point x="450" y="127" type="line"/>
      <point x="43" y="127" type="line"/>
    </contour>
  </outline>
</glyph>
<glyph name="D.color2" format="2">
  <advance width="600"/>
  <unicode hex="0044"/>
  <outline>
    <contour>
      <point x="43" y="127" type="line"/>
      <point x="178" y="127" type="line"/>
      <point x="178" y="718" type="line"/>
      <point x="43" y="718" type="line"/>
    </contour>
  </outline>
</glyph>
<glyph name="D.color3" format="2">
  <advance width="600"/>
  <unicode hex="0044"/>
  <outline>
    <contour>
      <point x="450" y="-2" type="line"/>
      <point x="451" y="-2" type="line"/>
      <point x="584" y="122" type="line"/>
      <point x="584" y="589" type="line"/>
      <point x="450" y="589" type="line"/>
    </contour>
  </outline>
</glyph>
<glyph name="D" format="2">
  <advance width="620.33333"/>
  <unicode hex="0044"/>
  <anchor x="124" y="363" name="stroke"/>
  <anchor x="306" y="718" name="top"/>
  <outline>
    <contour>
      <point x="178" y="589" type="line"/>
      <point x="584" y="589" type="line"/>
      <point x="584" y="590" type="line"/>
      <point x="479" y="718" type="line"/>
      <point x="178" y="718" type="line"/>
    </contour>
    <contour>
      <point x="43" y="-2" type="line"/>
      <point x="450" y="-2" type="line"/>
      <point x="450" y="127" type="line"/>
      <point x="43" y="127" type="line"/>
    </contour>
    <contour>
      <point x="43" y="127" type="line"/>
      <point x="178" y="127" type="line"/>
      <point x="178" y="718" type="line"/>
      <point x="43" y="718" type="line"/>
    </contour>
    <contour>
      <point x="450" y="-2" type="line"/>
      <point x="451" y="-2" type="line"/>
      <point x="584" y="122" type="line"/>
      <point x="584" y="589" type="line"/>
      <point x="450" y="589" type="line"/>
    </contour>
  </outline>
</glyph>
<glyph name="E" format="2">
  <advance width="562"/>
  <unicode hex="0045"/>
  <anchor x="326" y="0" name="bottom"/>
  <anchor x="306" y="718" name="top"/>
  <outline>
    <contour>
      <point x="171" y="0" type="line"/>
      <point x="535" y="0" type="line"/>
      <point x="535" y="129" type="line"/>
      <point x="43" y="129" type="line"/>
      <point x="43" y="128" type="line"/>
    </contour>
    <contour>
      <point x="43" y="129" type="line"/>
      <point x="178" y="129" type="line"/>
      <point x="178" y="718" type="line"/>
      <point x="43" y="718" type="line"/>
    </contour>
    <contour>
      <point x="178" y="312" type="line"/>
      <point x="466" y="312" type="line"/>
      <point x="466" y="419" type="line"/>
      <point x="178" y="419" type="line"/>
    </contour>
    <contour>
      <point x="178" y="589" type="line"/>
      <point x="438" y="589" type="line"/>
      <point x="566" y="717" type="line"/>
      <point x="566" y="718" type="line"/>
      <point x="178" y="718" type="line"/>
    </contour>
  </outline>
</glyph>
<glyph name="F.color0" format="2">
  <advance width="600"/>
  <unicode hex="0046"/>
  <outline>
    <contour>
      <point x="178" y="589" type="line"/>
      <point x="427" y="589" type="line"/>
      <point x="554" y="717" type="line"/>
      <point x="554" y="718" type="line"/>
      <point x="178" y="718" type="line"/>
    </contour>
  </outline>
</glyph>
<glyph name="F.color2" format="2">
  <advance width="600"/>
  <unicode hex="0046"/>
  <outline>
    <contour>
      <point x="178" y="260" type="line"/>
      <point x="455" y="260" type="line"/>
      <point x="455" y="389" type="line"/>
      <point x="43" y="389" type="line"/>
      <point x="43" y="388" type="line"/>
    </contour>
  </outline>
</glyph>
<glyph name="F" format="2">
  <advance width="550.75"/>
  <unicode hex="0046"/>
  <outline>
    <contour>
      <point x="178" y="589" type="line"/>
      <point x="427" y="589" type="line"/>
      <point x="554" y="717" type="line"/>
      <point x="554" y="718" type="line"/>
      <point x="178" y="718" type="line"/>
    </contour>
    <contour>
      <point x="43" y="0" type="line"/>
      <point x="178" y="0" type="line"/>
      <point x="178" y="260" type="line"/>
      <point x="43" y="388" type="line"/>
    </contour>
    <contour>
      <point x="178" y="260" type="line"/>
      <point x="455" y="260" type="line"/>
      <point x="455" y="389" type="line"/>
      <point x="43" y="389" type="line"/>
      <point x="43" y="388" type="line"/>
    </contour>
    <contour>
      <point x="43" y="389" type="line"/>
      <point x="178" y="389" type="line"/>
      <point x="178" y="718" type="line"/>
      <point x="43" y="718" type="line"/>
    </contour>
  </outline>
</glyph>
<glyph name="G.color0" format="2">
  <advance width="600"/>
  <unicode hex="0047"/>
  <outline>
    <contour>
      <point x="172" y="589" type="line"/>
      <point x="619" y="589" type="line"/>
      <point x="619" y="590" type="line"/>
      <point x="491" y="718" type="line"/>
      <point x="172" y="718" type="line"/>
    </contour>
  </outline>
</glyph>
<glyph name="G.color3" format="2">
  <advance width="600"/>
  <unicode hex="0047"/>
  <outline>
    <contour>
      <point x="225" y="301" type="line"/>
      <point x="483" y="301" type="line"/>
      <point x="483" y="430" type="line"/>
      <point x="225" y="430" type="line"/>
    </contour>
  </outline>
</glyph>
<glyph name="H.color0" format="2">
  <advance width="600"/>
  <unicode hex="0048"/>
  <outline>
    <contour>
      <point x="440" y="0" type="line"/>
      <point x="574" y="0" type="line"/>
      <point x="574" y="718" type="line"/>
      <point x="440" y="718" type="line"/>
    </contour>
  </outline>
</glyph>
<glyph name="H" format="2">
  <advance width="616.16667"/>
  <unicode hex="0048"/>
  <anchor x="310" y="718" name="top"/>
  <outline>
    <contour>
      <point x="440" y="0" type="line"/>
      <point x="574" y="0" type="line"/>
      <point x="574" y="718" type="line"/>
      <point x="440" y="718" type="line"/>
    </contour>
    <contour>
      <point x="43" y="0" type="line"/>
      <point x="178" y="0" type="line"/>
      <point x="178" y="718" type="line"/>
      <point x="43" y="718" type="line"/>
    </contour>
    <contour>
      <point x="178" y="301" type="line"/>
      <point x="440" y="301" type="line"/>
      <point x="440" y="430" type="line"/>
      <point x="178" y="430" type="line"/>
    </contour>
  </outline>
</glyph>
<glyph name="I.color0" format="2">
  <advance width="600"/>
  <unicode hex="0049"/>
  <outline>
    <contour>
      <point x="185" y="0" type="line"/>
      <point x="217" y="0" type="line"/>
      <point x="321" y="129" type="line"/>
      <point x="321" y="718" type="line"/>
      <point x="290" y="718" type="line"/>
      <point x="185" y="589" type="line"/>
    </contour>
  </outline>
</glyph>
<glyph name="I.color1" format="2">
  <advance width="600"/>
  <unicode hex="0049"/>
  <outline>
    <contour>
      <point x="24" y="0" type="line"/>
      <point x="185" y="0" type="line"/>
      <point x="185" y="129" type="line"/>
      <point x="24" y="129" type="line"/>
    </contour>
  </outline>
</glyph>
<glyph name="I.color2" format="2">
  <advance width="600"/>
  <unicode hex="0049"/>
  <outline>
    <contour>
      <point x="217" y="0" type="line"/>
      <point x="455" y="0" type="line"/>
      <point x="455" y="129" type="line"/>
      <point x="321" y="129" type="line"/>
    </contour>
  </outline>
</glyph>
<glyph name="I" format="2">
  <advance width="478"/>
  <unicode hex="0049"/>
  <anchor x="245" y="0" name="bottom"/>
  <anchor x="248" y="718" name="top"/>
  <outline>
    <contour>
      <point x="185" y="0" type="line"/>
      <point x="217" y="0" type="line"/>
      <point x="321" y="129" type="line"/>
      <point x="321" y="718" type="line"/>
      <point x="290" y="718" type="line"/>
      <point x="185" y="589" type="line"/>
    </contour>
    <contour>
      <point x="24" y="0" type="line"/>
      <point x="185" y="0" type="line"/>
      <point x="185" y="129" type="line"/>
      <point x="24" y="129" type="line"/>
    </contour>
    <contour>
      <point x="217" y="0" type="line"/>
      <point x="455" y="0" type="line"/>
      <point x="455" y="129" type="line"/>
      <point x="321" y="129" type="line"/>
    </contour>
    <contour>
      <point x="23" y="589" type="line"/>
      <point x="185" y="589" type="line"/>
      <point x="290" y="718" type="line"/>
      <point x="23" y="718" type="line"/>
    </contour>
    <contour>
      <point x="321" y="589" type="line"/>
      <point x="454" y="589" type="line"/>
      <point x="454" y="718" type="line"/>
      <point x="321" y="718" type="line"/>
    </contour>
  </outline>
</glyph>
<glyph name="J.color0" format="2">
  <advance width="600"/>
  <unicode hex="004A"/>
  <outline>
    <contour>
      <point x="238" y="127" type="line"/>
      <point x="372" y="127" type="line"/>
      <point x="372" y="718" type="line"/>
      <point x="341" y="718" type="line"/>
      <point x="238" y="589" type="line"/>
    </contour>
  </outline>
</glyph>
<glyph name="J.color1" format="2">
  <advance width="600"/>
  <unicode hex="004A"/>
  <outline>
    <contour>
      <point x="36" y="-2" type="line"/>
      <point x="267" y="-2" type="line"/>
      <point x="372" y="126" type="line"/>
      <point x="372" y="127" type="line"/>
      <point x="36" y="127" type="line"/>
    </contour>
  </outline>
</glyph>
<glyph name="J.color2" format="2">
  <advance width="600"/>
  <unicode hex="004A"/>
  <outline>
    <contour>
      <point x="32" y="589" type="line"/>
      <point x="238" y="589" type="line"/>
      <point x="341" y="718" type="line"/>
      <point x="32" y="718" type="line"/>
    </contour>
  </outline>
</glyph>
<glyph name="J.color3" format="2">
  <advance width="600"/>
  <unicode hex="004A"/>
  <outline>
    <contour>
      <point x="372" y="589" type="line"/>
      <point x="465" y="589" type="line"/>
      <point x="465" y="718" type="line"/>
      <point x="372" y="718" type="line"/>
    </contour>
  </outline>
</glyph>
<glyph name="K.color0" format="2">
  <advance width="600"/>
  <unicode hex="004B"/>
  <outline>
    <contour>
      <point x="453" y="0" type="line"/>
      <point x="623" y="0" type="line"/>
      <point x="623" y="1" type="line"/>
      <point x="425" y="373" type="line"/>
      <point x="316" y="293" type="line"/>
    </contour>
  </outline>
</glyph>
<glyph name="K.color1" format="2">
  <advance width="600"/>
  <unicode hex="004B"/>
  <outline>
    <contour>
      <point x="43" y="0" type="line"/>
      <point x="178" y="0" type="line"/>
      <point x="178" y="718" type="line"/>
      <point x="43" y="718" type="line"/>
    </contour>
  </outline>
</glyph>
<glyph name="K.color2" format="2">
  <advance width="600"/>
  <unicode hex="004B"/>
  <outline>
    <contour>
      <point x="178" y="290" type="line"/>
      <point x="402" y="290" type="line"/>
      <point x="402" y="419" type="line"/>
      <point x="178" y="419" type="line"/>
    </contour>
  </outline>
</glyph>
<glyph name="K.color3" format="2">
  <advance width="600"/>
  <unicode hex="004B"/>
  <outline>
    <contour>
      <point x="402" y="290" type="line"/>
      <point x="403" y="290" type="line"/>
      <point x="536" y="402" type="line"/>
      <point x="536" y="718" type="line"/>
      <point x="402" y="718" type="line"/>
    </contour>
  </outline>
</glyph>
<glyph name="K" format="2">
  <advance width="631.41667"/>
  <unicode hex="004B"/>
  <anchor x="306" y="0" name="bottom"/>
  <outline>
    <contour>
      <point x="453" y="0" type="line"/>
      <point x="623" y="0" type="line"/>
      <point x="623" y="1" type="line"/>
      <point x="425" y="373" type="line"/>
      <point x="316" y="293" type="line"/>
    </contour>
    <contour>
      <point x="43" y="0" type="line"/>
      <point x="178" y="0" type="line"/>
      <point x="178" y="718" type="line"/>
      <point x="43" y="718" type="line"/>
    </contour>
    <contour>
      <point x="178" y="290" type="line"/>
      <point x="402" y="290" type="line"/>
      <point x="402" y="419" type="line"/>
      <point x="178" y="419" type="line"/>
    </contour>
    <contour>
      <point x="402" y="290" type="line"/>
      <point x="403" y="290" type="line"/>
      <point x="536" y="402" type="line"/>
      <point x="536" y="718" type="line"/>
      <point x="402" y="718" type="line"/>
    </contour>
  </outline>
</glyph>
<glyph name="L.color0" format="2">
  <advance width="600"/>
  <unicode hex="004C"/>
  <outline>
    <contour>
      <point x="170" y="0" type="line"/>
      <point x="532" y="0" type="line"/>
      <point x="532" y="129" type="line"/>
      <point x="43" y="129" type="line"/>
      <point x="43" y="128" type="line"/>
    </contour>
  </outline>
</glyph>
<glyph name="L" format="2">
  <advance width="545.91667"/>
  <unicode hex="004C"/>
  <anchor x="299" y="0" name="bottom"/>
  <anchor x="132" y="718" name="top"/>
  <outline>
    <contour>
      <point x="170" y="0" type="line"/>
      <point x="532" y="0" type="line"/>
      <point x="532" y="129" type="line"/>
      <point x="43" y="129" type="line"/>
      <point x="43" y="128" type="line"/>
    </contour>
    <contour>
      <point x="43" y="129" type="line"/>
      <point x="178" y="129" type="line"/>
      <point x="178" y="718" type="line"/>
      <point x="43" y="718" type="line"/>
    </contour>
  </outline>
</glyph>
<glyph name="M.color0" format="2">
  <advance width="600"/>
  <unicode hex="004D"/>
  <outline>
    <contour>
      <point x="392" y="92" type="line"/>
      <point x="471" y="-4" type="line"/>
      <point x="704" y="554" type="line"/>
      <point x="630" y="723" type="line"/>
    </contour>
  </outline>
</glyph>
<glyph name="M.color1" format="2">
  <advance width="600"/>
  <unicode hex="004D"/>
  <outline>
    <contour>
      <point x="43" y="0" type="line"/>
      <point x="178" y="0" type="line"/>
      <point x="178" y="482" type="line"/>
      <point x="43" y="713" type="line"/>
    </contour>
  </outline>
</glyph>
<glyph name="M.color2" format="2">
  <advance width="600"/>
  <unicode hex="004D"/>
  <outline>
    <contour>
      <point x="342" y="-4" type="line"/>
      <point x="471" y="-4" type="line"/>
      <point x="471" y="-3" type="line"/>
      <point x="178" y="723" type="line"/>
      <point x="177" y="723" type="line"/>
      <point x="43" y="713" type="line"/>
    </contour>
  </outline>
</glyph>
<glyph name="M.color3" format="2">
  <advance width="600"/>
  <unicode hex="004D"/>
  <outline>
    <contour>
      <point x="630" y="0" type="line"/>
      <point x="765" y="0" type="line"/>
      <point x="772" y="713" type="line"/>
      <point x="631" y="723" type="line"/>
      <point x="630" y="723" type="line"/>
    </contour>
  </outline>
</glyph>
<glyph name="M" format="2">
  <advance width="815"/>
  <unicode hex="004D"/>
  <outline>
    <contour>
      <point x="392" y="92" type="line"/>
      <point x="471" y="-4" type="line"/>
      <point x="704" y="554" type="line"/>
      <point x="630" y="723" type="line"/>
    </contour>
    <contour>
      <point x="43" y="0" type="line"/>
      <point x="178" y="0" type="line"/>
      <point x="178" y="482" type="line"/>
      <point x="43" y="713" type="line"/>
    </contour>
    <contour>
      <point x="342" y="-4" type="line"/>
      <point x="471" y="-4" type="line"/>
      <point x="471" y="-3" type="line"/>
      <point x="178" y="723" type="line"/>
      <point x="177" y="723" type="line"/>
      <point x="43" y="713" type="line"/>
    </contour>
    <contour>
      <point x="630" y="0" type="line"/>
      <point x="765" y="0" type="line"/>
      <point x="772" y="713" type="line"/>
      <point x="631" y="723" type="line"/>
      <point x="630" y="723" type="line"/>
    </contour>
  </outline>
</glyph>
<glyph name="N.color0" format="2">
  <advance width="600"/>
  <unicode hex="004E"/>
  <outline>
    <contour>
      <point x="565" y="99" type="line"/>
      <point x="565" y="718" type="line"/>
      <point x="430" y="718" type="line"/>
      <point x="430" y="231" type="line"/>
    </contour>
  </outline>
</glyph>
<glyph name="O" format="2">
  <advance width="596.16667"/>
  <unicode hex="004F"/>
  <anchor x="300" y="0" name="bottom"/>
  <anchor x="479" y="718" name="horn"/>
  <anchor x="313" y="718" name="top"/>
  <outline>
    <contour>
      <point x="172" y="589" type="line"/>
      <point x="560" y="589" type="line"/>
      <point x="560" y="590" type="line"/>
      <point x="456" y="718" type="line"/>
      <point x="172" y="718" type="line"/>
    </contour>
    <contour>
      <point x="164" y="0" type="line"/>
      <point x="425" y="0" type="line"/>
      <point x="425" y="129" type="line"/>
      <point x="37" y="129" type="line"/>
      <point x="37" y="128" type="line"/>
    </contour>
    <contour>
      <point x="37" y="129" type="line"/>
      <point x="172" y="129" type="line"/>
      <point x="172" y="718" type="line"/>
      <point x="171" y="718" type="line"/>
      <point x="37" y="587" type="line"/>
    </contour>
    <contour>
      <point x="425" y="0" type="line"/>
      <point x="426" y="0" type="line"/>
      <point x="560" y="131" type="line"/>
      <point x="560" y="589" type="line"/>
      <point x="425" y="589" type="line"/>
    </contour>
  </outline>
</glyph>
<glyph name="P.color0" format="2">
  <advance width="600"/>
  <unicode hex="0050"/>
  <outline>
    <contour>
      <point x="43" y="0" type="line"/>
      <point x="178" y="0" type="line"/>
      <point x="178" y="718" type="line"/>
      <point x="177" y="718" type="line"/>
      <point x="43" y="708" type="line"/>
    </contour>
  </outline>
</glyph>
<glyph name="P.color2" format="2">
  <advance width="600"/>
  <unicode hex="0050"/>
  <outline>
    <contour>
      <point x="431" y="248" type="line"/>
      <point x="432" y="248" type="line"/>
      <point x="566" y="373" type="line"/>
      <point x="566" y="589" type="line"/>
      <point x="431" y="589" type="line"/>
    </contour>
  </outline>
</glyph>
<glyph name="P.color3" format="2">
  <advance width="600"/>
  <unicode hex="0050"/>
  <outline>
    <contour>
      <point x="178" y="589" type="line"/>
      <point x="566" y="589" type="line"/>
      <point x="566" y="590" type="line"/>
      <point x="439" y="718" type="line"/>
      <point x="178" y="718" type="line"/>
    </contour>
  </outline>
</glyph>
<glyph name="P" format="2">
  <advance width="581.16667"/>
  <unicode hex="0050"/>
  <outline>
    <contour>
      <point x="43" y="0" type="line"/>
      <point x="178" y="0" type="line"/>
      <point x="178" y="718" type="line"/>
      <point x="177" y="718" type="line"/>
      <point x="43" y="708" type="line"/>
    </contour>
    <contour>
      <point x="178" y="248" type="line"/>
      <point x="431" y="248" type="line"/>
      <point x="431" y="377" type="line"/>
      <point x="178" y="377" type="line"/>
    </contour>
    <contour>
      <point x="431" y="248" type="line"/>
      <point x="432" y="248" type="line"/>
      <point x="566" y="373" type="line"/>
      <point x="566" y="589" type="line"/>
      <point x="431" y="589" type="line"/>
    </contour>
    <contour>
      <point x="178" y="589" type="line"/>
      <point x="566" y="589" type="line"/>
      <point x="566" y="590" type="line"/>
      <point x="439" y="718" type="line"/>
      <point x="178" y="718" type="line"/>
    </contour>
  </outline>
</glyph>
<glyph name="Q.color0" format="2">
  <advance width="600"/>
  <unicode hex="0051"/>
  <outline>
    <contour>
      <point x="522" y="69" type="line"/>
      <point x="560" y="122" type="line"/>
      <point x="560" y="589" type="line"/>
      <point x="425" y="589" type="line"/>
      <point x="425" y="129" type="line"/>
      <point x="474" y="129" type="line"/>
    </contour>
  </outline>
</glyph>
<glyph name="Q.color1" format="2">
  <advance width="600"/>
  <unicode hex="0051"/>
  <outline>
    <contour>
      <point x="164" y="0" type="line"/>
      <point x="631" y="0" type="line"/>
      <point x="631" y="1" type="line"/>
      <point x="503" y="129" type="line"/>
      <point x="37" y="129" type="line"/>
      <point x="37" y="128" type="line"/>
    </contour>
  </outline>
</glyph>
<glyph name="Q.color3" format="2">
  <advance width="600"/>
  <unicode hex="0051"/>
  <outline>
    <contour>
      <point x="172" y="589" type="line"/>
      <point x="560" y="589" type="line"/>
      <point x="560" y="590" type="line"/>
      <point x="432" y="718" type="line"/>
      <point x="172" y="718" type="line"/>
    </contour>
  </outline>
</glyph>
<glyph name="Q" format="2">
  <advance width="624.75"/>
  <unicode hex="0051"/>
  <outline>
    <contour>
      <point x="522" y="69" type="line"/>
      <point x="560" y="122" type="line"/>
      <point x="560" y="589" type="line"/>
      <point x="425" y="589" type="line"/>
      <point x="425" y="129" type="line"/>
      <point x="474" y="129" type="line"/>
    </contour>
    <contour>
      <point x="164" y="0" type="line"/>
      <point x="631" y="0" type="line"/>
      <point x="631" y="1" type="line"/>
      <point x="503" y="129" type="line"/>
      <point x="37" y="129" type="line"/>
      <point x="37" y="128" type="line"/>
    </contour>
    <contour>
      <point x="37" y="129" type="line"/>
      <point x="172" y="129" type="line"/>
      <point x="172" y="718" type="line"/>
      <point x="171" y="718" type="line"/>
      <point x="37" y="587" type="line"/>
    </contour>
    <contour>
      <point x="172" y="589" type="line"/>
      <point x="560" y="589" type="line"/>
      <point x="560" y="590" type="line"/>
      <point x="432" y="718" type="line"/>
      <point x="172" y="718" type="line"/>
    </contour>
  </outline>
</glyph>
<glyph name="S.color1" format="2">
  <advance width="600"/>
  <unicode hex="0053"/>
  <outline>
    <contour>
      <point x="160" y="0" type="line"/>
      <point x="407" y="0" type="line"/>
      <point x="407" y="129" type="line"/>
      <point x="33" y="129" type="line"/>
      <point x="33" y="128" type="line"/>
    </contour>
  </outline>
</glyph>
<glyph name="S.color2" format="2">
  <advance width="600"/>
  <unicode hex="0053"/>
  <outline>
    <contour>
      <point x="160" y="300" type="line"/>
      <point x="407" y="300" type="line"/>
      <point x="407" y="429" type="line"/>
      <point x="33" y="429" type="line"/>
      <point x="33" y="428" type="line"/>
    </contour>
  </outline>
</glyph>
<glyph name="T.color1" format="2">
  <advance width="600"/>
  <unicode hex="0054"/>
  <outline>
    <contour>
      <point x="24" y="589" type="line"/>
      <point x="239" y="589" type="line"/>
      <point x="342" y="718" type="line"/>
      <point x="24" y="718" type="line"/>
    </contour>
  </outline>
</glyph>
<glyph name="T.color2" format="2">
  <advance width="600"/>
  <unicode hex="0054"/>
  <outline>
    <contour>
      <point x="374" y="589" type="line"/>
      <point x="599" y="589" type="line"/>
      <point x="599" y="718" type="line"/>
      <point x="374" y="718" type="line"/>
    </contour>
  </outline>
</glyph>
<glyph name="T" format="2">
  <advance width="623.08333"/>
  <unicode hex="0054"/>
  <anchor x="307" y="0" name="bottom"/>
  <anchor x="317" y="365" name="stroke"/>
  <anchor x="320" y="718" name="top"/>
  <outline>
    <contour>
      <point x="238" y="0" type="line"/>
      <point x="374" y="0" type="line"/>
      <point x="374" y="718" type="line"/>
      <point x="342" y="718" type="line"/>
      <point x="239" y="589" type="line"/>
    </contour>
    <contour>
      <point x="24" y="589" type="line"/>
      <point x="239" y="589" type="line"/>
      <point x="342" y="718" type="line"/>
      <point x="24" y="718" type="line"/>
    </contour>
    <contour>
      <point x="374" y="589" type="line"/>
      <point x="599" y="589" type="line"/>
      <point x="599" y="718" type="line"/>
      <point x="374" y="718" type="line"/>
    </contour>
  </outline>
</glyph>
<glyph name="V.color0" format="2">
  <advance width="600"/>
  <unicode hex="0056"/>
  <outline>
    <contour>
      <point x="230" y="0" type="line"/>
      <point x="231" y="0" type="line"/>
      <point x="321" y="117" type="line"/>
      <point x="162" y="718" type="line"/>
      <point x="9" y="718" type="line"/>
      <point x="9" y="717" type="line"/>
    </contour>
  </outline>
</glyph>
<glyph name="V.color1" format="2">
  <advance width="600"/>
  <unicode hex="0056"/>
  <outline>
    <contour>
      <point x="231" y="0" type="line"/>
      <point x="360" y="0" type="line"/>
      <point x="595" y="717" type="line"/>
      <point x="595" y="718" type="line"/>
      <point x="442" y="718" type="line"/>
    </contour>
  </outline>
</glyph>
<glyph name="V" format="2">
  <advance width="603.91667"/>
  <unicode hex="0056"/>
  <outline>
    <contour>
      <point x="230" y="0" type="line"/>
      <point x="231" y="0" type="line"/>
      <point x="321" y="117" type="line"/>
      <point x="162" y="718" type="line"/>
      <point x="9" y="718" type="line"/>
      <point x="9" y="717" type="line"/>
    </contour>
    <contour>
      <point x="231" y="0" type="line"/>
      <point x="360" y="0" type="line"/>
      <point x="595" y="717" type="line"/>
      <point x="595" y="718" type="line"/>
      <point x="442" y="718" type="line"/>
    </contour>
  </outline>
</glyph>
<glyph name="W.color2" format="2">
  <advance width="600"/>
  <unicode hex="0057"/>
  <outline>
    <contour>
      <point x="188" y="0" type="line"/>
      <point x="304" y="0" type="line"/>
      <point x="510" y="718" type="line"/>
      <point x="381" y="718" type="line"/>
    </contour>
  </outline>
</glyph>
<glyph name="W.color3" format="2">
  <advance width="600"/>
  <unicode hex="0057"/>
  <outline>
    <contour>
      <point x="581" y="0" type="line"/>
      <point x="694" y="0" type="line"/>
      <point x="882" y="717" type="line"/>
      <point x="882" y="718" type="line"/>
      <point x="731" y="718" type="line"/>
    </contour>
  </outline>
</glyph>
<glyph name="W" format="2">
  <advance width="889.66667"/>
  <unicode hex="0057"/>
  <anchor x="445" y="718" name="top"/>
  <outline>
    <contour>
      <point x="580" y="0" type="line"/>
      <point x="581" y="0" type="line"/>
      <point x="665" y="117" type="line"/>
      <point x="510" y="718" type="line"/>
      <point x="381" y="718" type="line"/>
    </contour>
    <contour>
      <point x="181" y="0" type="line"/>
      <point x="188" y="0" type="line"/>
      <point x="275" y="117" type="line"/>
      <point x="161" y="718" type="line"/>
      <point x="8" y="718" type="line"/>
      <point x="8" y="717" type="line"/>
    </contour>
    <contour>
      <point x="188" y="0" type="line"/>
      <point x="304" y="0" type="line"/>
      <point x="510" y="718" type="line"/>
      <point x="381" y="718" type="line"/>
    </contour>
    <contour>
      <point x="581" y="0" type="line"/>
      <point x="694" y="0" type="line"/>
      <point x="882" y="717" type="line"/>
      <point x="882" y="718" type="line"/>
      <point x="731" y="718" type="line"/>
    </contour>
  </outline>
</glyph>
<glyph name="X.color0" format="2">
  <advance width="600"/>
  <unicode hex="0058"/>
  <outline>
    <contour>
      <point x="210" y="359" type="line"/>
      <point x="211" y="359" type="line"/>
      <point x="294" y="465" type="line"/>
      <point x="176" y="718" type="line"/>
      <point x="24" y="718" type="line"/>
      <point x="24" y="717" type="line"/>
    </contour>
  </outline>
</glyph>
<glyph name="X.color1" format="2">
  <advance width="600"/>
  <unicode hex="0058"/>
  <outline>
    <contour>
      <point x="388" y="0" type="line"/>
      <point x="541" y="0" type="line"/>
      <point x="541" y="1" type="line"/>
      <point x="355" y="359" type="line"/>
      <point x="354" y="359" type="line"/>
      <point x="270" y="253" type="line"/>
    </contour>
  </outline>
</glyph>
<glyph name="X" format="2">
  <advance width="562"/>
  <unicode hex="0058"/>
  <outline>
    <contour>
      <point x="210" y="359" type="line"/>
      <point x="211" y="359" type="line"/>
      <point x="294" y="465" type="line"/>
      <point x="176" y="718" type="line"/>
      <point x="24" y="718" type="line"/>
      <point x="24" y="717" type="line"/>
    </contour>
    <contour>
      <point x="388" y="0" type="line"/>
      <point x="541" y="0" type="line"/>
      <point x="541" y="1" type="line"/>
      <point x="355" y="359" type="line"/>
      <point x="354" y="359" type="line"/>
      <point x="270" y="253" type="line"/>
    </contour>
    <contour>
      <point x="14" y="0" type="line"/>
      <point x="171" y="0" type="line"/>
      <point x="354" y="359" type="line"/>
      <point x="210" y="359" type="line"/>
      <point x="14" y="1" type="line"/>
    </contour>
    <contour>
      <point x="211" y="359" type="line"/>
      <point x="355" y="359" type="line"/>
      <point x="548" y="717" type="line"/>
      <point x="548" y="718" type="line"/>
      <point x="391" y="718" type="line"/>
    </contour>
  </outline>
</glyph>
<glyph name="Y.color0" format="2">
  <advance width="600"/>
  <unicode hex="0059"/>
  <outline>
    <contour>
      <point x="220" y="312" type="line"/>
      <point x="221" y="312" type="line"/>
      <point x="290" y="421" type="line"/>
      <point x="156" y="718" type="line"/>
      <point x="9" y="718" type="line"/>
      <point x="9" y="717" type="line"/>
    </contour>
  </outline>
</glyph>
<glyph name="Y.color2" format="2">
  <advance width="600"/>
  <unicode hex="0059"/>
  <outline>
    <contour>
      <point x="221" y="312" type="line"/>
      <point x="355" y="312" type="line"/>
      <point x="549" y="717" type="line"/>
      <point x="549" y="718" type="line"/>
      <point x="403" y="718" type="line"/>
    </contour>
  </outline>
</glyph>
<glyph name="Y" format="2">
  <advance width="558"/>
  <unicode hex="0059"/>
  <anchor x="286" y="0" name="bottom"/>
  <anchor x="287" y="718" name="top"/>
  <outline>
    <contour>
      <point x="220" y="312" type="line"/>
      <point x="221" y="312" type="line"/>
      <point x="290" y="421" type="line"/>
      <point x="156" y="718" type="line"/>
      <point x="9" y="718" type="line"/>
      <point x="9" y="717" type="line"/>
    </contour>
    <contour>
      <point x="220" y="0" type="line"/>
      <point x="355" y="0" type="line"/>
      <point x="355" y="312" type="line"/>
      <point x="220" y="312" type="line"/>
    </contour>
    <contour>
      <point x="221" y="312" type="line"/>
      <point x="355" y="312" type="line"/>
      <point x="549" y="717" type="line"/>
      <point x="549" y="718" type="line"/>
      <point x="403" y="718" type="line"/>
    </contour>
  </outline>
</glyph>
<glyph name="Z.color0" format="2">
  <advance width="600"/>
  <unicode hex="005A"/>
  <outline>
    <contour>
      <point x="34" y="589" type="line"/>
      <point x="405" y="589" type="line"/>
      <point x="422" y="718" type="line"/>
      <point x="34" y="718" type="line"/>
    </contour>
  </outline>
</glyph>
<glyph name="Z.color1" format="2">
  <advance width="600"/>
  <unicode hex="005A"/>
  <outline>
    <contour>
      <point x="166" y="73" type="line"/>
      <point x="513" y="608" type="line"/>
      <point x="422" y="718" type="line"/>
      <point x="38" y="130" type="line"/>
      <point x="38" y="129" type="line"/>
    </contour>
  </outline>
</glyph>
<glyph name="Z.color2" format="2">
  <advance width="600"/>
  <unicode hex="005A"/>
  <outline>
    <contour>
      <point x="48" y="0" type="line"/>
      <point x="517" y="0" type="line"/>
      <point x="517" y="129" type="line"/>
      <point x="38" y="129" type="line"/>
    </contour>
  </outline>
</glyph>
<glyph name="Z" format="2">
  <advance width="551"/>
  <unicode hex="005A"/>
  <anchor x="275" y="718" name="top"/>
  <outline>
    <contour>
      <point x="34" y="589" type="line"/>
      <point x="405" y="589" type="line"/>
      <point x="422" y="718" type="line"/>
      <point x="34" y="718" type="line"/>
    </contour>
    <contour>
      <point x="166" y="73" type="line"/>
      <point x="513" y="608" type="line"/>
      <point x="422" y="718" type="line"/>
      <point x="38" y="130" type="line"/>
      <point x="38" y="129" type="line"/>
    </contour>
    <contour>
      <point x="48" y="0" type="line"/>
      <point x="517" y="0" type="line"/>
      <point x="517" y="129" type="line"/>
      <point x="38" y="129" type="line"/>
    </contour>
  </outline>
</glyph>
<glyph name="bracketleft.color0" format="2">
  <advance width="600"/>
  <unicode hex="005B"/>
  <outline>
    <contour>
      <point x="54" y="29" type="line"/>
      <point x="189" y="29" type="line"/>
      <point x="189" y="718" type="line"/>
      <point x="54" y="718" type="line"/>
    </contour>
  </outline>
</glyph>
<glyph name="bracketleft.color1" format="2">
  <advance width="600"/>
  <unicode hex="005B"/>
  <outline>
    <contour>
      <point x="54" y="-100" type="line"/>
      <point x="379" y="-100" type="line"/>
      <point x="379" y="29" type="line"/>
      <point x="54" y="29" type="line"/>
    </contour>
  </outline>
</glyph>
<glyph name="bracketleft.color2" format="2">
  <advance width="600"/>
  <unicode hex="005B"/>
  <outline>
    <contour>
      <point x="189" y="589" type="line"/>
      <point x="379" y="589" type="line"/>
      <point x="379" y="718" type="line"/>
      <point x="189" y="718" type="line"/>
    </contour>
  </outline>
</glyph>
<glyph name="backslash" format="2">
  <advance width="436.33333"/>
  <unicode hex="005C"/>
  <outline>
    <contour>
      <point x="293" y="-100" type="line"/>
      <point x="440" y="-100" type="line"/>
      <point x="440" y="-99" type="line"/>
      <point x="149" y="789" type="line"/>
      <point x="3" y="789" type="line"/>
      <point x="3" y="788" type="line"/>
    </contour>
  </outline>
</glyph>
<glyph name="bracketright.color0" format="2">
  <advance width="600"/>
  <unicode hex="005D"/>
  <outline>
    <contour>
      <point x="219" y="-100" type="line"/>
      <point x="354" y="-100" type="line"/>
      <point x="354" y="589" type="line"/>
      <point x="219" y="589" type="line"/>
    </contour>
  </outline>
</glyph>
<glyph name="bracketright.color1" format="2">
  <advance width="600"/>
  <unicode hex="005D"/>
  <outline>
    <contour>
      <point x="29" y="-100" type="line"/>
      <point x="219" y="-100" type="line"/>
      <point x="219" y="29" type="line"/>
      <point x="29" y="29" type="line"/>
    </contour>
  </outline>
</glyph>
<glyph name="bracketright.color2" format="2">
  <advance width="600"/>
  <unicode hex="005D"/>
  <outline>
    <contour>
      <point x="29" y="589" type="line"/>
      <point x="354" y="589" type="line"/>
      <point x="354" y="718" type="line"/>
      <point x="29" y="718" type="line"/>
    </contour>
  </outline>
</glyph>
<glyph name="bracketright" format="2">
  <advance width="407.5"/>
  <unicode hex="005D"/>
  <outline>
    <contour>
      <point x="219" y="-100" type="line"/>
      <point x="354" y="-100" type="line"/>
      <point x="354" y="589" type="line"/>
      <point x="219" y="589" type="line"/>
    </contour>
    <contour>
      <point x="29" y="-100" type="line"/>
      <point x="219" y="-100" type="line"/>
      <point x="219" y="29" type="line"/>
      <point x="29" y="29" type="line"/>
    </contour>
    <contour>
      <point x="29" y="589" type="line"/>
      <point x="354" y="589" type="line"/>
      <point x="354" y="718" type="line"/>
      <point x="29" y="718" type="line"/>
    </contour>
  </outline>
</glyph>
<glyph name="asciicircum.color0" format="2">
  <advance width="600"/>
  <unicode hex="005E"/>
  <outline>
    <contour>
      <point x="43" y="375" type="line"/>
      <point x="185" y="375" type="line"/>
      <point x="353" y="718" type="line"/>
      <point x="226" y="718" type="line"/>
      <point x="43" y="376" type="line"/>
    </contour>
  </outline>
</glyph>
<glyph name="asciicircum.color1" format="2">
  <advance width="600"/>
  <unicode hex="005E"/>
  <outline>
    <contour>
      <point x="377" y="375" type="line"/>
      <point x="519" y="375" type="line"/>
      <point x="519" y="376" type="line"/>
      <point x="353" y="718" type="line"/>
      <point x="226" y="718" type="line"/>
    </contour>
  </outline>
</glyph>
<glyph name="asciicircum" format="2">
  <advance width="560.83333"/>
  <unicode hex="005E"/>
  <outline>
    <contour>
      <point x="43" y="375" type="line"/>
      <point x="185" y="375" type="line"/>
      <point x="353" y="718" type="line"/>
      <point x="226" y="718" type="line"/>
      <point x="43" y="376" type="line"/>
    </contour>
    <contour>
      <point x="377" y="375" type="line"/>
      <point x="519" y="375" type="line"/>
      <point x="519" y="376" type="line"/>
      <point x="353" y="718" type="line"/>
      <point x="226" y="718" type="line"/>
    </contour>
  </outline>
</glyph>
<glyph name="underscore" format="2">
  <advance width="810"/>
  <unicode hex="005F"/>
  <outline>
    <contour>
      <point x="43" y="-117" type="line"/>
      <point x="767" y="-117" type="line"/>
      <point x="767" y="0" type="line"/>
      <point x="43" y="0" type="line"/>
    </contour>
  </outline>
</glyph>
<glyph name="grave" format="2">
  <advance width="600"/>
  <unicode hex="0060"/>
  <anchor x="327" y="518" name="_top"/>
  <outline>
    <contour>
      <point x="295" y="582" type="line"/>
      <point x="367" y="582" type="line"/>
      <point x="336" y="770" type="line"/>
      <point x="220" y="770" type="line"/>
      <point x="220" y="769" type="line"/>
    </contour>
  </outline>
</glyph>
<glyph name="a.color1" format="2">
  <advance width="600"/>
  <unicode hex="0061"/>
  <outline>
    <contour>
      <point x="114" y="0" type="line"/>
      <point x="389" y="0" type="line"/>
      <point x="389" y="129" type="line"/>
      <point x="42" y="129" type="line"/>
      <point x="42" y="128" type="line"/>
    </contour>
  </outline>
</glyph>
<glyph name="a.color3" format="2">
  <advance width="600"/>
  <unicode hex="0061"/>
  <outline>
    <contour>
      <point x="389" y="0" type="line"/>
      <point x="524" y="0" type="line"/>
      <point x="524" y="389" type="line"/>
      <point x="389" y="389" type="line"/>
    </contour>
  </outline>
</glyph>
<glyph name="a" format="2">
  <advance width="564.5"/>
  <unicode hex="0061"/>
  <anchor x="300" y="0" name="bottom"/>
  <anchor x="306" y="518" name="top"/>
  <outline>
    <contour>
      <point x="176" y="389" type="line"/>
      <point x="524" y="389" type="line"/>
      <point x="524" y="390" type="line"/>
      <point x="452" y="518" type="line"/>
      <point x="176" y="518" type="line"/>
    </contour>
    <contour>
      <point x="114" y="0" type="line"/>
      <point x="389" y="0" type="line"/>
      <point x="389" y="129" type="line"/>
      <point x="42" y="129" type="line"/>
      <point x="42" y="128" type="line"/>
    </contour>
    <contour>
      <point x="42" y="129" type="line"/>
      <point x="176" y="129" type="line"/>
      <point x="176" y="518" type="line"/>
      <point x="175" y="518" type="line"/>
      <point x="42" y="446" type="line"/>
    </contour>
    <contour>
      <point x="389" y="0" type="line"/>
      <point x="524" y="0" type="line"/>
      <point x="524" y="389" type="line"/>
      <point x="389" y="389" type="line"/>
    </contour>
  </outline>
</glyph>
<glyph name="b.color0" format="2">
  <advance width="600"/>
  <unicode hex="0062"/>
  <outline>
    <contour>
      <point x="42" y="129" type="line"/>
      <point x="177" y="129" type="line"/>
      <point x="176" y="768" type="line"/>
      <point x="42" y="768" type="line"/>
    </contour>
  </outline>
</glyph>
<glyph name="b.color1" format="2">
  <advance width="600"/>
  <unicode hex="0062"/>
  <outline>
    <contour>
      <point x="111" y="0" type="line"/>
      <point x="378" y="0" type="line"/>
      <point x="378" y="129" type="line"/>
      <point x="42" y="129" type="line"/>
      <point x="42" y="128" type="line"/>
    </contour>
  </outline>
</glyph>
<glyph name="b.color2" format="2">
  <advance width="600"/>
  <unicode hex="0062"/>
  <outline>
    <contour>
      <point x="378" y="0" type="line"/>
      <point x="379" y="0" type="line"/>
      <point x="512" y="72" type="line"/>
      <point x="512" y="389" type="line"/>
      <point x="378" y="389" type="line"/>
    </contour>
  </outline>
</glyph>
<glyph name="b.color3" format="2">
  <advance width="600"/>
  <unicode hex="0062"/>
  <outline>
    <contour>
      <point x="177" y="389" type="line"/>
      <point x="512" y="389" type="line"/>
      <point x="512" y="390" type="line"/>
      <point x="444" y="518" type="line"/>
      <point x="177" y="518" type="line"/>
    </contour>
  </outline>
</glyph>
<glyph name="b" format="2">
  <advance width="553.83333"/>
  <unicode hex="0062"/>
  <outline>
    <contour>
      <point x="42" y="129" type="line"/>
      <point x="177" y="129" type="line"/>
      <point x="176" y="768" type="line"/>
      <point x="42" y="768" type="line"/>
    </contour>
    <contour>
      <point x="111" y="0" type="line"/>
      <point x="378" y="0" type="line"/>
      <point x="378" y="129" type="line"/>
      <point x="42" y="129" type="line"/>
      <point x="42" y="128" type="line"/>
    </contour>
    <contour>
      <point x="378" y="0" type="line"/>
      <point x="379" y="0" type="line"/>
      <point x="512" y="72" type="line"/>
      <point x="512" y="389" type="line"/>
      <point x="378" y="389" type="line"/>
    </contour>
    <contour>
      <point x="177" y="389" type="line"/>
      <point x="512" y="389" type="line"/>
      <point x="512" y="390" type="line"/>
      <point x="444" y="518" type="line"/>
      <point x="177" y="518" type="line"/>
    </contour>
  </outline>
</glyph>
<glyph name="c.color2" format="2">
  <advance width="600"/>
  <unicode hex="0063"/>
  <outline>
    <contour>
      <point x="179" y="389" type="line"/>
      <point x="497" y="389" type="line"/>
      <point x="497" y="390" type="line"/>
      <point x="425" y="518" type="line"/>
      <point x="179" y="518" type="line"/>
    </contour>
  </outline>
</glyph>
<glyph name="d.color0" format="2">
  <advance width="600"/>
  <unicode hex="0064"/>
  <outline>
    <contour>
      <point x="517" y="391" type="line"/>
      <point x="518" y="391" type="line"/>
      <point x="518" y="768" type="line"/>
      <point x="383" y="768" type="line"/>
      <point x="383" y="518" type="line"/>
    </contour>
  </outline>
</glyph>
<glyph name="d" format="2">
  <advance width="559.25"/>
  <unicode hex="0064"/>
  <anchor x="355" y="624" name="stroke"/>
  <anchor x="460" y="768" name="top"/>
  <outline>
    <contour>
      <point x="517" y="391" type="line"/>
      <point x="518" y="391" type="line"/>
      <point x="518" y="768" type="line"/>
      <point x="383" y="768" type="line"/>
      <point x="383" y="518" type="line"/>
    </contour>
    <contour>
      <point x="182" y="389" type="line"/>
      <point x="518" y="389" type="line"/>
      <point x="518" y="390" type="line"/>
      <point x="414" y="518" type="line"/>
      <point x="182" y="518" type="line"/>
    </contour>
    <contour>
      <point x="116" y="0" type="line"/>
      <point x="383" y="0" type="line"/>
      <point x="383" y="129" type="line"/>
      <point x="47" y="129" type="line"/>
      <point x="47" y="128" type="line"/>
    </contour>
    <contour>
      <point x="47" y="129" type="line"/>
      <point x="182" y="129" type="line"/>
      <point x="182" y="518" type="line"/>
      <point x="181" y="518" type="line"/>
      <point x="47" y="446" type="line"/>
    </contour>
    <contour>
      <point x="383" y="0" type="line"/>
      <point x="384" y="0" type="line"/>
      <point x="518" y="72" type="line"/>
      <point x="518" y="389" type="line"/>
      <point x="383" y="389" type="line"/>
    </contour>
  </outline>
</glyph>
<glyph name="e.color0" format="2">
  <advance width="600"/>
  <unicode hex="0065"/>
  <outline>
    <contour>
      <point x="119" y="0" type="line"/>
      <point x="463" y="0" type="line"/>
      <point x="535" y="126" type="line"/>
      <point x="535" y="127" type="line"/>
      <point x="47" y="127" type="line"/>
      <point x="47" y="126" type="line"/>
    </contour>
  </outline>
</glyph>
<glyph name="f.color0" format="2">
  <advance width="600"/>
  <unicode hex="0066"/>
  <outline>
    <contour>
      <point x="176" y="248" type="line"/>
      <point x="394" y="248" type="line"/>
      <point x="394" y="377" type="line"/>
      <point x="43" y="377" type="line"/>
    </contour>
  </outline>
</glyph>
<glyph name="f.color2" format="2">
  <advance width="600"/>
  <unicode hex="0066"/>
  <outline>
    <contour>
      <point x="42" y="377" type="line"/>
      <point x="176" y="377" type="line"/>
      <point x="176" y="702" type="line"/>
      <point x="175" y="702" type="line"/>
      <point x="42" y="630" type="line"/>
    </contour>
  </outline>
</glyph>
<glyph name="f.color3" format="2">
  <advance width="600"/>
  <unicode hex="0066"/>
  <outline>
    <contour>
      <point x="176" y="573" type="line"/>
      <point x="402" y="573" type="line"/>
      <point x="402" y="574" type="line"/>
      <point x="379" y="702" type="line"/>
      <point x="176" y="702" type="line"/>
    </contour>
  </outline>
</glyph>
<glyph name="f" format="2">
  <advance width="425.91667"/>
  <unicode hex="0066"/>
  <outline>
    <contour>
      <point x="176" y="248" type="line"/>
      <point x="394" y="248" type="line"/>
      <point x="394" y="377" type="line"/>
      <point x="43" y="377" type="line"/>
    </contour>
    <contour>
      <point x="42" y="0" type="line"/>
      <point x="176" y="0" type="line"/>
      <point x="176" y="248" type="line"/>
      <point x="43" y="377" type="line"/>
      <point x="42" y="377" type="line"/>
    </contour>
    <contour>
      <point x="42" y="377" type="line"/>
      <point x="176" y="377" type="line"/>
      <point x="176" y="702" type="line"/>
      <point x="175" y="702" type="line"/>
      <point x="42" y="630" type="line"/>
    </contour>
    <contour>
      <point x="176" y="573" type="line"/>
      <point x="402" y="573" type="line"/>
      <point x="402" y="574" type="line"/>
      <point x="379" y="702" type="line"/>
      <point x="176" y="702" type="line"/>
    </contour>
  </outline>
</glyph>
<glyph name="g.color0" format="2">
  <advance width="600"/>
  <unicode hex="0067"/>
  <outline>
    <contour>
      <point x="176" y="389" type="line"/>
      <point x="503" y="389" type="line"/>
      <point x="562" y="517" type="line"/>
      <point x="562" y="518" type="line"/>
      <point x="176" y="518" type="line"/>
    </contour>
  </outline>
</glyph>
<glyph name="g.color1" format="2">
  <advance width="600"/>
  <unicode hex="0067"/>
  <outline>
    <contour>
      <point x="101" y="-203" type="line"/>
      <point x="361" y="-203" type="line"/>
      <point x="361" y="-88" type="line"/>
      <point x="42" y="-88" type="line"/>
      <point x="42" y="-89" type="line"/>
    </contour>
  </outline>
</glyph>
<glyph name="g.color2" format="2">
  <advance width="600"/>
  <unicode hex="0067"/>
  <outline>
    <contour>
      <point x="111" y="0" type="line"/>
      <point x="361" y="0" type="line"/>
      <point x="361" y="129" type="line"/>
      <point x="42" y="129" type="line"/>
      <point x="42" y="128" type="line"/>
    </contour>
  </outline>
</glyph>
<glyph name="g.color3" format="2">
  <advance width="600"/>
  <unicode hex="0067"/>
  <outline>
    <contour>
      <point x="42" y="129" type="line"/>
      <point x="176" y="129" type="line"/>
      <point x="176" y="518" type="line"/>
      <point x="175" y="518" type="line"/>
      <point x="42" y="446" type="line"/>
    </contour>
  </outline>
</glyph>
<glyph name="g.color4" format="2">
  <advance width="600"/>
  <unicode hex="0067"/>
  <outline>
    <contour>
      <point x="361" y="-203" type="line"/>
      <point x="362" y="-203" type="line"/>
      <point x="496" y="-135" type="line"/>
      <point x="496" y="389" type="line"/>
      <point x="361" y="389" type="line"/>
    </contour>
  </outline>
</glyph>
<glyph name="h.color2" format="2">
  <advance width="600"/>
  <unicode hex="0068"/>
  <outline>
    <contour>
      <point x="176" y="389" type="line"/>
      <point x="511" y="389" type="line"/>
      <point x="511" y="390" type="line"/>
      <point x="439" y="518" type="line"/>
      <point x="176" y="518" type="line"/>
    </contour>
  </outline>
</glyph>
<glyph name="h" format="2">
  <advance width="552.83333"/>
  <unicode hex="0068"/>
  <anchor x="207" y="620" name="stroke"/>
  <anchor x="355" y="518" name="top"/>
  <outline>
    <contour>
      <point x="42" y="0" type="line"/>
      <point x="176" y="0" type="line"/>
      <point x="176" y="768" type="line"/>
      <point x="42" y="768" type="line"/>
    </contour>
    <contour>
      <point x="377" y="-4" type="line"/>
      <point x="378" y="-4" type="line"/>
      <point x="511" y="33" type="line"/>
      <point x="511" y="389" type="line"/>
      <point x="377" y="389" type="line"/>
    </contour>
    <contour>
      <point x="176" y="389" type="line"/>
      <point x="511" y="389" type="line"/>
      <point x="511" y="390" type="line"/>
      <point x="439" y="518" type="line"/>
      <point x="176" y="518" type="line"/>
    </contour>
  </outline>
</glyph>
<glyph name="i.color0" format="2">
  <advance width="600"/>
  <unicode hex="0069"/>
  <outline>
    <contour>
      <point x="47" y="0" type="line"/>
      <point x="182" y="0" type="line"/>
      <point x="182" y="503" type="line"/>
      <point x="181" y="503" type="line"/>
      <point x="47" y="430" type="line"/>
    </contour>
  </outline>
</glyph>
<glyph name="i.color1" format="2">
  <advance width="600"/>
  <unicode hex="0069"/>
  <outline>
    <contour>
      <point x="47" y="500" type="line"/>
      <point x="48" y="500" type="line"/>
      <point x="182" y="572" type="line"/>
      <point x="182" y="654" type="line"/>
      <point x="47" y="654" type="line"/>
    </contour>
  </outline>
</glyph>
<glyph name="j.color0" format="2">
  <advance width="600"/>
  <unicode hex="006A"/>
  <outline>
    <contour>
      <point x="57" y="-203" type="line"/>
      <point x="58" y="-203" type="line"/>
      <point x="180" y="-131" type="line"/>
      <point x="180" y="503" type="line"/>
      <point x="179" y="503" type="line"/>
      <point x="57" y="430" type="line"/>
    </contour>
  </outline>
</glyph>
<glyph name="j.color2" format="2">
  <advance width="600"/>
  <unicode hex="006A"/>
  <outline>
    <contour>
      <point x="57" y="500" type="line"/>
      <point x="58" y="500" type="line"/>
      <point x="180" y="572" type="line"/>
      <point x="180" y="654" type="line"/>
      <point x="57" y="654" type="line"/>
    </contour>
  </outline>
</glyph>
<glyph name="j" format="2">
  <advance width="227.25"/>
  <unicode hex="006A"/>
  <outline>
    <contour>
      <point x="57" y="-203" type="line"/>
      <point x="58" y="-203" type="line"/>
      <point x="180" y="-131" type="line"/>
      <point x="180" y="503" type="line"/>
      <point x="179" y="503" type="line"/>
      <point x="57" y="430" type="line"/>
    </contour>
    <contour>
      <point x="-92" y="-203" type="line"/>
      <point x="57" y="-203" type="line"/>
      <point x="57" y="-88" type="line"/>
      <point x="-92" y="-88" type="line"/>
    </contour>
    <contour>
      <point x="57" y="500" type="line"/>
      <point x="58" y="500" type="line"/>
      <point x="180" y="572" type="line"/>
      <point x="180" y="654" type="line"/>
      <point x="57" y="654" type="line"/>
    </contour>
  </outline>
</glyph>
<glyph name="k.color0" format="2">
  <advance width="600"/>
  <unicode hex="006B"/>
  <outline>
    <contour>
      <point x="42" y="0" type="line"/>
      <point x="176" y="0" type="line"/>
      <point x="176" y="768" type="line"/>
      <point x="42" y="768" type="line"/>
    </contour>
  </outline>
</glyph>
<glyph name="k.color3" format="2">
  <advance width="600"/>
  <unicode hex="006B"/>
  <outline>
    <contour>
      <point x="315" y="389" type="line"/>
      <point x="449" y="389" type="line"/>
      <point x="449" y="636" type="line"/>
      <point x="448" y="636" type="line"/>
      <point x="315" y="564" type="line"/>
    </contour>
  </outline>
</glyph>
<glyph name="k" format="2">
  <advance width="544.41667"/>
  <unicode hex="006B"/>
  <anchor x="277" y="0" name="bottom"/>
  <outline>
    <contour>
      <point x="42" y="0" type="line"/>
      <point x="176" y="0" type="line"/>
      <point x="176" y="768" type="line"/>
      <point x="42" y="768" type="line"/>
    </contour>
    <contour>
      <point x="387" y="0" type="line"/>
      <point x="521" y="0" type="line"/>
      <point x="521" y="260" type="line"/>
      <point x="387" y="260" type="line"/>
    </contour>
    <contour>
      <point x="176" y="260" type="line"/>
      <point x="521" y="260" type="line"/>
      <point x="521" y="261" type="line"/>
      <point x="449" y="389" type="line"/>
      <point x="176" y="389" type="line"/>
    </contour>
    <contour>
      <point x="315" y="389" type="line"/>
      <point x="449" y="389" type="line"/>
      <point x="449" y="636" type="line"/>
      <point x="448" y="636" type="line"/>
      <point x="315" y="564" type="line"/>
    </contour>
  </outline>
</glyph>
<glyph name="l.color0" format="2">
  <advance width="600"/>
  <unicode hex="006C"/>
  <outline>
    <contour>
      <point x="175" y="0" type="line"/>
      <point x="176" y="0" type="line"/>
      <point x="176" y="768" type="line"/>
      <point x="42" y="768" type="line"/>
      <point x="42" y="72" type="line"/>
    </contour>
  </outline>
</glyph>
<glyph name="l.color1" format="2">
  <advance width="600"/>
  <unicode hex="006C"/>
  <outline>
    <contour>
      <point x="176" y="0" type="line"/>
      <point x="325" y="0" type="line"/>
      <point x="325" y="129" type="line"/>
      <point x="176" y="129" type="line"/>
    </contour>
  </outline>
</glyph>
<glyph name="l" format="2">
  <advance width="346.83333"/>
  <unicode hex="006C"/>
  <anchor x="190" y="0" name="bottom"/>
  <anchor x="118" y="768" name="top"/>
  <outline>
    <contour>
      <point x="175" y="0" type="line"/>
      <point x="176" y="0" type="line"/>
      <point x="176" y="768" type="line"/>
      <point x="42" y="768" type="line"/>
      <point x="42" y="72" type="line"/>
    </contour>
    <contour>
      <point x="176" y="0" type="line"/>
      <point x="325" y="0" type="line"/>
      <point x="325" y="129" type="line"/>
      <point x="176" y="129" type="line"/>
    </contour>
  </outline>
</glyph>
<glyph name="m.color1" format="2">
  <advance width="600"/>
  <unicode hex="006D"/>
  <outline>
    <contour>
      <point x="342" y="0" type="line"/>
      <point x="465" y="0" type="line"/>
      <point x="465" y="389" type="line"/>
      <point x="342" y="389" type="line"/>
    </contour>
  </outline>
</glyph>
<glyph name="m.color2" format="2">
  <advance width="600"/>
  <unicode hex="006D"/>
  <outline>
    <contour>
      <point x="176" y="389" type="line"/>
      <point x="465" y="389" type="line"/>
      <point x="465" y="390" type="line"/>
      <point x="417" y="518" type="line"/>
      <point x="176" y="518" type="line"/>
    </contour>
  </outline>
</glyph>
<glyph name="m.color3" format="2">
  <advance width="600"/>
  <unicode hex="006D"/>
  <outline>
    <contour>
      <point x="630" y="-4" type="line"/>
      <point x="631" y="-4" type="line"/>
      <point x="766" y="33" type="line"/>
      <point x="766" y="389" type="line"/>
      <point x="630" y="389" type="line"/>
    </contour>
  </outline>
</glyph>
<glyph name="m.color4" format="2">
  <advance width="600"/>
  <unicode hex="006D"/>
  <outline>
    <contour>
      <point x="465" y="389" type="line"/>
      <point x="766" y="389" type="line"/>
      <point x="766" y="390" type="line"/>
      <point x="694" y="518" type="line"/>
      <point x="465" y="518" type="line"/>
    </contour>
  </outline>
</glyph>
<glyph name="m" format="2">
  <advance width="806.66667"/>
  <unicode hex="006D"/>
  <outline>
    <contour>
      <point x="42" y="0" type="line"/>
      <point x="176" y="0" type="line"/>
      <point x="176" y="518" type="line"/>
      <point x="175" y="518" type="line"/>
      <point x="42" y="446" type="line"/>
    </contour>
    <contour>
      <point x="342" y="0" type="line"/>
      <point x="465" y="0" type="line"/>
      <point x="465" y="389" type="line"/>
      <point x="342" y="389" type="line"/>
    </contour>
    <contour>
      <point x="176" y="389" type="line"/>
      <point x="465" y="389" type="line"/>
      <point x="465" y="390" type="line"/>
      <point x="417" y="518" type="line"/>
      <point x="176" y="518" type="line"/>
    </contour>
    <contour>
      <point x="630" y="-4" type="line"/>
      <point x="631" y="-4" type="line"/>
      <point x="766" y="33" type="line"/>
      <point x="766" y="389" type="line"/>
      <point x="630" y="389" type="line"/>
    </contour>
    <contour>
      <point x="465" y="389" type="line"/>
      <point x="766" y="389" type="line"/>
      <point x="766" y="390" type="line"/>
      <point x="694" y="518" type="line"/>
      <point x="465" y="518" type="line"/>
    </contour>
  </outline>
</glyph>
<glyph name="n.color0" format="2">
  <advance width="600"/>
  <unicode hex="006E"/>
  <outline>
    <contour>
      <point x="42" y="0" type="line"/>
      <point x="176" y="0" type="line"/>
      <point x="176" y="518" type="line"/>
      <point x="175" y="518" type="line"/>
      <point x="42" y="446" type="line"/>
    </contour>
  </outline>
</glyph>
<glyph name="n" format="2">
  <advance width="553.25"/>
  <unicode hex="006E"/>
  <anchor x="284" y="0" name="bottom"/>
  <anchor x="303" y="518" name="top"/>
  <outline>
    <contour>
      <point x="42" y="0" type="line"/>
      <point x="176" y="0" type="line"/>
      <point x="176" y="518" type="line"/>
      <point x="175" y="518" type="line"/>
      <point x="42" y="446" type="line"/>
    </contour>
    <contour>
      <point x="377" y="-4" type="line"/>
      <point x="378" y="-4" type="line"/>
      <point x="512" y="33" type="line"/>
      <point x="512" y="389" type="line"/>
      <point x="377" y="389" type="line"/>
    </contour>
    <contour>
      <point x="176" y="389" type="line"/>
      <point x="512" y="389" type="line"/>
      <point x="512" y="390" type="line"/>
      <point x="440" y="518" type="line"/>
      <point x="176" y="518" type="line"/>
    </contour>
  </outline>
</glyph>
<glyph name="p.color0" format="2">
  <advance width="600"/>
  <unicode hex="0070"/>
  <outline>
    <contour>
      <point x="176" y="389" type="line"/>
      <point x="512" y="389" type="line"/>
      <point x="512" y="390" type="line"/>
      <point x="443" y="518" type="line"/>
      <point x="176" y="518" type="line"/>
    </contour>
  </outline>
</glyph>
<glyph name="p" format="2">
  <advance width="553.41667"/>
  <unicode hex="0070"/>
  <outline>
    <contour>
      <point x="176" y="389" type="line"/>
      <point x="512" y="389" type="line"/>
      <point x="512" y="390" type="line"/>
      <point x="443" y="518" type="line"/>
      <point x="176" y="518" type="line"/>
    </contour>
    <contour>
      <point x="42" y="-200" type="line"/>
      <point x="176" y="-200" type="line"/>
      <point x="176" y="0" type="line"/>
      <point x="43" y="128" type="line"/>
      <point x="42" y="128" type="line"/>
    </contour>
    <contour>
      <point x="146" y="0" type="line"/>
      <point x="378" y="0" type="line"/>
      <point x="378" y="129" type="line"/>
      <point x="42" y="129" type="line"/>
      <point x="42" y="128" type="line"/>
    </contour>
    <contour>
      <point x="42" y="129" type="line"/>
      <point x="176" y="129" type="line"/>
      <point x="176" y="518" type="line"/>
      <point x="175" y="518" type="line"/>
      <point x="42" y="446" type="line"/>
    </contour>
    <contour>
      <point x="378" y="0" type="line"/>
      <point x="379" y="0" type="line"/>
      <point x="512" y="72" type="line"/>
      <point x="512" y="389" type="line"/>
      <point x="378" y="389" type="line"/>
    </contour>
  </outline>
</glyph>
<glyph name="q.color0" format="2">
  <advance width="600"/>
  <unicode hex="0071"/>
  <outline>
    <contour>
      <point x="378" y="-200" type="line"/>
      <point x="512" y="-200" type="line"/>
      <point x="512" y="389" type="line"/>
      <point x="378" y="389" type="line"/>
      <point x="378" y="198" type="line"/>
    </contour>
  </outline>
</glyph>
<glyph name="q" format="2">
  <advance width="553.41667"/>
  <unicode hex="0071"/>
  <outline>
    <contour>
      <point x="378" y="-200" type="line"/>
      <point x="512" y="-200" type="line"/>
      <point x="512" y="389" type="line"/>
      <point x="378" y="389" type="line"/>
      <point x="378" y="198" type="line"/>
    </contour>
    <contour>
      <point x="111" y="0" type="line"/>
      <point x="378" y="0" type="line"/>
      <point x="378" y="129" type="line"/>
      <point x="42" y="129" type="line"/>
      <point x="42" y="128" type="line"/>
    </contour>
    <contour>
      <point x="42" y="129" type="line"/>
      <point x="176" y="129" type="line"/>
      <point x="176" y="518" type="line"/>
      <point x="175" y="518" type="line"/>
      <point x="42" y="446" type="line"/>
    </contour>
    <contour>
      <point x="176" y="389" type="line"/>
      <point x="512" y="389" type="line"/>
      <point x="512" y="390" type="line"/>
      <point x="443" y="518" type="line"/>
      <point x="176" y="518" type="line"/>
    </contour>
  </outline>
</glyph>
<glyph name="r" format="2">
  <advance width="418.91667"/>
  <unicode hex="0072"/>
  <anchor x="104" y="0" name="bottom"/>
  <anchor x="241" y="518" name="top"/>
  <outline>
    <contour>
      <point x="42" y="0" type="line"/>
      <point x="176" y="0" type="line"/>
      <point x="176" y="518" type="line"/>
      <point x="175" y="518" type="line"/>
      <point x="42" y="446" type="line"/>
    </contour>
    <contour>
      <point x="176" y="389" type="line"/>
      <point x="413" y="389" type="line"/>
      <point x="413" y="390" type="line"/>
      <point x="341" y="518" type="line"/>
      <point x="176" y="518" type="line"/>
    </contour>
  </outline>
</glyph>
<glyph name="s.color0" format="2">
  <advance width="600"/>
  <unicode hex="0073"/>
  <outline>
    <contour>
      <point x="112" y="403" type="line"/>
      <point x="429" y="403" type="line"/>
      <point x="429" y="404" type="line"/>
      <point x="357" y="518" type="line"/>
      <point x="96" y="518" type="line"/>
    </contour>
  </outline>
</glyph>
<glyph name="t" format="2">
  <advance width="420.75"/>
  <unicode hex="0074"/>
  <anchor x="238" y="0" name="bottom"/>
  <anchor x="126" y="743" name="top"/>
  <outline>
    <contour>
      <point x="42" y="389" type="line"/>
      <point x="43" y="389" type="line"/>
      <point x="176" y="518" type="line"/>
      <point x="176" y="690" type="line"/>
      <point x="42" y="690" type="line"/>
    </contour>
    <contour>
      <point x="43" y="389" type="line"/>
      <point x="347" y="389" type="line"/>
      <point x="347" y="518" type="line"/>
      <point x="176" y="518" type="line"/>
    </contour>
    <contour>
      <point x="175" y="0" type="line"/>
      <point x="176" y="0" type="line"/>
      <point x="176" y="389" type="line"/>
      <point x="42" y="389" type="line"/>
      <point x="42" y="72" type="line"/>
    </contour>
    <contour>
      <point x="176" y="0" type="line"/>
      <point x="398" y="0" type="line"/>
      <point x="421" y="128" type="line"/>
      <point x="421" y="129" type="line"/>
      <point x="176" y="129" type="line"/>
    </contour>
  </outline>
</glyph>
<glyph name="u.color1" format="2">
  <advance width="600"/>
  <unicode hex="0075"/>
  <outline>
    <contour>
      <point x="114" y="0" type="line"/>
      <point x="377" y="0" type="line"/>
      <point x="377" y="129" type="line"/>
      <point x="42" y="129" type="line"/>
      <point x="42" y="128" type="line"/>
    </contour>
  </outline>
</glyph>
<glyph name="v.color0" format="2">
  <advance width="600"/>
  <unicode hex="0076"/>
  <outline>
    <contour>
      <point x="360" y="0" type="line"/>
      <point x="361" y="0" type="line"/>
      <point x="494" y="128" type="line"/>
      <point x="494" y="518" type="line"/>
      <point x="360" y="518" type="line"/>
    </contour>
  </outline>
</glyph>
<glyph name="v.color2" format="2">
  <advance width="600"/>
  <unicode hex="0076"/>
  <outline>
    <contour>
      <point x="42" y="129" type="line"/>
      <point x="176" y="129" type="line"/>
      <point x="176" y="519" type="line"/>
      <point x="175" y="519" type="line"/>
      <point x="42" y="509" type="line"/>
    </contour>
  </outline>
</glyph>
<glyph name="v" format="2">
  <advance width="535.33333"/>
  <unicode hex="0076"/>
  <outline>
    <contour>
      <point x="360" y="0" type="line"/>
      <point x="361" y="0" type="line"/>
      <point x="494" y="128" type="line"/>
      <point x="494" y="518" type="line"/>
      <point x="360" y="518" type="line"/>
    </contour>
    <contour>
      <point x="90" y="0" type="line"/>
      <point x="360" y="0" type="line"/>
      <point x="360" y="129" type="line"/>
      <point x="42" y="129" type="line"/>
      <point x="42" y="128" type="line"/>
    </contour>
    <contour>
      <point x="42" y="129" type="line"/>
      <point x="176" y="129" type="line"/>
      <point x="176" y="519" type="line"/>
      <point x="175" y="519" type="line"/>
      <point x="42" y="509" type="line"/>
    </contour>
  </outline>
</glyph>
<glyph name="w.color2" format="2">
  <advance width="600"/>
  <unicode hex="0077"/>
  <outline>
    <contour>
      <point x="42" y="129" type="line"/>
      <point x="176" y="129" type="line"/>
      <point x="176" y="524" type="line"/>
      <point x="175" y="524" type="line"/>
      <point x="42" y="487" type="line"/>
    </contour>
  </outline>
</glyph>
<glyph name="w" format="2">
  <advance width="806.66667"/>
  <unicode hex="0077"/>
  <anchor x="409" y="518" name="top"/>
  <outline>
    <contour>
      <point x="630" y="0" type="line"/>
      <point x="631" y="0" type="line"/>
      <point x="766" y="129" type="line"/>
      <point x="766" y="518" type="line"/>
      <point x="630" y="518" type="line"/>
    </contour>
    <contour>
      <point x="114" y="0" type="line"/>
      <point x="342" y="0" type="line"/>
      <point x="342" y="129" type="line"/>
      <point x="42" y="129" type="line"/>
      <point x="42" y="128" type="line"/>
    </contour>
    <contour>
      <point x="42" y="129" type="line"/>
      <point x="176" y="129" type="line"/>
      <point x="176" y="524" type="line"/>
      <point x="175" y="524" type="line"/>
      <point x="42" y="487" type="line"/>
    </contour>
    <contour>
      <point x="391" y="0" type="line"/>
      <point x="630" y="0" type="line"/>
      <point x="630" y="129" type="line"/>
      <point x="342" y="129" type="line"/>
      <point x="342" y="128" type="line"/>
    </contour>
    <contour>
      <point x="342" y="129" type="line"/>
      <point x="465" y="129" type="line"/>
      <point x="465" y="520" type="line"/>
      <point x="464" y="520" type="line"/>
      <point x="342" y="510" type="line"/>
    </contour>
  </outline>
</glyph>
<glyph name="x.color0" format="2">
  <advance width="600"/>
  <unicode hex="0078"/>
  <outline>
    <contour>
      <point x="190" y="259" type="line"/>
      <point x="191" y="259" type="line"/>
      <point x="289" y="328" type="line"/>
      <point x="173" y="518" type="line"/>
      <point x="9" y="518" type="line"/>
      <point x="9" y="517" type="line"/>
    </contour>
  </outline>
</glyph>
<glyph name="x.color1" format="2">
  <advance width="600"/>
  <unicode hex="0078"/>
  <outline>
    <contour>
      <point x="364" y="0" type="line"/>
      <point x="528" y="0" type="line"/>
      <point x="528" y="1" type="line"/>
      <point x="343" y="259" type="line"/>
      <point x="342" y="259" type="line"/>
      <point x="250" y="190" type="line"/>
    </contour>
  </outline>
</glyph>
<glyph name="x.color2" format="2">
  <advance width="600"/>
  <unicode hex="0078"/>
  <outline>
    <contour>
      <point x="12" y="0" type="line"/>
      <point x="164" y="0" type="line"/>
      <point x="342" y="259" type="line"/>
      <point x="190" y="259" type="line"/>
      <point x="12" y="1" type="line"/>
    </contour>
  </outline>
</glyph>
<glyph name="x.color3" format="2">
  <advance width="600"/>
  <unicode hex="0078"/>
  <outline>
    <contour>
      <point x="191" y="259" type="line"/>
      <point x="343" y="259" type="line"/>
      <point x="520" y="517" type="line"/>
      <point x="520" y="518" type="line"/>
      <point x="369" y="518" type="line"/>
    </contour>
  </outline>
</glyph>
<glyph name="x" format="2">
  <advance width="537.33333"/>
  <unicode hex="0078"/>
  <outline>
    <contour>
      <point x="190" y="259" type="line"/>
      <point x="191" y="259" type="line"/>
      <point x="289" y="328" type="line"/>
      <point x="173" y="518" type="line"/>
      <point x="9" y="518" type="line"/>
      <point x="9" y="517" type="line"/>
    </contour>
    <contour>
      <point x="364" y="0" type="line"/>
      <point x="528" y="0" type="line"/>
      <point x="528" y="1" type="line"/>
      <point x="343" y="259" type="line"/>
      <point x="342" y="259" type="line"/>
      <point x="250" y="190" type="line"/>
    </contour>
    <contour>
      <point x="12" y="0" type="line"/>
      <point x="164" y="0" type="line"/>
      <point x="342" y="259" type="line"/>
      <point x="190" y="259" type="line"/>
      <point x="12" y="1" type="line"/>
    </contour>
    <contour>
      <point x="191" y="259" type="line"/>
      <point x="343" y="259" type="line"/>
      <point x="520" y="517" type="line"/>
      <point x="520" y="518" type="line"/>
      <point x="369" y="518" type="line"/>
    </contour>
  </outline>
</glyph>
<glyph name="y.color2" format="2">
  <advance width="600"/>
  <unicode hex="0079"/>
  <outline>
    <contour>
      <point x="114" y="0" type="line"/>
      <point x="361" y="0" type="line"/>
      <point x="361" y="129" type="line"/>
      <point x="42" y="129" type="line"/>
      <point x="42" y="128" type="line"/>
    </contour>
  </outline>
</glyph>
<glyph name="z.color0" format="2">
  <advance width="600"/>
  <unicode hex="007A"/>
  <outline>
    <contour>
      <point x="30" y="403" type="line"/>
      <point x="429" y="403" type="line"/>
      <point x="445" y="518" type="line"/>
      <point x="93" y="518" type="line"/>
      <point x="30" y="404" type="line"/>
    </contour>
  </outline>
</glyph>
<glyph name="z.color1" format="2">
  <advance width="600"/>
  <unicode hex="007A"/>
  <outline>
    <contour>
      <point x="179" y="97" type="line"/>
      <point x="507" y="408" type="line"/>
      <point x="445" y="518" type="line"/>
      <point x="27" y="116" type="line"/>
      <point x="27" y="115" type="line"/>
    </contour>
  </outline>
</glyph>
<glyph name="z.color2" format="2">
  <advance width="600"/>
  <unicode hex="007A"/>
  <outline>
    <contour>
      <point x="99" y="0" type="line"/>
      <point x="504" y="0" type="line"/>
      <point x="504" y="115" type="line"/>
      <point x="27" y="115" type="line"/>
    </contour>
  </outline>
</glyph>
<glyph name="z" format="2">
  <advance width="534.25"/>
  <unicode hex="007A"/>
  <anchor x="279" y="518" name="top"/>
  <outline>
    <contour>
      <point x="30" y="403" type="line"/>
      <point x="429" y="403" type="line"/>
      <point x="445" y="518" type="line"/>
      <point x="93" y="518" type="line"/>
      <point x="30" y="404" type="line"/>
    </contour>
    <contour>
      <point x="179" y="97" type="line"/>
      <point x="507" y="408" type="line"/>
      <point x="445" y="518" type="line"/>
      <point x="27" y="116" type="line"/>
      <point x="27" y="115" type="line"/>
    </contour>
    <contour>
      <point x="99" y="0" type="line"/>
      <point x="504" y="0" type="line"/>
      <point x="504" y="115" type="line"/>
      <point x="27" y="115" type="line"/>
    </contour>
  </outline>
</glyph>
<glyph name="braceleft.color0" format="2">
  <advance width="600"/>
  <unicode hex="007B"/>
  <outline>
    <contour>
      <point x="297" y="-100" type="line"/>
      <point x="457" y="-100" type="line"/>
      <point x="457" y="29" type="line"/>
      <point x="297" y="29" type="line"/>
    </contour>
  </outline>
</glyph>
<glyph name="braceleft.color1" format="2">
  <advance width="600"/>
  <unicode hex="007B"/>
  <outline>
    <contour>
      <point x="54" y="247" type="line"/>
      <point x="161" y="247" type="line"/>
      <point x="161" y="376" type="line"/>
      <point x="54" y="376" type="line"/>
    </contour>
  </outline>
</glyph>
<glyph name="braceleft.color2" format="2">
  <advance width="600"/>
  <unicode hex="007B"/>
  <outline>
    <contour>
      <point x="297" y="589" type="line"/>
      <point x="457" y="589" type="line"/>
      <point x="457" y="718" type="line"/>
      <point x="297" y="718" type="line"/>
    </contour>
  </outline>
</glyph>
<glyph name="braceleft.color3" format="2">
  <advance width="600"/>
  <unicode hex="007B"/>
  <outline>
    <contour>
      <point x="161" y="-90" type="line"/>
      <point x="297" y="-100" type="line"/>
      <point x="297" y="253" type="line"/>
      <point x="162" y="375" type="line"/>
      <point x="161" y="375" type="line"/>
    </contour>
  </outline>
</glyph>
<glyph name="braceleft.color4" format="2">
  <advance width="600"/>
  <unicode hex="007B"/>
  <outline>
    <contour>
      <point x="161" y="247" type="line"/>
      <point x="162" y="247" type="line"/>
      <point x="297" y="368" type="line"/>
      <point x="297" y="718" type="line"/>
      <point x="161" y="708" type="line"/>
    </contour>
  </outline>
</glyph>
<glyph name="braceleft" format="2">
  <advance width="489.08333"/>
  <unicode hex="007B"/>
  <outline>
    <contour>
      <point x="297" y="-100" type="line"/>
      <point x="457" y="-100" type="line"/>
      <point x="457" y="29" type="line"/>
      <point x="297" y="29" type="line"/>
    </contour>
    <contour>
      <point x="54" y="247" type="line"/>
      <point x="161" y="247" type="line"/>
      <point x="161" y="376" type="line"/>
      <point x="54" y="376" type="line"/>
    </contour>
    <contour>
      <point x="297" y="589" type="line"/>
      <point x="457" y="589" type="line"/>
      <point x="457" y="718" type="line"/>
      <point x="297" y="718" type="line"/>
    </contour>
    <contour>
      <point x="161" y="-90" type="line"/>
      <point x="297" y="-100" type="line"/>
      <point x="297" y="253" type="line"/>
      <point x="162" y="375" type="line"/>
      <point x="161" y="375" type="line"/>
    </contour>
    <contour>
      <point x="161" y="247" type="line"/>
      <point x="162" y="247" type="line"/>
      <point x="297" y="368" type="line"/>
      <point x="297" y="718" type="line"/>
      <point x="161" y="708" type="line"/>
    </contour>
  </outline>
</glyph>
<glyph name="bar" format="2">
  <advance width="211"/>
  <unicode hex="007C"/>
  <outline>
    <contour>
      <point x="43" y="-100" type="line"/>
      <point x="168" y="-100" type="line"/>
      <point x="168" y="793" type="line"/>
      <point x="43" y="793" type="line"/>
    </contour>
  </outline>
</glyph>
<glyph name="braceright.color0" format="2">
  <advance width="600"/>
  <unicode hex="007D"/>
  <outline>
    <contour>
      <point x="336" y="243" type="line"/>
      <point x="337" y="243" type="line"/>
      <point x="337" y="708" type="line"/>
      <point x="201" y="718" type="line"/>
      <point x="201" y="365" type="line"/>
    </contour>
  </outline>
</glyph>
<glyph name="braceright.color1" format="2">
  <advance width="600"/>
  <unicode hex="007D"/>
  <outline>
    <contour>
      <point x="41" y="-100" type="line"/>
      <point x="201" y="-100" type="line"/>
      <point x="201" y="29" type="line"/>
      <point x="41" y="29" type="line"/>
    </contour>
  </outline>
</glyph>
<glyph name="braceright.color2" format="2">
  <advance width="600"/>
  <unicode hex="007D"/>
  <outline>
    <contour>
      <point x="41" y="589" type="line"/>
      <point x="201" y="589" type="line"/>
      <point x="201" y="718" type="line"/>
      <point x="41" y="718" type="line"/>
    </contour>
  </outline>
</glyph>
<glyph name="braceright.color3" format="2">
  <advance width="600"/>
  <unicode hex="007D"/>
  <outline>
    <contour>
      <point x="337" y="242" type="line"/>
      <point x="444" y="242" type="line"/>
      <point x="444" y="371" type="line"/>
      <point x="337" y="371" type="line"/>
    </contour>
  </outline>
</glyph>
<glyph name="braceright.color4" format="2">
  <advance width="600"/>
  <unicode hex="007D"/>
  <outline>
    <contour>
      <point x="201" y="-100" type="line"/>
      <point x="337" y="-90" type="line"/>
      <point x="337" y="371" type="line"/>
      <point x="336" y="371" type="line"/>
      <point x="201" y="250" type="line"/>
    </contour>
  </outline>
</glyph>
<glyph name="braceright" format="2">
  <advance width="497.41667"/>
  <unicode hex="007D"/>
  <outline>
    <contour>
      <point x="336" y="243" type="line"/>
      <point x="337" y="243" type="line"/>
      <point x="337" y="708" type="line"/>
      <point x="201" y="718" type="line"/>
      <point x="201" y="365" type="line"/>
    </contour>
    <contour>
      <point x="41" y="-100" type="line"/>
      <point x="201" y="-100" type="line"/>
      <point x="201" y="29" type="line"/>
      <point x="41" y="29" type="line"/>
    </contour>
    <contour>
      <point x="41" y="589" type="line"/>
      <point x="201" y="589" type="line"/>
      <point x="201" y="718" type="line"/>
      <point x="41" y="718" type="line"/>
    </contour>
    <contour>
      <point x="337" y="242" type="line"/>
      <point x="444" y="242" type="line"/>
      <point x="444" y="371" type="line"/>
      <point x="337" y="371" type="line"/>
    </contour>
    <contour>
      <point x="201" y="-100" type="line"/>
      <point x="337" y="-90" type="line"/>
      <point x="337" y="371" type="line"/>
      <point x="336" y="371" type="line"/>
      <point x="201" y="250" type="line"/>
    </contour>
  </outline>
</glyph>
<glyph name="asciitilde.color0" format="2">
  <advance width="600"/>
  <unicode hex="007E"/>
  <outline>
    <contour>
      <point x="37" y="240" type="line"/>
      <point x="148" y="240" type="line"/>
      <point x="148" y="481" type="line"/>
      <point x="37" y="438" type="line"/>
    </contour>
  </outline>
</glyph>
<glyph name="asciitilde.color1" format="2">
  <advance width="600"/>
  <unicode hex="007E"/>
  <outline>
    <contour>
      <point x="399" y="278" type="line"/>
      <point x="511" y="277" type="line"/>
      <point x="511" y="473" type="line"/>
      <point x="399" y="473" type="line"/>
    </contour>
  </outline>
</glyph>
<glyph name="asciitilde.color2" format="2">
  <advance width="600"/>
  <unicode hex="007E"/>
  <outline>
    <contour>
      <point x="405" y="222" type="line"/>
      <point x="406" y="222" type="line"/>
      <point x="511" y="277" type="line"/>
      <point x="511" y="278" type="line"/>
      <point x="149" y="481" type="line"/>
      <point x="148" y="481" type="line"/>
      <point x="37" y="439" type="line"/>
      <point x="37" y="438" type="line"/>
    </contour>
  </outline>
</glyph>
<glyph name="asciitilde" format="2">
  <advance width="547.16667"/>
  <unicode hex="007E"/>
  <outline>
    <contour>
      <point x="37" y="240" type="line"/>
      <point x="148" y="240" type="line"/>
      <point x="148" y="481" type="line"/>
      <point x="37" y="438" type="line"/>
    </contour>
    <contour>
      <point x="399" y="278" type="line"/>
      <point x="511" y="277" type="line"/>
      <point x="511" y="473" type="line"/>
      <point x="399" y="473" type="line"/>
    </contour>
    <contour>
      <point x="405" y="222" type="line"/>
      <point x="406" y="222" type="line"/>
      <point x="511" y="277" type="line"/>
      <point x="511" y="278" type="line"/>
      <point x="149" y="481" type="line"/>
      <point x="148" y="481" type="line"/>
      <point x="37" y="439" type="line"/>
      <point x="37" y="438" type="line"/>
    </contour>
  </outline>
</glyph>
<glyph name="exclamdown.color1" format="2">
  <advance width="600"/>
  <unicode hex="00A1"/>
  <outline>
    <contour>
      <point x="43" y="559" type="line"/>
      <point x="191" y="559" type="line"/>
      <point x="191" y="688" type="line"/>
      <point x="43" y="688" type="line"/>
    </contour>
  </outline>
</glyph>
<glyph name="exclamdown" format="2">
  <advance width="233.25"/>
  <unicode hex="00A1"/>
  <outline>
    <contour>
      <point x="49" y="-34" type="line"/>
      <point x="50" y="-34" type="line"/>
      <point x="185" y="38" type="line"/>
      <point x="185" y="485" type="line"/>
      <point x="49" y="485" type="line"/>
    </contour>
    <contour>
      <point x="43" y="559" type="line"/>
      <point x="191" y="559" type="line"/>
      <point x="191" y="688" type="line"/>
      <point x="43" y="688" type="line"/>
    </contour>
  </outline>
</glyph>
<glyph name="cent.color0" format="2">
  <advance width="600"/>
  <unicode hex="00A2"/>
  <outline>
    <contour>
      <point x="232" y="481" type="line"/>
      <point x="366" y="481" type="line"/>
      <point x="366" y="570" type="line"/>
      <point x="364" y="570" type="line"/>
      <point x="231" y="547" type="line"/>
    </contour>
  </outline>
</glyph>
<glyph name="cent.color1" format="2">
  <advance width="600"/>
  <unicode hex="00A2"/>
  <outline>
    <contour>
      <point x="232" y="-54" type="line"/>
      <point x="234" y="-54" type="line"/>
      <point x="366" y="-31" type="line"/>
      <point x="366" y="27" type="line"/>
      <point x="232" y="27" type="line"/>
    </contour>
  </outline>
</glyph>
<glyph name="cent.color2" format="2">
  <advance width="600"/>
  <unicode hex="00A2"/>
  <outline>
    <contour>
      <point x="113" y="0" type="line"/>
      <point x="418" y="0" type="line"/>
      <point x="490" y="128" type="line"/>
      <point x="490" y="129" type="line"/>
      <point x="41" y="129" type="line"/>
      <point x="41" y="128" type="line"/>
    </contour>
  </outline>
</glyph>
<glyph name="cent.color3" format="2">
  <advance width="600"/>
  <unicode hex="00A2"/>
  <outline>
    <contour>
      <point x="41" y="129" type="line"/>
      <point x="176" y="129" type="line"/>
      <point x="176" y="518" type="line"/>
      <point x="175" y="518" type="line"/>
      <point x="41" y="446" type="line"/>
    </contour>
  </outline>
</glyph>
<glyph name="cent.color4" format="2">
  <advance width="600"/>
  <unicode hex="00A2"/>
  <outline>
    <contour>
      <point x="176" y="389" type="line"/>
      <point x="494" y="389" type="line"/>
      <point x="494" y="390" type="line"/>
      <point x="422" y="518" type="line"/>
      <point x="176" y="518" type="line"/>
    </contour>
  </outline>
</glyph>
<glyph name="cent" format="2">
  <advance width="532"/>
  <unicode hex="00A2"/>
  <outline>
    <contour>
      <point x="232" y="481" type="line"/>
      <point x="366" y="481" type="line"/>
      <point x="366" y="570" type="line"/>
      <point x="364" y="570" type="line"/>
      <point x="231" y="547" type="line"/>
    </contour>
    <contour>
      <point x="232" y="-54" type="line"/>
      <point x="234" y="-54" type="line"/>
      <point x="366" y="-31" type="line"/>
      <point x="366" y="27" type="line"/>
      <point x="232" y="27" type="line"/>
    </contour>
    <component base="c" xOffset="-3"/>
  </outline>
</glyph>
<glyph name="sterling.color0" format="2">
  <advance width="600"/>
  <unicode hex="00A3"/>
  <outline>
    <contour>
      <point x="43" y="0" type="line"/>
      <point x="671" y="0" type="line"/>
      <point x="671" y="129" type="line"/>
      <point x="43" y="129" type="line"/>
    </contour>
  </outline>
</glyph>
<glyph name="sterling.color1" format="2">
  <advance width="600"/>
  <unicode hex="00A3"/>
  <outline>
    <contour>
      <point x="63" y="308" type="line"/>
      <point x="611" y="309" type="line"/>
      <point x="611" y="437" type="line"/>
      <point x="63" y="436" type="line"/>
    </contour>
  </outline>
</glyph>
<glyph name="sterling.color2" format="2">
  <advance width="600"/>
  <unicode hex="00A3"/>
  <outline>
    <contour>
      <point x="122" y="129" type="line"/>
      <point x="256" y="129" type="line"/>
      <point x="257" y="718" type="line"/>
      <point x="256" y="718" type="line"/>
      <point x="122" y="587" type="line"/>
    </contour>
  </outline>
</glyph>
<glyph name="sterling.color3" format="2">
  <advance width="600"/>
  <unicode hex="00A3"/>
  <outline>
    <contour>
      <point x="257" y="589" type="line"/>
      <point x="659" y="589" type="line"/>
      <point x="659" y="590" type="line"/>
      <point x="531" y="718" type="line"/>
      <point x="257" y="718" type="line"/>
    </contour>
  </outline>
</glyph>
<glyph name="sterling" format="2">
  <advance width="712.83333"/>
  <unicode hex="00A3"/>
  <outline>
    <contour>
      <point x="43" y="0" type="line"/>
      <point x="671" y="0" type="line"/>
      <point x="671" y="129" type="line"/>
      <point x="43" y="129" type="line"/>
    </contour>
    <contour>
      <point x="63" y="308" type="line"/>
      <point x="611" y="309" type="line"/>
      <point x="611" y="437" type="line"/>
      <point x="63" y="436" type="line"/>
    </contour>
    <contour>
      <point x="122" y="129" type="line"/>
      <point x="256" y="129" type="line"/>
      <point x="257" y="718" type="line"/>
      <point x="256" y="718" type="line"/>
      <point x="122" y="587" type="line"/>
    </contour>
    <contour>
      <point x="257" y="589" type="line"/>
      <point x="659" y="589" type="line"/>
      <point x="659" y="590" type="line"/>
      <point x="531" y="718" type="line"/>
      <point x="257" y="718" type="line"/>
    </contour>
  </outline>
</glyph>
<glyph name="currency.color0" format="2">
  <advance width="600"/>
  <unicode hex="00A4"/>
  <outline>
    <contour>
      <point x="264" y="439" type="line"/>
      <point x="629" y="439" type="line"/>
      <point x="546" y="568" type="line"/>
      <point x="264" y="568" type="line"/>
    </contour>
  </outline>
</glyph>
<glyph name="currency.color1" format="2">
  <advance width="600"/>
  <unicode hex="00A4"/>
  <outline>
    <contour>
      <point x="115" y="79" type="line"/>
      <point x="214" y="150" type="line"/>
      <point x="129" y="279" type="line"/>
      <point x="32" y="207" type="line"/>
    </contour>
  </outline>
</glyph>
<glyph name="currency.color2" format="2">
  <advance width="600"/>
  <unicode hex="00A4"/>
  <outline>
    <contour>
      <point x="214" y="150" type="line"/>
      <point x="495" y="150" type="line"/>
      <point x="495" y="279" type="line"/>
      <point x="129" y="279" type="line"/>
    </contour>
  </outline>
</glyph>
<glyph name="currency.color4" format="2">
  <advance width="600"/>
  <unicode hex="00A4"/>
  <outline>
    <contour>
      <point x="129" y="485" type="line"/>
      <point x="264" y="568" type="line"/>
      <point x="196" y="663" type="line"/>
      <point x="60" y="580" type="line"/>
    </contour>
  </outline>
</glyph>
<glyph name="currency.color5" format="2">
  <advance width="600"/>
  <unicode hex="00A4"/>
  <outline>
    <contour>
      <point x="564" y="55" type="line"/>
      <point x="699" y="138" type="line"/>
      <point x="629" y="234" type="line"/>
      <point x="495" y="150" type="line"/>
    </contour>
  </outline>
</glyph>
<glyph name="currency.color6" format="2">
  <advance width="600"/>
  <unicode hex="00A4"/>
  <outline>
    <contour>
      <point x="495" y="150" type="line"/>
      <point x="629" y="234" type="line"/>
      <point x="629" y="439" type="line"/>
      <point x="495" y="439" type="line"/>
    </contour>
  </outline>
</glyph>
<glyph name="currency.color7" format="2">
  <advance width="600"/>
  <unicode hex="00A4"/>
  <outline>
    <contour>
      <point x="629" y="439" type="line"/>
      <point x="728" y="510" type="line"/>
      <point x="644" y="639" type="line"/>
      <point x="546" y="568" type="line"/>
    </contour>
  </outline>
</glyph>
<glyph name="currency" format="2">
  <advance width="758.25"/>
  <unicode hex="00A4"/>
  <outline>
    <contour>
      <point x="264" y="439" type="line"/>
      <point x="629" y="439" type="line"/>
      <point x="546" y="568" type="line"/>
      <point x="264" y="568" type="line"/>
    </contour>
    <contour>
      <point x="115" y="79" type="line"/>
      <point x="214" y="150" type="line"/>
      <point x="129" y="279" type="line"/>
      <point x="32" y="207" type="line"/>
    </contour>
    <contour>
      <point x="214" y="150" type="line"/>
      <point x="495" y="150" type="line"/>
      <point x="495" y="279" type="line"/>
      <point x="129" y="279" type="line"/>
    </contour>
    <contour>
      <point x="129" y="279" type="line"/>
      <point x="264" y="279" type="line"/>
      <point x="264" y="568" type="line"/>
      <point x="129" y="485" type="line"/>
    </contour>
    <contour>
      <point x="129" y="485" type="line"/>
      <point x="264" y="568" type="line"/>
      <point x="196" y="663" type="line"/>
      <point x="60" y="580" type="line"/>
    </contour>
    <contour>
      <point x="564" y="55" type="line"/>
      <point x="699" y="138" type="line"/>
      <point x="629" y="234" type="line"/>
      <point x="495" y="150" type="line"/>
    </contour>
    <contour>
      <point x="495" y="150" type="line"/>
      <point x="629" y="234" type="line"/>
      <point x="629" y="439" type="line"/>
      <point x="495" y="439" type="line"/>
    </contour>
    <contour>
      <point x="629" y="439" type="line"/>
      <point x="728" y="510" type="line"/>
      <point x="644" y="639" type="line"/>
      <point x="546" y="568" type="line"/>
    </contour>
  </outline>
</glyph>
<glyph name="yen.color0" format="2">
  <advance width="600"/>
  <unicode hex="00A5"/>
  <outline>
    <contour>
      <point x="52" y="307" type="line"/>
      <point x="561" y="308" type="line"/>
      <point x="561" y="309" type="line"/>
      <point x="538" y="332" type="line"/>
      <point x="29" y="331" type="line"/>
      <point x="29" y="330" type="line"/>
    </contour>
  </outline>
</glyph>
<glyph name="yen.color1" format="2">
  <advance width="600"/>
  <unicode hex="00A5"/>
  <outline>
    <contour>
      <point x="52" y="218" type="line"/>
      <point x="561" y="219" type="line"/>
      <point x="561" y="220" type="line"/>
      <point x="538" y="243" type="line"/>
      <point x="29" y="242" type="line"/>
      <point x="29" y="241" type="line"/>
    </contour>
  </outline>
</glyph>
<glyph name="yen.color2" format="2">
  <advance width="600"/>
  <unicode hex="00A5"/>
  <outline>
    <contour>
      <point x="222" y="312" type="line"/>
      <point x="223" y="312" type="line"/>
      <point x="292" y="421" type="line"/>
      <point x="158" y="718" type="line"/>
      <point x="11" y="718" type="line"/>
      <point x="11" y="717" type="line"/>
    </contour>
  </outline>
</glyph>
<glyph name="yen.color3" format="2">
  <advance width="600"/>
  <unicode hex="00A5"/>
  <outline>
    <contour>
      <point x="222" y="0" type="line"/>
      <point x="357" y="0" type="line"/>
      <point x="357" y="312" type="line"/>
      <point x="222" y="312" type="line"/>
    </contour>
  </outline>
</glyph>
<glyph name="yen.color4" format="2">
  <advance width="600"/>
  <unicode hex="00A5"/>
  <outline>
    <contour>
      <point x="223" y="312" type="line"/>
      <point x="357" y="312" type="line"/>
      <point x="551" y="717" type="line"/>
      <point x="551" y="718" type="line"/>
      <point x="405" y="718" type="line"/>
    </contour>
  </outline>
</glyph>
<glyph name="yen" format="2">
  <advance width="590"/>
  <unicode hex="00A5"/>
  <anchor x="288" y="0" name="bottom"/>
  <anchor x="289" y="718" name="top"/>
  <outline>
    <contour>
      <point x="52" y="307" type="line"/>
      <point x="561" y="308" type="line"/>
      <point x="561" y="309" type="line"/>
      <point x="538" y="332" type="line"/>
      <point x="29" y="331" type="line"/>
      <point x="29" y="330" type="line"/>
    </contour>
    <contour>
      <point x="52" y="218" type="line"/>
      <point x="561" y="219" type="line"/>
      <point x="561" y="220" type="line"/>
      <point x="538" y="243" type="line"/>
      <point x="29" y="242" type="line"/>
      <point x="29" y="241" type="line"/>
    </contour>
    <contour>
      <point x="222" y="312" type="line"/>
      <point x="223" y="312" type="line"/>
      <point x="292" y="421" type="line"/>
      <point x="158" y="718" type="line"/>
      <point x="11" y="718" type="line"/>
      <point x="11" y="717" type="line"/>
    </contour>
    <contour>
      <point x="222" y="0" type="line"/>
      <point x="357" y="0" type="line"/>
      <point x="357" y="312" type="line"/>
      <point x="222" y="312" type="line"/>
    </contour>
    <contour>
      <point x="223" y="312" type="line"/>
      <point x="357" y="312" type="line"/>
      <point x="551" y="717" type="line"/>
      <point x="551" y="718" type="line"/>
      <point x="405" y="718" type="line"/>
    </contour>
  </outline>
</glyph>
<glyph name="brokenbar.color1" format="2">
  <advance width="600"/>
  <unicode hex="00A6"/>
  <outline>
    <contour>
      <point x="37" y="0" type="line"/>
      <point x="161" y="0" type="line"/>
      <point x="161" y="288" type="line"/>
      <point x="37" y="288" type="line"/>
    </contour>
  </outline>
</glyph>
<glyph name="brokenbar" format="2">
  <advance width="197.66667"/>
  <unicode hex="00A6"/>
  <outline>
    <contour>
      <point x="37" y="434" type="line"/>
      <point x="161" y="434" type="line"/>
      <point x="161" y="721" type="line"/>
      <point x="37" y="721" type="line"/>
    </contour>
    <contour>
      <point x="37" y="0" type="line"/>
      <point x="161" y="0" type="line"/>
      <point x="161" y="288" type="line"/>
      <point x="37" y="288" type="line"/>
    </contour>
  </outline>
</glyph>
<glyph name="section.color0" format="2">
  <advance width="600"/>
  <unicode hex="00A7"/>
  <outline>
    <contour>
      <point x="158" y="256" type="line"/>
      <point x="301" y="431" type="line"/>
      <point x="185" y="501" type="line"/>
      <point x="117" y="432" type="line"/>
    </contour>
  </outline>
</glyph>
<glyph name="section.color1" format="2">
  <advance width="600"/>
  <unicode hex="00A7"/>
  <outline>
    <contour>
      <point x="399" y="130" type="line"/>
      <point x="483" y="229" type="line"/>
      <point x="389" y="322" type="line"/>
      <point x="308" y="233" type="line"/>
    </contour>
  </outline>
</glyph>
<glyph name="section.color2" format="2">
  <advance width="600"/>
  <unicode hex="00A7"/>
  <outline>
    <contour>
      <point x="173" y="-74" type="line"/>
      <point x="454" y="-74" type="line"/>
      <point x="437" y="55" type="line"/>
      <point x="45" y="55" type="line"/>
      <point x="45" y="54" type="line"/>
    </contour>
  </outline>
</glyph>
<glyph name="section.color3" format="2">
  <advance width="600"/>
  <unicode hex="00A7"/>
  <outline>
    <contour>
      <point x="171" y="589" type="line"/>
      <point x="561" y="589" type="line"/>
      <point x="561" y="590" type="line"/>
      <point x="434" y="718" type="line"/>
      <point x="154" y="718" type="line"/>
    </contour>
  </outline>
</glyph>
<glyph name="section.color4" format="2">
  <advance width="600"/>
  <unicode hex="00A7"/>
  <outline>
    <contour>
      <point x="454" y="-74" type="line"/>
      <point x="532" y="38" type="line"/>
      <point x="117" y="432" type="line"/>
      <point x="37" y="318" type="line"/>
      <point x="37" y="317" type="line"/>
    </contour>
  </outline>
</glyph>
<glyph name="section.color5" format="2">
  <advance width="600"/>
  <unicode hex="00A7"/>
  <outline>
    <contour>
      <point x="483" y="229" type="line"/>
      <point x="563" y="338" type="line"/>
      <point x="563" y="339" type="line"/>
      <point x="154" y="718" type="line"/>
      <point x="75" y="606" type="line"/>
    </contour>
  </outline>
</glyph>
<glyph name="section" format="2">
  <advance width="603.25"/>
  <unicode hex="00A7"/>
  <outline>
    <contour>
      <point x="158" y="256" type="line"/>
      <point x="301" y="431" type="line"/>
      <point x="185" y="501" type="line"/>
      <point x="117" y="432" type="line"/>
    </contour>
    <contour>
      <point x="399" y="130" type="line"/>
      <point x="483" y="229" type="line"/>
      <point x="389" y="322" type="line"/>
      <point x="308" y="233" type="line"/>
    </contour>
    <contour>
      <point x="173" y="-74" type="line"/>
      <point x="454" y="-74" type="line"/>
      <point x="437" y="55" type="line"/>
      <point x="45" y="55" type="line"/>
      <point x="45" y="54" type="line"/>
    </contour>
    <contour>
      <point x="171" y="589" type="line"/>
      <point x="561" y="589" type="line"/>
      <point x="561" y="590" type="line"/>
      <point x="434" y="718" type="line"/>
      <point x="154" y="718" type="line"/>
    </contour>
    <contour>
      <point x="454" y="-74" type="line"/>
      <point x="532" y="38" type="line"/>
      <point x="117" y="432" type="line"/>
      <point x="37" y="318" type="line"/>
      <point x="37" y="317" type="line"/>
    </contour>
    <contour>
      <point x="483" y="229" type="line"/>
      <point x="563" y="338" type="line"/>
      <point x="563" y="339" type="line"/>
      <point x="154" y="718" type="line"/>
      <point x="75" y="606" type="line"/>
    </contour>
  </outline>
</glyph>
<glyph name="dieresis.color0" format="2">
  <advance width="600"/>
  <unicode hex="00A8"/>
  <outline>
    <contour>
      <point x="327" y="624" type="line"/>
      <point x="443" y="624" type="line"/>
      <point x="443" y="715" type="line"/>
      <point x="327" y="715" type="line"/>
    </contour>
  </outline>
</glyph>
<glyph name="dieresis" format="2">
  <advance width="600"/>
  <unicode hex="00A8"/>
  <anchor x="306" y="518" name="_top"/>
  <anchor x="304" y="684" name="top"/>
  <outline>
    <contour>
      <point x="327" y="624" type="line"/>
      <point x="443" y="624" type="line"/>
      <point x="443" y="715" type="line"/>
      <point x="327" y="715" type="line"/>
    </contour>
    <contour>
      <point x="159" y="624" type="line"/>
      <point x="275" y="624" type="line"/>
      <point x="275" y="715" type="line"/>
      <point x="159" y="715" type="line"/>
    </contour>
  </outline>
</glyph>
<glyph name="copyright.color0" format="2">
  <advance width="600"/>
  <unicode hex="00A9"/>
  <outline>
    <contour>
      <point x="220" y="37" type="line"/>
      <point x="524" y="37" type="line"/>
      <point x="596" y="163" type="line"/>
      <point x="596" y="164" type="line"/>
      <point x="148" y="164" type="line"/>
      <point x="148" y="163" type="line"/>
    </contour>
  </outline>
</glyph>
<glyph name="copyright.color1" format="2">
  <advance width="600"/>
  <unicode hex="00A9"/>
  <outline>
    <contour>
      <point x="76" y="-46" type="line"/>
      <point x="77" y="-46" type="line"/>
      <point x="77" y="635" type="line"/>
      <point x="53" y="635" type="line"/>
      <point x="53" y="-23" type="line"/>
    </contour>
  </outline>
</glyph>
<glyph name="copyright.color2" format="2">
  <advance width="600"/>
  <unicode hex="00A9"/>
  <outline>
    <contour>
      <point x="77" y="-46" type="line"/>
      <point x="663" y="-46" type="line"/>
      <point x="686" y="-23" type="line"/>
      <point x="686" y="-22" type="line"/>
      <point x="77" y="-22" type="line"/>
    </contour>
  </outline>
</glyph>
<glyph name="copyright.color3" format="2">
  <advance width="600"/>
  <unicode hex="00A9"/>
  <outline>
    <contour>
      <point x="148" y="164" type="line"/>
      <point x="282" y="164" type="line"/>
      <point x="282" y="575" type="line"/>
      <point x="281" y="575" type="line"/>
      <point x="148" y="503" type="line"/>
    </contour>
  </outline>
</glyph>
<glyph name="copyright.color4" format="2">
  <advance width="600"/>
  <unicode hex="00A9"/>
  <outline>
    <contour>
      <point x="282" y="460" type="line"/>
      <point x="600" y="460" type="line"/>
      <point x="600" y="461" type="line"/>
      <point x="528" y="575" type="line"/>
      <point x="282" y="575" type="line"/>
    </contour>
  </outline>
</glyph>
<glyph name="copyright.color6" format="2">
  <advance width="600"/>
  <unicode hex="00A9"/>
  <outline>
    <contour>
      <point x="662" y="-22" type="line"/>
      <point x="686" y="-22" type="line"/>
      <point x="686" y="636" type="line"/>
      <point x="663" y="659" type="line"/>
      <point x="662" y="659" type="line"/>
    </contour>
  </outline>
</glyph>
<glyph name="copyright" format="2">
  <advance width="739"/>
  <unicode hex="00A9"/>
  <outline>
    <contour>
      <point x="220" y="37" type="line"/>
      <point x="524" y="37" type="line"/>
      <point x="596" y="163" type="line"/>
      <point x="596" y="164" type="line"/>
      <point x="148" y="164" type="line"/>
      <point x="148" y="163" type="line"/>
    </contour>
    <contour>
      <point x="76" y="-46" type="line"/>
      <point x="77" y="-46" type="line"/>
      <point x="77" y="635" type="line"/>
      <point x="53" y="635" type="line"/>
      <point x="53" y="-23" type="line"/>
    </contour>
    <contour>
      <point x="77" y="-46" type="line"/>
      <point x="663" y="-46" type="line"/>
      <point x="686" y="-23" type="line"/>
      <point x="686" y="-22" type="line"/>
      <point x="77" y="-22" type="line"/>
    </contour>
    <contour>
      <point x="148" y="164" type="line"/>
      <point x="282" y="164" type="line"/>
      <point x="282" y="575" type="line"/>
      <point x="281" y="575" type="line"/>
      <point x="148" y="503" type="line"/>
    </contour>
    <contour>
      <point x="282" y="460" type="line"/>
      <point x="600" y="460" type="line"/>
      <point x="600" y="461" type="line"/>
      <point x="528" y="575" type="line"/>
      <point x="282" y="575" type="line"/>
    </contour>
    <contour>
      <point x="53" y="635" type="line"/>
      <point x="662" y="635" type="line"/>
      <point x="662" y="659" type="line"/>
      <point x="76" y="659" type="line"/>
      <point x="53" y="636" type="line"/>
    </contour>
    <contour>
      <point x="662" y="-22" type="line"/>
      <point x="686" y="-22" type="line"/>
      <point x="686" y="636" type="line"/>
      <point x="663" y="659" type="line"/>
      <point x="662" y="659" type="line"/>
    </contour>
  </outline>
</glyph>
<glyph name="ordfeminine.color0" format="2">
  <advance width="600"/>
  <unicode hex="00AA"/>
  <outline>
    <contour>
      <point x="131" y="695" type="line"/>
      <point x="356" y="695" type="line"/>
      <point x="356" y="696" type="line"/>
      <point x="284" y="772" type="line"/>
      <point x="131" y="772" type="line"/>
    </contour>
  </outline>
</glyph>
<glyph name="ordfeminine.color1" format="2">
  <advance width="600"/>
  <unicode hex="00AA"/>
  <outline>
    <contour>
      <point x="120" y="495" type="line"/>
      <point x="275" y="495" type="line"/>
      <point x="275" y="571" type="line"/>
      <point x="49" y="571" type="line"/>
      <point x="49" y="570" type="line"/>
    </contour>
  </outline>
</glyph>
<glyph name="ordfeminine.color3" format="2">
  <advance width="600"/>
  <unicode hex="00AA"/>
  <outline>
    <contour>
      <point x="275" y="495" type="line"/>
      <point x="356" y="495" type="line"/>
      <point x="356" y="695" type="line"/>
      <point x="275" y="695" type="line"/>
    </contour>
  </outline>
</glyph>
<glyph name="guillemetleft.color0" format="2">
  <advance width="600"/>
  <unicode hex="00AB"/>
  <outline>
    <contour>
      <point x="241" y="268" type="line"/>
      <point x="391" y="268" type="line"/>
      <point x="592" y="497" type="line"/>
      <point x="592" y="498" type="line"/>
      <point x="441" y="498" type="line"/>
      <point x="241" y="269" type="line"/>
    </contour>
  </outline>
</glyph>
<glyph name="guillemetleft.color1" format="2">
  <advance width="600"/>
  <unicode hex="00AB"/>
  <outline>
    <contour>
      <point x="239" y="42" type="line"/>
      <point x="390" y="42" type="line"/>
      <point x="390" y="45" type="line"/>
      <point x="190" y="268" type="line"/>
      <point x="39" y="268" type="line"/>
      <point x="39" y="267" type="line"/>
    </contour>
  </outline>
</glyph>
<glyph name="guillemetleft.color3" format="2">
  <advance width="600"/>
  <unicode hex="00AB"/>
  <outline>
    <contour>
      <point x="441" y="42" type="line"/>
      <point x="592" y="42" type="line"/>
      <point x="592" y="45" type="line"/>
      <point x="391" y="268" type="line"/>
      <point x="241" y="268" type="line"/>
      <point x="241" y="267" type="line"/>
    </contour>
  </outline>
</glyph>
<glyph name="guillemetleft" format="2">
  <advance width="623.83333"/>
  <unicode hex="00AB"/>
  <outline>
    <contour>
      <point x="241" y="268" type="line"/>
      <point x="391" y="268" type="line"/>
      <point x="592" y="497" type="line"/>
      <point x="592" y="498" type="line"/>
      <point x="441" y="498" type="line"/>
      <point x="241" y="269" type="line"/>
    </contour>
    <contour>
      <point x="239" y="42" type="line"/>
      <point x="390" y="42" type="line"/>
      <point x="390" y="45" type="line"/>
      <point x="190" y="268" type="line"/>
      <point x="39" y="268" type="line"/>
      <point x="39" y="267" type="line"/>
    </contour>
    <contour>
      <point x="39" y="268" type="line"/>
      <point x="190" y="268" type="line"/>
      <point x="390" y="497" type="line"/>
      <point x="390" y="498" type="line"/>
      <point x="239" y="498" type="line"/>
      <point x="39" y="269" type="line"/>
    </contour>
    <contour>
      <point x="441" y="42" type="line"/>
      <point x="592" y="42" type="line"/>
      <point x="592" y="45" type="line"/>
      <point x="391" y="268" type="line"/>
      <point x="241" y="268" type="line"/>
      <point x="241" y="267" type="line"/>
    </contour>
  </outline>
</glyph>
<glyph name="logicalnot.color0" format="2">
  <advance width="600"/>
  <unicode hex="00AC"/>
  <outline>
    <contour>
      <point x="37" y="328" type="line"/>
      <point x="408" y="328" type="line"/>
      <point x="336" y="433" type="line"/>
      <point x="37" y="433" type="line"/>
    </contour>
  </outline>
</glyph>
<glyph name="logicalnot.color1" format="2">
  <advance width="600"/>
  <unicode hex="00AC"/>
  <outline>
    <contour>
      <point x="297" y="173" type="line"/>
      <point x="298" y="173" type="line"/>
      <point x="408" y="245" type="line"/>
      <point x="408" y="328" type="line"/>
      <point x="297" y="328" type="line"/>
    </contour>
  </outline>
</glyph>
<glyph name="softhyphen" format="2">
  <advance width="314.58333"/>
  <unicode hex="00AD"/>
  <outline>
    <contour>
      <point x="43" y="288" type="line"/>
      <point x="284" y="288" type="line"/>
      <point x="284" y="421" type="line"/>
      <point x="43" y="421" type="line"/>
    </contour>
  </outline>
</glyph>
<glyph name="registered.color0" format="2">
  <advance width="600"/>
  <unicode hex="00AE"/>
  <outline>
    <contour>
      <point x="99" y="471" type="line"/>
      <point x="198" y="471" type="line"/>
      <point x="198" y="710" type="line"/>
      <point x="197" y="710" type="line"/>
      <point x="99" y="700" type="line"/>
    </contour>
  </outline>
</glyph>
<glyph name="registered.color1" format="2">
  <advance width="600"/>
  <unicode hex="00AE"/>
  <outline>
    <contour>
      <point x="57" y="423" type="line"/>
      <point x="58" y="423" type="line"/>
      <point x="58" y="735" type="line"/>
      <point x="34" y="735" type="line"/>
      <point x="34" y="446" type="line"/>
    </contour>
  </outline>
</glyph>
<glyph name="registered.color3" format="2">
  <advance width="600"/>
  <unicode hex="00AE"/>
  <outline>
    <contour>
      <point x="276" y="471" type="line"/>
      <point x="416" y="471" type="line"/>
      <point x="416" y="472" type="line"/>
      <point x="340" y="586" type="line"/>
      <point x="207" y="581" type="line"/>
    </contour>
  </outline>
</glyph>
<glyph name="registered.color5" format="2">
  <advance width="600"/>
  <unicode hex="00AE"/>
  <outline>
    <contour>
      <point x="298" y="532" type="line"/>
      <point x="299" y="532" type="line"/>
      <point x="397" y="569" type="line"/>
      <point x="397" y="646" type="line"/>
      <point x="298" y="646" type="line"/>
    </contour>
  </outline>
</glyph>
<glyph name="registered.color7" format="2">
  <advance width="600"/>
  <unicode hex="00AE"/>
  <outline>
    <contour>
      <point x="34" y="735" type="line"/>
      <point x="448" y="735" type="line"/>
      <point x="448" y="759" type="line"/>
      <point x="57" y="759" type="line"/>
      <point x="34" y="736" type="line"/>
    </contour>
  </outline>
</glyph>
<glyph name="registered.color8" format="2">
  <advance width="600"/>
  <unicode hex="00AE"/>
  <outline>
    <contour>
      <point x="448" y="447" type="line"/>
      <point x="471" y="447" type="line"/>
      <point x="471" y="736" type="line"/>
      <point x="449" y="759" type="line"/>
      <point x="448" y="759" type="line"/>
    </contour>
  </outline>
</glyph>
<glyph name="registered" format="2">
  <advance width="504.58333"/>
  <unicode hex="00AE"/>
  <outline>
    <contour>
      <point x="99" y="471" type="line"/>
      <point x="198" y="471" type="line"/>
      <point x="198" y="710" type="line"/>
      <point x="197" y="710" type="line"/>
      <point x="99" y="700" type="line"/>
    </contour>
    <contour>
      <point x="57" y="423" type="line"/>
      <point x="58" y="423" type="line"/>
      <point x="58" y="735" type="line"/>
      <point x="34" y="735" type="line"/>
      <point x="34" y="446" type="line"/>
    </contour>
    <contour>
      <point x="58" y="423" type="line"/>
      <point x="449" y="423" type="line"/>
      <point x="471" y="446" type="line"/>
      <point x="471" y="447" type="line"/>
      <point x="58" y="447" type="line"/>
    </contour>
    <contour>
      <point x="276" y="471" type="line"/>
      <point x="416" y="471" type="line"/>
      <point x="416" y="472" type="line"/>
      <point x="340" y="586" type="line"/>
      <point x="207" y="581" type="line"/>
    </contour>
    <contour>
      <point x="198" y="532" type="line"/>
      <point x="298" y="532" type="line"/>
      <point x="298" y="597" type="line"/>
      <point x="198" y="597" type="line"/>
    </contour>
    <contour>
      <point x="298" y="532" type="line"/>
      <point x="299" y="532" type="line"/>
      <point x="397" y="569" type="line"/>
      <point x="397" y="646" type="line"/>
      <point x="298" y="646" type="line"/>
    </contour>
    <contour>
      <point x="198" y="646" type="line"/>
      <point x="397" y="646" type="line"/>
      <point x="397" y="647" type="line"/>
      <point x="329" y="710" type="line"/>
      <point x="198" y="710" type="line"/>
    </contour>
    <contour>
      <point x="34" y="735" type="line"/>
      <point x="448" y="735" type="line"/>
      <point x="448" y="759" type="line"/>
      <point x="57" y="759" type="line"/>
      <point x="34" y="736" type="line"/>
    </contour>
    <contour>
      <point x="448" y="447" type="line"/>
      <point x="471" y="447" type="line"/>
      <point x="471" y="736" type="line"/>
      <point x="449" y="759" type="line"/>
      <point x="448" y="759" type="line"/>
    </contour>
  </outline>
</glyph>
<glyph name="macron" format="2">
  <advance width="600"/>
  <unicode hex="00AF"/>
  <anchor x="308" y="518" name="_top"/>
  <outline>
    <contour>
      <point x="153" y="621" type="line"/>
      <point x="446" y="621" type="line"/>
      <point x="446" y="697" type="line"/>
      <point x="153" y="697" type="line"/>
    </contour>
  </outline>
</glyph>
<glyph name="degree.color0" format="2">
  <advance width="600"/>
  <unicode hex="00B0"/>
  <outline>
    <contour>
      <point x="77" y="691" type="line"/>
      <point x="267" y="691" type="line"/>
      <point x="267" y="692" type="line"/>
      <point x="216" y="759" type="line"/>
      <point x="77" y="759" type="line"/>
    </contour>
  </outline>
</glyph>
<glyph name="degree.color1" format="2">
  <advance width="600"/>
  <unicode hex="00B0"/>
  <outline>
    <contour>
      <point x="51" y="554" type="line"/>
      <point x="190" y="554" type="line"/>
      <point x="190" y="621" type="line"/>
      <point x="0" y="621" type="line"/>
      <point x="0" y="620" type="line"/>
    </contour>
  </outline>
</glyph>
<glyph name="degree.color2" format="2">
  <advance width="600"/>
  <unicode hex="00B0"/>
  <outline>
    <contour>
      <point x="0" y="621" type="line"/>
      <point x="77" y="621" type="line"/>
      <point x="77" y="759" type="line"/>
      <point x="75" y="759" type="line"/>
      <point x="0" y="706" type="line"/>
    </contour>
  </outline>
</glyph>
<glyph name="degree" format="2">
  <advance width="303.08333"/>
  <unicode hex="00B0"/>
  <outline>
    <contour>
      <point x="77" y="691" type="line"/>
      <point x="267" y="691" type="line"/>
      <point x="267" y="692" type="line"/>
      <point x="216" y="759" type="line"/>
      <point x="77" y="759" type="line"/>
    </contour>
    <contour>
      <point x="51" y="554" type="line"/>
      <point x="190" y="554" type="line"/>
      <point x="190" y="621" type="line"/>
      <point x="0" y="621" type="line"/>
      <point x="0" y="620" type="line"/>
    </contour>
    <contour>
      <point x="0" y="621" type="line"/>
      <point x="77" y="621" type="line"/>
      <point x="77" y="759" type="line"/>
      <point x="75" y="759" type="line"/>
      <point x="0" y="706" type="line"/>
    </contour>
    <contour>
      <point x="190" y="554" type="line"/>
      <point x="191" y="554" type="line"/>
      <point x="267" y="603" type="line"/>
      <point x="267" y="691" type="line"/>
      <point x="190" y="691" type="line"/>
    </contour>
  </outline>
</glyph>
<glyph name="plusminus.color0" format="2">
  <advance width="600"/>
  <unicode hex="00B1"/>
  <outline>
    <contour>
      <point x="37" y="106" type="line"/>
      <point x="492" y="107" type="line"/>
      <point x="492" y="235" type="line"/>
      <point x="37" y="235" type="line"/>
    </contour>
  </outline>
</glyph>
<glyph name="plusminus.color3" format="2">
  <advance width="600"/>
  <unicode hex="00B1"/>
  <outline>
    <contour>
      <point x="211" y="401" type="line"/>
      <point x="212" y="401" type="line"/>
      <point x="317" y="506" type="line"/>
      <point x="317" y="635" type="line"/>
      <point x="211" y="635" type="line"/>
    </contour>
  </outline>
</glyph>
<glyph name="plusminus.color4" format="2">
  <advance width="600"/>
  <unicode hex="00B1"/>
  <outline>
    <contour>
      <point x="212" y="401" type="line"/>
      <point x="492" y="401" type="line"/>
      <point x="492" y="506" type="line"/>
      <point x="317" y="506" type="line"/>
    </contour>
  </outline>
</glyph>
<glyph name="plusminus" format="2">
  <advance width="551.33333"/>
  <unicode hex="00B1"/>
  <outline>
    <contour>
      <point x="37" y="106" type="line"/>
      <point x="492" y="107" type="line"/>
      <point x="492" y="235" type="line"/>
      <point x="37" y="235" type="line"/>
    </contour>
    <contour>
      <point x="37" y="401" type="line"/>
      <point x="211" y="401" type="line"/>
      <point x="211" y="506" type="line"/>
      <point x="37" y="506" type="line"/>
    </contour>
    <contour>
      <point x="211" y="272" type="line"/>
      <point x="317" y="272" type="line"/>
      <point x="317" y="401" type="line"/>
      <point x="211" y="401" type="line"/>
    </contour>
    <contour>
      <point x="211" y="401" type="line"/>
      <point x="212" y="401" type="line"/>
      <point x="317" y="506" type="line"/>
      <point x="317" y="635" type="line"/>
      <point x="211" y="635" type="line"/>
    </contour>
    <contour>
      <point x="212" y="401" type="line"/>
      <point x="492" y="401" type="line"/>
      <point x="492" y="506" type="line"/>
      <point x="317" y="506" type="line"/>
    </contour>
  </outline>
</glyph>
<glyph name="twosuperior.color0" format="2">
  <advance width="600"/>
  <unicode hex="00B2"/>
  <outline>
    <contour>
      <point x="37" y="667" type="line"/>
      <point x="252" y="667" type="line"/>
      <point x="251" y="756" type="line"/>
      <point x="94" y="756" type="line"/>
      <point x="37" y="668" type="line"/>
    </contour>
  </outline>
</glyph>
<glyph name="twosuperior.color1" format="2">
  <advance width="600"/>
  <unicode hex="00B2"/>
  <outline>
    <contour>
      <point x="98" y="482" type="line"/>
      <point x="305" y="683" type="line"/>
      <point x="251" y="756" type="line"/>
      <point x="40" y="546" type="line"/>
      <point x="40" y="545" type="line"/>
    </contour>
  </outline>
</glyph>
<glyph name="twosuperior.color2" format="2">
  <advance width="600"/>
  <unicode hex="00B2"/>
  <outline>
    <contour>
      <point x="40" y="456" type="line"/>
      <point x="317" y="456" type="line"/>
      <point x="317" y="545" type="line"/>
      <point x="40" y="545" type="line"/>
    </contour>
  </outline>
</glyph>
<glyph name="threesuperior.color0" format="2">
  <advance width="600"/>
  <unicode hex="00B3"/>
  <outline>
    <contour>
      <point x="100" y="456" type="line"/>
      <point x="217" y="456" type="line"/>
      <point x="217" y="528" type="line"/>
      <point x="19" y="528" type="line"/>
      <point x="19" y="527" type="line"/>
    </contour>
  </outline>
</glyph>
<glyph name="threesuperior.color1" format="2">
  <advance width="600"/>
  <unicode hex="00B3"/>
  <outline>
    <contour>
      <point x="62" y="584" type="line"/>
      <point x="217" y="584" type="line"/>
      <point x="217" y="640" type="line"/>
      <point x="62" y="640" type="line"/>
    </contour>
  </outline>
</glyph>
<glyph name="threesuperior.color2" format="2">
  <advance width="600"/>
  <unicode hex="00B3"/>
  <outline>
    <contour>
      <point x="24" y="690" type="line"/>
      <point x="217" y="690" type="line"/>
      <point x="217" y="756" type="line"/>
      <point x="104" y="756" type="line"/>
      <point x="24" y="691" type="line"/>
    </contour>
  </outline>
</glyph>
<glyph name="threesuperior.color3" format="2">
  <advance width="600"/>
  <unicode hex="00B3"/>
  <outline>
    <contour>
      <point x="217" y="617" type="line"/>
      <point x="317" y="617" type="line"/>
      <point x="317" y="688" type="line"/>
      <point x="218" y="756" type="line"/>
      <point x="217" y="756" type="line"/>
    </contour>
  </outline>
</glyph>
<glyph name="threesuperior.color4" format="2">
  <advance width="600"/>
  <unicode hex="00B3"/>
  <outline>
    <contour>
      <point x="217" y="456" type="line"/>
      <point x="218" y="456" type="line"/>
      <point x="318" y="503" type="line"/>
      <point x="318" y="580" type="line"/>
      <point x="218" y="640" type="line"/>
      <point x="217" y="640" type="line"/>
    </contour>
  </outline>
</glyph>
<glyph name="threesuperior" format="2">
  <advance width="362.75"/>
  <unicode hex="00B3"/>
  <outline>
    <contour>
      <point x="100" y="456" type="line"/>
      <point x="217" y="456" type="line"/>
      <point x="217" y="528" type="line"/>
      <point x="19" y="528" type="line"/>
      <point x="19" y="527" type="line"/>
    </contour>
    <contour>
      <point x="62" y="584" type="line"/>
      <point x="217" y="584" type="line"/>
      <point x="217" y="640" type="line"/>
      <point x="62" y="640" type="line"/>
    </contour>
    <contour>
      <point x="24" y="690" type="line"/>
      <point x="217" y="690" type="line"/>
      <point x="217" y="756" type="line"/>
      <point x="104" y="756" type="line"/>
      <point x="24" y="691" type="line"/>
    </contour>
    <contour>
      <point x="217" y="617" type="line"/>
      <point x="317" y="617" type="line"/>
      <point x="317" y="688" type="line"/>
      <point x="218" y="756" type="line"/>
      <point x="217" y="756" type="line"/>
    </contour>
    <contour>
      <point x="217" y="456" type="line"/>
      <point x="218" y="456" type="line"/>
      <point x="318" y="503" type="line"/>
      <point x="318" y="580" type="line"/>
      <point x="218" y="640" type="line"/>
      <point x="217" y="640" type="line"/>
    </contour>
  </outline>
</glyph>
<glyph name="acute" format="2">
  <advance width="600"/>
  <unicode hex="00B4"/>
  <anchor x="281" y="518" name="_top"/>
  <outline>
    <contour>
      <point x="230" y="582" type="line"/>
      <point x="303" y="582" type="line"/>
      <point x="377" y="769" type="line"/>
      <point x="377" y="770" type="line"/>
      <point x="262" y="770" type="line"/>
    </contour>
  </outline>
</glyph>
<glyph name="micro.color1" format="2">
  <advance width="600"/>
  <unicode hex="00B5"/>
  <outline>
    <contour>
      <point x="178" y="-1" type="line"/>
      <point x="332" y="-1" type="line"/>
      <point x="332" y="127" type="line"/>
      <point x="178" y="128" type="line"/>
    </contour>
  </outline>
</glyph>
<glyph name="micro.color2" format="2">
  <advance width="600"/>
  <unicode hex="00B5"/>
  <outline>
    <contour>
      <point x="415" y="-1" type="line"/>
      <point x="551" y="-1" type="line"/>
      <point x="551" y="128" type="line"/>
      <point x="332" y="127" type="line"/>
    </contour>
  </outline>
</glyph>
<glyph name="micro.color3" format="2">
  <advance width="600"/>
  <unicode hex="00B5"/>
  <outline>
    <contour>
      <point x="332" y="-1" type="line"/>
      <point x="333" y="-1" type="line"/>
      <point x="466" y="128" type="line"/>
      <point x="466" y="518" type="line"/>
      <point x="332" y="518" type="line"/>
    </contour>
  </outline>
</glyph>
<glyph name="micro" format="2">
  <advance width="593.25"/>
  <unicode hex="00B5"/>
  <outline>
    <contour>
      <point x="43" y="-200" type="line"/>
      <point x="178" y="-200" type="line"/>
      <point x="178" y="518" type="line"/>
      <point x="177" y="518" type="line"/>
      <point x="43" y="446" type="line"/>
    </contour>
    <contour>
      <point x="178" y="-1" type="line"/>
      <point x="332" y="-1" type="line"/>
      <point x="332" y="127" type="line"/>
      <point x="178" y="128" type="line"/>
    </contour>
    <contour>
      <point x="415" y="-1" type="line"/>
      <point x="551" y="-1" type="line"/>
      <point x="551" y="128" type="line"/>
      <point x="332" y="127" type="line"/>
    </contour>
    <contour>
      <point x="332" y="-1" type="line"/>
      <point x="333" y="-1" type="line"/>
      <point x="466" y="128" type="line"/>
      <point x="466" y="518" type="line"/>
      <point x="332" y="518" type="line"/>
    </contour>
  </outline>
</glyph>
<glyph name="paragraph.color1" format="2">
  <advance width="600"/>
  <unicode hex="00B6"/>
  <outline>
    <contour>
      <point x="175" y="248" type="line"/>
      <point x="346" y="248" type="line"/>
      <point x="346" y="377" type="line"/>
      <point x="48" y="377" type="line"/>
      <point x="48" y="376" type="line"/>
    </contour>
  </outline>
</glyph>
<glyph name="paragraph.color3" format="2">
  <advance width="600"/>
  <unicode hex="00B6"/>
  <outline>
    <contour>
      <point x="346" y="0" type="line"/>
      <point x="481" y="0" type="line"/>
      <point x="481" y="589" type="line"/>
      <point x="346" y="589" type="line"/>
    </contour>
  </outline>
</glyph>
<glyph name="paragraph" format="2">
  <advance width="733.41667"/>
  <unicode hex="00B6"/>
  <outline>
    <contour>
      <point x="183" y="589" type="line"/>
      <point x="656" y="589" type="line"/>
      <point x="656" y="718" type="line"/>
      <point x="183" y="718" type="line"/>
    </contour>
    <contour>
      <point x="175" y="248" type="line"/>
      <point x="346" y="248" type="line"/>
      <point x="346" y="377" type="line"/>
      <point x="48" y="377" type="line"/>
      <point x="48" y="376" type="line"/>
    </contour>
    <contour>
      <point x="48" y="377" type="line"/>
      <point x="183" y="377" type="line"/>
      <point x="183" y="718" type="line"/>
      <point x="182" y="718" type="line"/>
      <point x="48" y="593" type="line"/>
    </contour>
    <contour>
      <point x="346" y="0" type="line"/>
      <point x="481" y="0" type="line"/>
      <point x="481" y="589" type="line"/>
      <point x="346" y="589" type="line"/>
    </contour>
    <contour>
      <point x="521" y="0" type="line"/>
      <point x="656" y="0" type="line"/>
      <point x="656" y="589" type="line"/>
      <point x="521" y="589" type="line"/>
    </contour>
  </outline>
</glyph>
<glyph name="periodcentered" format="2">
  <advance width="221.58333"/>
  <unicode hex="00B7"/>
  <outline>
    <contour>
      <point x="34" y="238" type="line"/>
      <point x="183" y="238" type="line"/>
      <point x="183" y="367" type="line"/>
      <point x="34" y="367" type="line"/>
    </contour>
  </outline>
</glyph>
<glyph name="cedilla.color0" format="2">
  <advance width="600"/>
  <unicode hex="00B8"/>
  <outline>
    <contour>
      <point x="302" y="-92" type="line"/>
      <point x="416" y="-92" type="line"/>
      <point x="416" y="-91" type="line"/>
      <point x="367" y="-29" type="line"/>
      <point x="336" y="-29" type="line"/>
    </contour>
  </outline>
</glyph>
<glyph name="cedilla.color1" format="2">
  <advance width="600"/>
  <unicode hex="00B8"/>
  <outline>
    <contour>
      <point x="231" y="-92" type="line"/>
      <point x="302" y="-92" type="line"/>
      <point x="358" y="-1" type="line"/>
      <point x="358" y="0" type="line"/>
      <point x="288" y="0" type="line"/>
      <point x="231" y="-91" type="line"/>
    </contour>
  </outline>
</glyph>
<glyph name="cedilla.color3" format="2">
  <advance width="600"/>
  <unicode hex="00B8"/>
  <outline>
    <contour>
      <point x="344" y="-197" type="line"/>
      <point x="345" y="-197" type="line"/>
      <point x="416" y="-157" type="line"/>
      <point x="416" y="-92" type="line"/>
      <point x="344" y="-92" type="line"/>
    </contour>
  </outline>
</glyph>
<glyph name="cedilla" format="2">
  <advance width="600"/>
  <unicode hex="00B8"/>
  <anchor x="328" y="0" name="_bottom"/>
  <outline>
    <contour>
      <point x="302" y="-92" type="line"/>
      <point x="416" y="-92" type="line"/>
      <point x="416" y="-91" type="line"/>
      <point x="367" y="-29" type="line"/>
      <point x="336" y="-29" type="line"/>
    </contour>
    <contour>
      <point x="231" y="-92" type="line"/>
      <point x="302" y="-92" type="line"/>
      <point x="358" y="-1" type="line"/>
      <point x="358" y="0" type="line"/>
      <point x="288" y="0" type="line"/>
      <point x="231" y="-91" type="line"/>
    </contour>
    <contour>
      <point x="239" y="-197" type="line"/>
      <point x="344" y="-197" type="line"/>
      <point x="344" y="-135" type="line"/>
      <point x="196" y="-135" type="line"/>
      <point x="196" y="-136" type="line"/>
    </contour>
    <contour>
      <point x="344" y="-197" type="line"/>
      <point x="345" y="-197" type="line"/>
      <point x="416" y="-157" type="line"/>
      <point x="416" y="-92" type="line"/>
      <point x="344" y="-92" type="line"/>
    </contour>
  </outline>
</glyph>
<glyph name="onesuperior.color2" format="2">
  <advance width="600"/>
  <unicode hex="00B9"/>
  <outline>
    <contour>
      <point x="178" y="454" type="line"/>
      <point x="339" y="454" type="line"/>
      <point x="339" y="542" type="line"/>
      <point x="247" y="542" type="line"/>
    </contour>
  </outline>
</glyph>
<glyph name="onesuperior" format="2">
  <advance width="375.41667"/>
  <unicode hex="00B9"/>
  <outline>
    <contour>
      <point x="148" y="454" type="line"/>
      <point x="178" y="454" type="line"/>
      <point x="247" y="542" type="line"/>
      <point x="247" y="756" type="line"/>
      <point x="217" y="756" type="line"/>
      <point x="148" y="667" type="line"/>
    </contour>
    <contour>
      <point x="37" y="454" type="line"/>
      <point x="148" y="454" type="line"/>
      <point x="148" y="542" type="line"/>
      <point x="37" y="542" type="line"/>
    </contour>
    <contour>
      <point x="178" y="454" type="line"/>
      <point x="339" y="454" type="line"/>
      <point x="339" y="542" type="line"/>
      <point x="247" y="542" type="line"/>
    </contour>
    <contour>
      <point x="87" y="667" type="line"/>
      <point x="148" y="667" type="line"/>
      <point x="217" y="756" type="line"/>
      <point x="87" y="756" type="line"/>
    </contour>
  </outline>
</glyph>
<glyph name="ordmasculine.color0" format="2">
  <advance width="600"/>
  <unicode hex="00BA"/>
  <outline>
    <contour>
      <point x="131" y="695" type="line"/>
      <point x="356" y="695" type="line"/>
      <point x="356" y="696" type="line"/>
      <point x="284" y="772" type="line"/>
      <point x="131" y="772" type="line"/>
    </contour>
  </outline>
</glyph>
<glyph name="ordmasculine.color2" format="2">
  <advance width="600"/>
  <unicode hex="00BA"/>
  <outline>
    <contour>
      <point x="49" y="571" type="line"/>
      <point x="131" y="571" type="line"/>
      <point x="131" y="772" type="line"/>
      <point x="130" y="772" type="line"/>
      <point x="49" y="700" type="line"/>
    </contour>
  </outline>
</glyph>
<glyph name="ordmasculine.color3" format="2">
  <advance width="600"/>
  <unicode hex="00BA"/>
  <outline>
    <contour>
      <point x="275" y="495" type="line"/>
      <point x="276" y="495" type="line"/>
      <point x="356" y="566" type="line"/>
      <point x="356" y="695" type="line"/>
      <point x="275" y="695" type="line"/>
    </contour>
  </outline>
</glyph>
<glyph name="ordmasculine" format="2">
  <advance width="404.08333"/>
  <unicode hex="00BA"/>
  <outline>
    <contour>
      <point x="131" y="695" type="line"/>
      <point x="356" y="695" type="line"/>
      <point x="356" y="696" type="line"/>
      <point x="284" y="772" type="line"/>
      <point x="131" y="772" type="line"/>
    </contour>
    <contour>
      <point x="120" y="495" type="line"/>
      <point x="275" y="495" type="line"/>
      <point x="275" y="571" type="line"/>
      <point x="49" y="571" type="line"/>
      <point x="49" y="570" type="line"/>
    </contour>
    <contour>
      <point x="49" y="571" type="line"/>
      <point x="131" y="571" type="line"/>
      <point x="131" y="772" type="line"/>
      <point x="130" y="772" type="line"/>
      <point x="49" y="700" type="line"/>
    </contour>
    <contour>
      <point x="275" y="495" type="line"/>
      <point x="276" y="495" type="line"/>
      <point x="356" y="566" type="line"/>
      <point x="356" y="695" type="line"/>
      <point x="275" y="695" type="line"/>
    </contour>
  </outline>
</glyph>
<glyph name="guillemetright.color0" format="2">
  <advance width="600"/>
  <unicode hex="00BB"/>
  <outline>
    <contour>
      <point x="383" y="268" type="line"/>
      <point x="383" y="269" type="line"/>
      <point x="183" y="498" type="line"/>
      <point x="32" y="498" type="line"/>
      <point x="32" y="497" type="line"/>
      <point x="233" y="268" type="line"/>
    </contour>
  </outline>
</glyph>
<glyph name="guillemetright.color1" format="2">
  <advance width="600"/>
  <unicode hex="00BB"/>
  <outline>
    <contour>
      <point x="385" y="42" type="line"/>
      <point x="585" y="267" type="line"/>
      <point x="585" y="268" type="line"/>
      <point x="434" y="268" type="line"/>
      <point x="234" y="45" type="line"/>
      <point x="234" y="42" type="line"/>
    </contour>
  </outline>
</glyph>
<glyph name="guillemetright.color2" format="2">
  <advance width="600"/>
  <unicode hex="00BB"/>
  <outline>
    <contour>
      <point x="585" y="268" type="line"/>
      <point x="585" y="269" type="line"/>
      <point x="385" y="498" type="line"/>
      <point x="234" y="498" type="line"/>
      <point x="234" y="497" type="line"/>
      <point x="434" y="268" type="line"/>
    </contour>
  </outline>
</glyph>
<glyph name="guillemetright.color3" format="2">
  <advance width="600"/>
  <unicode hex="00BB"/>
  <outline>
    <contour>
      <point x="183" y="42" type="line"/>
      <point x="383" y="267" type="line"/>
      <point x="383" y="268" type="line"/>
      <point x="233" y="268" type="line"/>
      <point x="32" y="45" type="line"/>
      <point x="32" y="42" type="line"/>
    </contour>
  </outline>
</glyph>
<glyph name="guillemetright" format="2">
  <advance width="624"/>
  <unicode hex="00BB"/>
  <outline>
    <contour>
      <point x="383" y="268" type="line"/>
      <point x="383" y="269" type="line"/>
      <point x="183" y="498" type="line"/>
      <point x="32" y="498" type="line"/>
      <point x="32" y="497" type="line"/>
      <point x="233" y="268" type="line"/>
    </contour>
    <contour>
      <point x="385" y="42" type="line"/>
      <point x="585" y="267" type="line"/>
      <point x="585" y="268" type="line"/>
      <point x="434" y="268" type="line"/>
      <point x="234" y="45" type="line"/>
      <point x="234" y="42" type="line"/>
    </contour>
    <contour>
      <point x="585" y="268" type="line"/>
      <point x="585" y="269" type="line"/>
      <point x="385" y="498" type="line"/>
      <point x="234" y="498" type="line"/>
      <point x="234" y="497" type="line"/>
      <point x="434" y="268" type="line"/>
    </contour>
    <contour>
      <point x="183" y="42" type="line"/>
      <point x="383" y="267" type="line"/>
      <point x="383" y="268" type="line"/>
      <point x="233" y="268" type="line"/>
      <point x="32" y="45" type="line"/>
      <point x="32" y="42" type="line"/>
    </contour>
  </outline>
</glyph>
<glyph name="onequarter.color1" format="2">
  <advance width="600"/>
  <unicode hex="00BC"/>
  <outline>
    <contour>
      <point x="37" y="454" type="line"/>
      <point x="148" y="454" type="line"/>
      <point x="148" y="542" type="line"/>
      <point x="37" y="542" type="line"/>
    </contour>
  </outline>
</glyph>
<glyph name="onequarter.color2" format="2">
  <advance width="600"/>
  <unicode hex="00BC"/>
  <outline>
    <contour>
      <point x="178" y="454" type="line"/>
      <point x="339" y="454" type="line"/>
      <point x="339" y="542" type="line"/>
      <point x="247" y="542" type="line"/>
    </contour>
  </outline>
</glyph>
<glyph name="onequarter.color3" format="2">
  <advance width="600"/>
  <unicode hex="00BC"/>
  <outline>
    <contour>
      <point x="87" y="667" type="line"/>
      <point x="148" y="667" type="line"/>
      <point x="217" y="756" type="line"/>
      <point x="87" y="756" type="line"/>
    </contour>
  </outline>
</glyph>
